<?xml version="1.0" encoding="UTF-8" standalone="no"?>
<!-- Created with Inkscape (http://www.inkscape.org/) -->

<svg
   width="25.977633"
   height="22.67717"
   id="svg2"
   sodipodi:version="0.32"
   inkscape:version="1.4.2 (ebf0e940d0, 2025-05-08)"
   version="1.0"
   sodipodi:docname="exp_logo.svg"
   xmlns:inkscape="http://www.inkscape.org/namespaces/inkscape"
   xmlns:sodipodi="http://sodipodi.sourceforge.net/DTD/sodipodi-0.dtd"
   xmlns="http://www.w3.org/2000/svg"
   xmlns:svg="http://www.w3.org/2000/svg"
   xmlns:rdf="http://www.w3.org/1999/02/22-rdf-syntax-ns#"
   xmlns:cc="http://creativecommons.org/ns#"
   xmlns:dc="http://purl.org/dc/elements/1.1/">
  <defs
     id="defs4" />
  <sodipodi:namedview
     id="base"
     pagecolor="#ffffff"
     bordercolor="#666666"
     borderopacity="1.0"
     gridtolerance="10000"
     guidetolerance="10"
     objecttolerance="10"
     inkscape:pageopacity="0.0"
     inkscape:pageshadow="2"
     inkscape:zoom="3.9555027"
     inkscape:cx="-56.62997"
     inkscape:cy="49.551224"
     inkscape:document-units="mm"
     inkscape:current-layer="layer1"
     width="210mm"
     height="297mm"
     units="mm"
     inkscape:window-width="1920"
     inkscape:window-height="1050"
     inkscape:window-x="0"
     inkscape:window-y="0"
     inkscape:showpageshadow="2"
     inkscape:pagecheckerboard="0"
     inkscape:deskcolor="#d1d1d1"
     showgrid="false"
     inkscape:window-maximized="0" />
  <metadata
     id="metadata7">
    <rdf:RDF>
      <cc:Work
         rdf:about="">
        <dc:format>image/svg+xml</dc:format>
        <dc:type
           rdf:resource="http://purl.org/dc/dcmitype/StillImage" />
      </cc:Work>
    </rdf:RDF>
  </metadata>
  <g
     inkscape:label="Layer 1"
     inkscape:groupmode="layer"
     id="layer1"
     transform="translate(-474.47684,-627.23003)">
    <path
       id="path1974"
       style="fill:#000000;fill-opacity:1;stroke:none;stroke-width:0.0435633;stroke-linecap:round;stroke-linejoin:bevel;stroke-miterlimit:4;stroke-dasharray:none;stroke-opacity:1"
       d="m 487.46454,627.23003 c -0.24689,0 -0.47622,0.13453 -0.60183,0.34677 l -12.29166,21.29229 c -0.12561,0.21657 -0.12561,0.48131 0,0.69355 0.12561,0.21657 0.35494,0.34456 0.60183,0.34456 h 24.58556 c 0.24689,0 0.47623,-0.13232 0.60182,-0.34456 0.12562,-0.21658 0.12562,-0.4813 0,-0.69355 L 488.06637,627.5768 c -0.12561,-0.21657 -0.35495,-0.34677 -0.60183,-0.34677 z m 0,3.32014 1.03139,1.78535 c -1.30055,2.83065 -5.08983,11.10103 -5.10772,11.39452 -1.4e-4,0.002 -1.3e-4,0.006 0,0.007 v 0.002 l 0.002,0.002 h 0.002 0.002 0.002 0.002 c 0.0356,-0.0183 0.15331,-0.18233 0.33337,-0.45416 -6e-4,0.0103 -9.4e-4,0.0195 0,0.0246 v 0.002 l 0.002,0.002 c 9.4e-4,0.002 9.4e-4,0.006 0.002,0.007 l 0.002,0.002 h 0.002 c 8.9e-4,-4.2e-4 0.004,-9.4e-4 0.005,-0.002 9.3e-4,-2.8e-4 0.006,-0.002 0.007,-0.002 0.005,-4.9e-4 0.0125,-6.6e-4 0.0202,0 0.0407,0.005 0.0541,0.007 0.12306,0.0114 0.069,0.005 0.0904,0.0246 0.15437,0.0246 0.0639,0 0.11134,0.009 0.16555,0.009 0.0542,0 0.0944,0.0398 0.13872,0.0693 0.0444,0.0295 0.0345,0.0407 0.0739,0.0604 0.0394,0.0194 0.13869,0.0148 0.16332,0.005 l 0.002,-0.002 c 0.0258,-0.0179 0.0733,-0.0978 0.0918,-0.11634 0.0197,-0.0197 0.0414,-0.0563 0.0784,-0.11409 0.037,-0.0578 0.0448,-0.089 0.0694,-0.11857 -0.0383,-0.0529 -0.0494,-0.0845 -0.0851,-0.19728 -1.6e-4,9.3e-4 2.6e-4,0.004 0,0.005 l -0.002,0.002 v 0.002 c -5.4e-4,8.8e-4 -0.004,0.006 -0.005,0.007 -0.0186,0.0202 -0.0647,0.0288 -0.10069,0.0448 -0.005,0.002 -0.009,0.002 -0.0134,0.002 -0.004,-2e-5 -0.012,-9.3e-4 -0.0157,-0.002 -0.026,-0.0114 -0.0463,-0.0474 -0.0492,-0.0649 v -0.002 -0.002 -0.002 c 0.004,-0.0221 0.0307,-0.0745 0.0134,-0.16108 -0.0185,-0.0924 -0.0501,-0.17136 -0.0894,-0.20583 -0.0394,-0.0345 -0.0598,-0.0345 -0.12753,-0.085 -0.0309,-0.023 -0.0454,-0.0574 -0.0604,-0.085 1.39857,-2.23107 4.02587,-6.64552 5.11443,-8.47932 l 1.00679,1.74509 -4.29782,5.41647 4.64013,-4.82583 0.59512,1.02915 c -2.00757,1.92354 -7.65891,7.34769 -7.47032,7.29132 0.22421,-0.0666 6.0059,-4.40665 8.18625,-6.04738 l 0.66671,1.15221 c -2.00177,1.14829 -6.43253,3.69834 -6.72082,3.93762 0.37121,-0.12107 5.13534,-2.26942 7.15709,-3.18367 l 1.09627,1.9017 c -2.51096,0.57285 -8.75302,2.00389 -8.89321,2.10305 0.25434,0 6.78785,-0.85255 9.41673,-1.19695 l 0.75174,1.29987 -7.53296,0.38481 7.87527,0.2103 0.37362,0.64658 c -3.44538,-0.17077 -11.31148,-0.557 -11.53323,-0.53694 0.23872,0.234 8.94114,1.27492 12.1798,1.65558 l 0.65776,1.13879 h -4.42535 c -3.70374,-0.74846 -8.80374,-1.76702 -9.08115,-1.75403 v 0.002 c 4.6e-4,9.4e-4 9.3e-4,0.004 0.002,0.005 0.0117,0.0135 0.045,0.0332 0.0918,0.0537 -0.022,0.0115 -0.0443,0.0381 -0.0492,0.0515 v 0.002 0.002 0.002 l -0.002,0.002 c -0.0181,0.0207 -0.0945,0.0722 -0.11858,0.0962 -0.0275,0.0275 -0.0639,0.057 -0.10515,0.10515 -0.0309,0.0361 -0.0561,0.0456 -0.0671,0.0537 l -0.002,0.002 -0.002,0.002 v 0.002 h -0.002 v 0.002 0.002 l 0.002,0.002 c 0.005,0.008 0.0164,0.0219 0.0313,0.0357 -0.1677,-0.049 -0.27585,-0.0721 -0.30874,-0.0626 0.0361,0.0843 1.28941,0.80407 2.33125,1.39159 h -8.5017 l 3.0539,-5.28672 c 0.0182,0.0216 0.0348,0.042 0.0448,0.0559 0.0247,0.0345 0.0688,0.1163 0.0984,0.16556 0.0295,0.0492 0.0397,0.0848 0.0939,0.12305 0.0542,0.0387 0.0885,0.0312 0.12305,0.0312 0.0322,0 0.0828,-0.0259 0.10515,-0.0291 l 0.002,-0.002 h 0.002 c 0.0239,-0.007 0.0909,-0.0605 0.15214,-0.132 0.0254,-0.0298 0.0566,-0.0325 0.0828,-0.0357 0.26664,0.34758 0.52795,0.59216 0.71145,0.55038 0,-0.0414 -0.43745,-0.97801 -0.81213,-1.77418 l 0.38034,-0.65999 c 0.26636,1.13188 0.58601,2.44927 0.63986,2.50799 l 0.002,0.002 0.002,0.002 h 0.002 v -0.002 h 0.002 v -0.002 c 0.006,-0.0153 0.007,-0.0603 0.002,-0.12753 0.004,0.022 0.005,0.0381 0.005,0.047 0.005,0.10343 0.1494,0.0537 0.22821,0.0784 0.0702,0.022 0.29187,0.0785 0.3535,0.0939 v 0.002 l 0.002,0.002 0.002,-0.002 c 0.006,9.4e-4 0.009,0.002 0.0114,0.002 v -0.002 h 0.002 c 0.0114,-0.0259 0.0403,-0.1474 0.0716,-0.3065 0.28004,-1.10997 1.10047,-4.89663 1.64664,-7.44346 z m -1.61756,4.5842 c -0.029,0.007 -0.10344,0.0641 -0.1499,0.12082 -0.0154,0.0189 -0.0206,0.0281 -0.0223,0.0357 v 0.002 c -9.3e-4,0.0139 0.008,0.0262 -0.0202,0.0828 -0.0459,0.0908 -0.11677,0.20785 -0.14094,0.24163 -0.0242,0.0339 -0.0354,0.11399 -0.11634,0.2215 -0.081,0.10756 -0.13923,0.13144 -0.20807,0.20807 -0.006,0.007 -0.11043,0.12124 -0.12977,0.14541 l -0.002,0.002 c -0.0158,0.0308 0.0114,0.17365 0.0202,0.1924 0.009,0.0193 0.0838,0.14396 0.0984,0.16332 0.0145,0.0193 0.0907,0.13055 0.10516,0.14991 0.0145,0.0193 0.12617,0.13178 0.17451,0.14095 0.0484,0.009 0.10973,0.0476 0.18346,0.009 0.0738,-0.0387 0.0394,-0.0821 0.11191,-0.16556 0.0725,-0.0835 0.0993,-0.0868 0.17898,-0.1678 0.0797,-0.081 0.0892,-0.0783 0.13871,-0.15437 0.0501,-0.0762 0.005,-0.0738 0.0582,-0.1499 0.0532,-0.0762 0.13725,-0.14745 0.15661,-0.15661 0.0242,-0.0192 0.0954,-0.11215 0.15438,-0.17675 0.0628,-0.0688 0.0575,-0.0283 0.0962,-0.0984 0.0387,-0.0701 0.0437,-0.15928 0.0582,-0.18345 0.0145,-0.0242 0.0623,-0.0955 0.0828,-0.17898 0.0205,-0.0833 0.0471,-0.0854 0,-0.15438 -0.0473,-0.0688 -0.10677,-0.10149 -0.19018,-0.12081 -0.0833,-0.0193 -0.0645,0.0231 -0.14542,0.0425 -0.081,0.0192 -0.10058,0.0347 -0.17675,0.0357 -0.0762,9.3e-4 -0.0501,-0.007 -0.12753,-0.0291 -0.0773,-0.0217 -0.15928,-0.0582 -0.18345,-0.0582 h -0.002 z m 3.36041,0.61749 c -0.0931,9.3e-4 -0.0738,0.0171 -0.13424,0.0582 -0.0605,0.0412 -0.0929,0.0879 -0.10733,0.10733 l -0.002,0.002 c -0.0233,0.0198 -0.11851,0.0523 -0.20582,0.0693 -0.093,0.0181 -0.12953,0 -0.16332,0 -0.0337,0 -0.066,-0.0125 -0.14095,-0.005 -0.0702,0.008 -0.13098,0.0129 -0.15437,0.0336 l -0.002,0.002 -0.002,0.002 c -0.0193,0.0242 -0.0832,0.0835 -0.10734,0.10298 -0.0227,0.0181 -0.0967,0.10022 -0.10962,0.13423 v 0.002 l -0.002,0.002 c -0.005,0.029 -0.0474,0.10641 -0.0716,0.17898 -0.0242,0.0725 -0.0385,0.0776 -0.0626,0.11633 -0.0242,0.0387 -0.0448,0.11566 -0.0448,0.15438 0,0.0386 0.006,0.11677 0.0202,0.14094 0.0136,0.0227 0.0316,0.13966 0.0537,0.17004 l 0.002,0.002 0.002,0.002 c 0.0242,0.0193 0.0623,0.10149 0.0962,0.12081 0.0337,0.0193 0.11271,0.0381 0.16108,0.0381 0.0485,0 0.077,0.0347 0.12529,0.0492 0.0484,0.0148 0.15895,-0.005 0.18794,-0.005 0.029,0 0.0755,-0.0268 0.15884,-0.0873 0.0834,-0.0605 0.13579,-0.13021 0.17451,-0.15437 0.0363,-0.0227 0.1422,-0.11933 0.17899,-0.13871 l 0.002,-0.002 h 0.002 c 0.029,-0.009 0.14105,-0.10561 0.17004,-0.12976 0.029,-0.0242 0.0337,-0.0878 0.0918,-0.17004 0.0579,-0.0822 0.11191,-0.13467 0.14095,-0.15885 0.029,-0.0242 0.10159,-0.0861 0.10962,-0.16109 0.008,-0.0749 -0.0531,-0.0723 -0.076,-0.1387 -0.0226,-0.0666 -0.002,-0.0562 -0.0157,-0.12753 -0.0133,-0.0713 0.0308,-0.10573 -0.0381,-0.15884 -0.069,-0.0531 -0.14402,-0.0548 -0.23715,-0.0537 z m -6.00265,2.17688 c -0.0458,0.40903 -0.0929,0.82773 -0.1387,1.24393 -0.0131,0.0348 -0.0293,0.0676 -0.0492,0.0784 l -0.002,0.002 c -8.5e-4,2.9e-4 -0.006,0.002 -0.007,0.002 h -0.002 -0.002 -0.002 c -9e-4,-2.1e-4 -0.006,-0.002 -0.007,-0.002 -0.0862,-0.0283 -0.14947,-0.0881 -0.23939,-0.10286 -0.0899,-0.0148 -0.11398,0.0251 -0.11857,0.0448 -6.9e-4,0.007 4.2e-4,0.0181 0,0.0247 v 0.002 0.002 l -0.002,0.002 v 0.002 l -0.002,0.002 h -0.002 l -0.002,0.002 c -0.006,0.004 -0.0169,0.008 -0.0313,0.0114 -0.0446,0.009 -0.0903,-0.018 -0.14318,-0.0157 z m -0.88597,1.53031 c 0.009,0.032 0.0201,0.0634 0.0223,0.076 0.005,0.0247 0.0492,0.25548 0.0492,0.27519 0,0.0197 -0.0217,0.0782 -0.0784,0.15212 -0.0567,0.0739 -0.0836,0.0768 -0.14766,0.14319 -0.064,0.0666 -0.085,0.032 -0.10962,0.12306 -0.0242,0.091 8.8e-4,0.20714 0.0114,0.24162 0.0103,0.0345 0.0139,0.18791 0.0336,0.23716 0.0197,0.0491 0.0984,0.1217 0.12305,0.13648 0.0247,0.0148 0.15705,0.10378 0.17675,0.11409 0.0197,0.0103 0.14693,0.075 0.27741,0.0693 0.0719,-0.004 0.10608,0.10126 0.14095,0.12305 l 0.002,0.002 h 0.002 l 0.002,0.002 h 0.002 0.002 0.002 0.002 0.002 l 0.002,-0.002 h 0.002 l 0.002,-0.002 c 0.004,-0.002 0.008,-0.009 0.0114,-0.0134 -0.0445,0.42553 -0.085,0.82091 -0.11858,1.16562 -0.11284,0.0148 -0.23811,-0.005 -0.44298,-0.005 -0.16149,0 -0.30969,-0.006 -0.39824,-0.009 -0.0766,-0.49503 -0.17061,-1.07673 -0.264,-1.63322 -1.3e-4,-7.9e-4 1.4e-4,-9.3e-4 0,-0.002 z m 4.18598,0.12073 c -0.0294,5.3e-4 -0.0694,0.0249 -0.14991,0.085 -0.0859,0.064 -0.13065,0.12256 -0.18793,0.17228 -0.0262,0.0228 -0.0275,0.0235 -0.0268,0.0223 v -0.002 h -0.002 v 0.002 c -0.002,8.9e-4 -0.007,0.002 -0.0114,0.005 -0.0354,0.0203 -0.068,0.0286 -0.10069,0.0559 -0.0329,0.0273 -0.0267,0.047 -0.0402,0.13423 -0.004,0.0217 -0.004,0.0383 0,0.0492 9.4e-4,0.002 0.004,0.009 0.005,0.0114 0.0146,0.0198 0.046,0.0285 0.0716,0.0693 0.0129,0.0203 0.0196,0.0305 0.0247,0.0357 l 0.002,0.002 0.002,0.002 c 9.4e-4,6.9e-4 0.006,9.4e-4 0.007,0.002 l 0.002,0.002 h 0.002 c 0.002,0.002 0.008,0.0103 0.0134,0.0179 0.0273,0.0381 0.0331,0.0351 0.0604,0.0515 0.0273,0.0169 0.0543,6e-5 0.076,-0.002 h 0.002 c 0.0226,-0.008 0.0703,-0.0566 0.085,-0.0671 l 0.002,-0.002 h 0.002 c 0.0129,-0.0141 0.0398,-0.0614 0.0738,-0.0918 0.0388,-0.0348 0.0614,-0.0412 0.0805,-0.047 0.0215,-0.0145 0.0768,-0.0948 0.0939,-0.10962 h 0.002 v -0.002 h 0.002 c 0.0128,-0.006 0.0727,-0.0402 0.0894,-0.0448 h 0.002 v -0.002 h 0.002 l 0.002,-0.002 0.002,-0.002 c 0.007,-0.017 0.0127,-0.0593 0.007,-0.10069 -0.008,-0.0552 -0.0225,-0.0691 -0.047,-0.1141 -0.0246,-0.0449 -0.0154,-0.0327 -0.0515,-0.0649 -0.0361,-0.032 -0.0618,-0.0604 -0.0918,-0.0626 -0.002,-1.7e-4 -0.005,-0.002 -0.007,-0.002 z m 3.93539,2.51248 c -0.0368,0.006 -0.14756,0.057 -0.32889,0.14096 -0.19342,0.0894 -0.29826,0.14324 -0.4385,0.21701 -0.0701,0.0368 -0.0863,0.0416 -0.0918,0.0448 l -0.002,0.002 c -0.002,0.002 -0.005,0.0103 -0.0268,0.0313 -0.0581,0.0556 -0.10734,0.12606 -0.11192,0.14542 -0.002,0.0227 0.0148,0.0831 0.0828,0.1499 0.0725,0.0713 0.14037,0.13882 0.20807,0.13424 0.0677,-0.005 0.15369,-0.0425 0.1924,-0.0425 0.0387,0 0.19475,-0.0447 0.22374,-0.0492 h 0.002 0.002 0.002 0.002 l 0.002,0.002 h 0.002 v 0.002 c 0.0153,0.0139 0.0317,0.0481 0.10068,0.0626 0.0919,0.0183 0.16095,0.044 0.25281,0.009 0.0804,-0.0308 0.0945,-0.11409 0.10963,-0.14095 v -0.002 l 0.002,-0.002 v -0.002 h 0.002 l 0.002,-0.002 c 0.0194,-0.009 0.11945,-0.05 0.1678,-0.12976 0.0484,-0.0797 0.0189,-0.11421 0.0247,-0.18794 0.002,-0.0369 0.0133,-0.0473 0.0179,-0.0559 l 0.002,-0.002 v -0.002 -0.002 -0.002 -0.002 -0.002 c -0.002,-0.008 -0.009,-0.0205 -0.0202,-0.0381 -0.0423,-0.0701 -0.0758,-0.10549 -0.17004,-0.17449 -0.0943,-0.069 -0.17684,-0.1007 -0.20582,-0.1007 -0.002,0 -0.005,-3.9e-4 -0.007,0 z m -4.92205,1.6623 c -0.0276,0.006 -0.0576,0.0297 -0.10962,0.0537 -0.012,0.006 -0.0215,0.0118 -0.0268,0.0179 -7.5e-4,9.3e-4 -0.004,0.006 -0.005,0.007 -4.8e-4,9.4e-4 -0.002,0.006 -0.002,0.007 v 0.002 c -1.3e-4,9.3e-4 -0.002,0.006 -0.002,0.007 7.8e-4,0.0172 0.0132,0.0383 0.0157,0.0537 v 0.002 0.002 c 0,0.0295 8.8e-4,0.0639 0.0114,0.12305 9.2e-4,0.006 5.7e-4,0.0115 0.002,0.0157 6.3e-4,9.4e-4 0.004,0.006 0.005,0.007 l 0.002,0.002 0.002,0.002 c 9.2e-4,7.2e-4 0.006,0.004 0.007,0.005 l 0.002,0.002 c 0.0231,0.009 0.0608,9.3e-4 0.0962,0.0114 0.0542,0.0148 0.11456,0.0389 0.13424,0.0492 h 0.002 c 0.0326,0.008 0.16665,0.0114 0.20359,0.0157 0.0394,0.005 0.13287,0.0134 0.17227,0.0134 0.0394,0 0.10092,-0.013 0.12307,-0.0537 0.0221,-0.0407 0.007,-0.0594 -0.0336,-0.10734 -0.0407,-0.048 -0.05,-0.0419 -0.12752,-0.085 -0.0775,-0.043 -0.10092,-0.0541 -0.18345,-0.0873 -0.0825,-0.0329 -0.08,-0.0288 -0.14767,-0.0448 -0.0677,-0.0162 -0.0885,-0.0156 -0.12305,-0.0202 -0.007,-9.2e-4 -0.0115,-9.4e-4 -0.0179,0 z m -4.16135,0.1141 c -0.81455,0.2113 -1.41844,0.952 -1.41844,1.83233 0,1.04477 0.85022,1.89275 1.89499,1.89275 0.63666,0 1.19835,-0.31407 1.54149,-0.79648 -0.0471,-0.0398 -0.0965,-0.0862 -0.10963,-0.13871 -0.0158,-0.063 0.005,-0.12985 -0.047,-0.18123 -0.0399,-0.0399 -0.0662,-0.0921 -0.12753,-0.10733 -0.0574,-0.0143 -0.14926,-0.0217 -0.21255,-0.009 -0.0373,0.007 -0.13481,0.045 -0.17002,0.0247 l -0.002,-0.002 -0.002,-0.002 h -0.002 v -0.002 l -0.002,-0.002 v -0.002 l -0.002,-0.002 v -0.002 -0.002 c -2.6e-4,-0.002 0,-0.005 0,-0.007 0,-0.0517 0.007,-0.0987 -0.0202,-0.13424 -0.0294,-0.0393 -0.1249,7.9e-4 -0.15661,-0.0247 v -0.002 l -0.002,-0.002 -0.002,-0.002 v -0.002 c -6.2e-4,-9.4e-4 -0.002,-0.002 -0.002,-0.005 -0.004,-0.0136 -2.8e-4,-0.0287 0.005,-0.0381 0.0195,-0.0309 0.0783,-0.0469 0.12082,-0.0894 v -0.002 -0.002 c -0.002,-0.007 -0.0123,-0.021 -0.0157,-0.0291 v -0.002 -0.002 -0.002 h 0.002 0.002 0.002 c 0.007,6e-4 0.0193,0.004 0.0381,0.0114 0.002,9e-4 0.005,0.002 0.007,0.002 l 0.002,0.002 h 0.002 l 0.002,-0.002 h 0.002 0.002 v -0.002 h 0.002 l 0.002,-0.002 v -0.002 -0.002 h 0.002 c 0.0114,-0.0378 -0.0306,-0.16213 0.005,-0.20583 0.0482,-0.0603 0.23044,-0.10435 0.23044,-0.18123 0,-0.0557 -0.0155,-0.0814 0,-0.18345 0.004,-0.0212 0.005,-0.0394 0.002,-0.0492 l -0.002,-0.002 v -0.002 -0.002 h -0.002 v -0.002 h -0.002 l -0.002,-0.002 c -9.2e-4,-3.9e-4 -0.006,-0.002 -0.007,-0.002 -0.0187,-0.002 -0.0541,0.0103 -0.11192,0.0247 h -0.002 -0.002 v -0.002 h -0.002 c -0.009,-0.007 -0.0237,-0.0282 -0.0336,-0.0357 l -0.002,-0.002 h -0.002 -0.002 c -0.0502,0.0103 -0.17277,0.0441 -0.23268,0.0291 -0.067,-0.0167 -0.0707,-0.0753 -0.12529,-0.11633 -0.0503,-0.0377 -0.0666,-0.0381 -0.13647,-0.0381 -0.0815,0 -0.10733,-0.0716 -0.16108,-0.12529 -0.0636,-0.0636 -0.11238,-0.085 -0.2036,-0.085 -0.1079,0 -0.20079,0.0179 -0.30875,0.0179 -0.0608,0 -0.18861,0.0263 -0.23267,-0.0179 -0.0527,-0.0527 -0.0448,-0.10721 -0.0179,-0.17452 0.0244,-0.061 0.0841,-0.0944 0.10516,-0.13647 0.0398,-0.0795 0.16776,-0.0716 0.22149,-0.14318 0.0382,-0.0509 0.0381,-0.11249 0.0381,-0.19465 0,-0.0822 -0.0448,-0.17611 -0.0939,-0.24163 -0.0346,-0.0461 -0.10527,-0.0696 -0.1253,-0.0918 l -0.002,-0.002 c -0.0242,-0.0403 -0.0551,-0.12442 -0.0873,-0.15662 -0.0103,-0.0103 -0.0222,-0.0204 -0.0357,-0.0313 z m 1.25736,0.31769 c -0.0971,-0.002 -0.15583,0.0324 -0.25505,0.0515 -0.11329,0.0217 -0.0556,-7.5e-4 -0.15438,0.0403 -0.0989,0.041 -0.17163,0.0433 -0.24162,0.12528 -0.07,0.082 -0.0622,0.13389 -0.0381,0.20136 0.008,0.0211 0.0122,0.0342 0.0202,0.0425 8.4e-4,7.4e-4 0.006,0.004 0.007,0.005 l 0.002,0.002 c 0.0179,0.009 0.0482,0.008 0.10515,0.0179 0.10127,0.0169 0.2225,0 0.27072,0 0.0482,0 0.11111,0.0723 0.18346,0.12529 0.0497,0.0365 0.0527,0.067 0.0693,0.0805 h 0.002 l 0.002,0.002 0.002,0.002 c 0.007,0.002 0.0177,0.002 0.0291,0.002 0.0603,-0.002 0.0642,-0.0576 0.13424,-0.0962 0.0698,-0.0386 0.0706,-0.0103 0.14542,-0.0582 0.0747,-0.0482 0.0676,-0.0812 0.15437,-0.13422 0.0706,-0.0432 0.15117,-0.0303 0.18122,-0.0537 0.002,-0.002 0.008,-0.009 0.009,-0.0114 9.4e-4,-0.002 0.002,-0.0103 0.002,-0.0134 0.005,-0.0554 -0.0758,-0.0902 -0.17227,-0.14319 -0.0965,-0.0532 -0.10882,-0.0213 -0.21254,-0.0671 -0.10378,-0.0458 -0.0781,-0.0996 -0.20359,-0.11634 -0.0157,-0.002 -0.0287,-0.005 -0.0425,-0.005 z m 1.12759,0.61302 c -0.0242,9.4e-4 -0.0484,0.004 -0.076,0.009 -0.0347,0.008 -0.052,0.0122 -0.0604,0.0157 h -0.002 l -0.002,0.002 h -0.002 v 0.002 l -0.002,0.002 v 0.002 c 0,0.0103 0.002,0.0305 -0.0179,0.0716 -0.0458,0.0941 -0.0288,0.1639 -0.0962,0.27967 -0.0676,0.11581 -0.11179,0.0991 -0.17449,0.18346 -0.0628,0.0845 -0.0692,0.07 -0.0784,0.15438 -0.009,0.0845 -0.006,0.12078 0.0403,0.18345 0.0458,0.0629 0.0443,0.0479 0.14318,0.0671 0.0989,0.0183 0.20235,0.0114 0.25057,0.0114 0.0482,0 0.12189,0.004 0.26176,-0.0114 0.13988,-0.0144 0.18164,-0.0131 0.29981,-0.047 0.1182,-0.0338 0.10469,-0.0342 0.17226,-0.0873 0.0675,-0.0531 0.0962,-0.0505 0.0962,-0.12529 0,-0.0748 -0.0456,-0.12147 -0.0962,-0.17451 -0.0348,-0.0365 -0.0647,-0.0172 -0.085,-0.0179 h -0.002 -0.002 l -0.002,-0.002 h -0.002 l -0.002,-0.002 -0.002,-0.002 -0.002,-0.002 c -9.4e-4,-0.002 -0.004,-0.008 -0.005,-0.0114 -0.0169,-0.0482 -5.6e-4,-0.1086 0.0381,-0.15438 0.006,-0.007 0.0124,-0.0103 0.0179,-0.0134 9.4e-4,-4.8e-4 0.006,-0.005 0.007,-0.005 9.4e-4,-2.7e-4 0.006,1.6e-4 0.007,0 0.0238,-9.3e-4 0.0502,0.0138 0.085,-0.0114 0.0506,-0.0362 0.0681,-0.0515 0.0873,-0.1141 0.0198,-0.0626 0.0202,-0.0882 -0.0114,-0.13647 -0.0118,-0.0182 -0.0103,-0.0301 -0.0157,-0.0357 l -0.002,-0.002 -0.002,-0.002 -0.002,-0.002 h -0.002 c -0.0114,-0.005 -0.0346,-0.009 -0.0894,-0.0157 -0.12541,-0.0144 -0.20135,0 -0.38704,0 -0.13929,0 -0.2072,-0.0124 -0.27968,-0.009 z m 5.68943,1.40725 c -0.0339,0 -0.11919,0.0103 -0.29085,0.0157 -0.17167,0.006 -0.2897,-0.0134 -0.39599,0.009 v 0.002 h -0.002 c -0.0135,0.0103 -0.0659,0.077 -0.0649,0.11192 2e-4,9.3e-4 -3.7e-4,0.006 0,0.007 v 0.002 h 0.002 v 0.002 l 0.002,0.002 c 0.0247,0.029 0.0336,0.12125 0.0336,0.14542 v 0.002 c -0.005,0.0244 -0.0478,0.064 -0.0403,0.12305 0.008,0.0629 0.0121,0.0842 0.0739,0.12528 0.0616,0.041 0.15516,0.0381 0.17452,0.0381 0.0194,0 0.232,0.0135 0.27071,0.009 0.0387,-0.005 0.4046,0.0201 0.4385,0.0201 0.0339,0 0.36298,0.0535 0.44522,0.0626 0.0822,0.009 0.15157,0.005 0.21927,-0.0381 0.0677,-0.0424 0.0381,-0.068 0.0515,-0.132 0.0133,-0.0641 0.0435,-0.0624 0,-0.12529 -0.0435,-0.0629 -0.0802,-0.0661 -0.1745,-0.12529 -0.0943,-0.0593 -0.11671,-0.0538 -0.20137,-0.11191 -0.0741,-0.0507 -0.0936,-0.10138 -0.12304,-0.11633 -9.4e-4,-4.5e-4 -0.006,-0.002 -0.007,-0.002 -9.3e-4,-2.3e-4 -0.006,-0.002 -0.007,-0.002 -0.0387,-0.005 -0.37103,-0.0247 -0.40494,-0.0247 z m -5.20617,0.16782 c 0.0153,0.006 0.0495,0.0159 0.0671,0.0223 -0.0197,-0.006 -0.0556,-0.0129 -0.0626,-0.0157 -9.3e-4,-9.4e-4 -0.004,-0.006 -0.005,-0.007 z m 0.49219,0.16556 c 1.22168,0.36043 3.91721,1.00563 6.06306,1.5057 h -0.87702 c -0.27769,-0.0704 -0.43615,-0.0852 -0.69579,-0.14096 -0.30943,-0.0658 -0.25569,-0.0898 -0.36692,-0.0784 -0.0208,0.002 -0.0357,0.005 -0.0448,0.009 -0.002,9.4e-4 -0.007,0.007 -0.009,0.009 h -0.002 v 0.002 l -0.002,0.002 c -3e-4,9.4e-4 -0.002,0.006 -0.002,0.007 -9.4e-4,0.0205 0.0134,0.0522 -0.0179,0.0918 -0.0322,0.0406 -0.0654,0.0707 -0.0939,0.0984 h -1.17235 c -0.26255,-0.10103 -0.54046,-0.20662 -0.82107,-0.31323 0.0283,-0.0288 0.0326,-0.057 0.0671,-0.0739 0.0324,-0.0157 0.0548,-9.4e-4 0.0693,0.005 l 0.002,0.002 h 0.002 c 0.0128,0.004 0.0791,-0.005 0.0984,-0.0114 l 0.002,-0.002 0.002,-0.002 0.002,-0.002 -0.002,-0.002 v -0.002 c -0.006,-0.009 -0.0195,-0.0237 -0.0223,-0.0425 -9.3e-4,-0.008 -9.3e-4,-0.0131 0,-0.0179 9.4e-4,-0.004 0.006,-0.0103 0.007,-0.0134 4e-4,-9.4e-4 0.002,-0.006 0.002,-0.007 7e-4,-0.007 -7.9e-4,-0.0186 -0.007,-0.0313 -0.0189,-0.0404 -0.0474,-0.078 -0.0784,-0.0918 -0.0309,-0.0138 -0.0733,-0.0313 -0.0939,-0.0313 -0.0206,0 -0.092,-0.0244 -0.12976,-0.0313 -0.0377,-0.007 -0.11226,-0.0136 -0.14319,-0.007 -0.029,0.007 -0.0585,0.0534 -0.0649,0.076 l -0.002,0.002 c -0.004,0.0206 -0.0233,0.05 -0.0515,0.11409 -9e-4,0.002 -0.007,0.0157 -0.0179,0.0336 -0.46529,-0.17549 -0.92916,-0.34656 -1.34014,-0.49445 0.0635,-0.0206 0.12663,-0.065 0.17674,-0.0716 0.0161,-0.002 0.0264,-0.004 0.0336,-0.007 h 0.002 l 0.002,-0.002 0.002,-0.002 h 0.002 v -0.002 l 0.002,-0.002 c 0.004,-0.009 0.005,-0.0282 0.007,-0.0537 0.004,-0.0511 -0.0114,-0.1305 -0.0268,-0.15662 l -0.002,-0.002 -0.002,-0.002 v -0.002 h -0.002 c -0.0172,-0.0103 -0.0799,-0.0869 -0.10733,-0.10069 -0.0265,-0.0133 -0.25307,-0.12628 -0.29532,-0.13647 h -0.002 c -0.009,-9.4e-4 -0.0276,-0.009 -0.0492,-0.0202 z"
       sodipodi:nodetypes="scccsscccscccccccccccccccccccccsssccccccccccccccccccccccccccccccccccccccccccccccccccccsscccccccccccccsccscccccccccccccccccscccccccccccccccccccccccscccccccccscccccscccscccsccccccccccssccccscsccccccccccscccccccccccccccccccccsccccsccccccccccccccccccccccsccccccccccccccccccccccccccccccccccccccccccccccccccccccscccccccccscccccccscccccccccsccccccccccscccccccccccsscccccccsscccccccccccccccsccccccccccccccccccccccccccccccccssccccccccccccccccccccscsscsccscccsccccccccccsccccccccccccccscsccccccccccccccssccssccccccccccccccccccccccsssscccccccccscccscscccccccccsccccccccccccccccccccccccccccsccccssccccsccccccccccccccccccccscccccccccccc" />
  </g>
</svg>
