<?xml version="1.0" encoding="UTF-8" standalone="no"?>
<!-- Created with Inkscape (http://www.inkscape.org/) -->

<svg
   width="4.4435mm"
   height="3.9994545mm"
   viewBox="0 0 4.4435 3.9994545"
   version="1.1"
   id="svg1"
   inkscape:version="1.4.2 (ebf0e940d0, 2025-05-08)"
   sodipodi:docname="Ohw_logo.svg"
   xmlns:inkscape="http://www.inkscape.org/namespaces/inkscape"
   xmlns:sodipodi="http://sodipodi.sourceforge.net/DTD/sodipodi-0.dtd"
   xmlns="http://www.w3.org/2000/svg"
   xmlns:svg="http://www.w3.org/2000/svg">
  <sodipodi:namedview
     id="namedview1"
     pagecolor="#ffffff"
     bordercolor="#000000"
     borderopacity="0.25"
     inkscape:showpageshadow="2"
     inkscape:pageopacity="0.0"
     inkscape:pagecheckerboard="0"
     inkscape:deskcolor="#d1d1d1"
     inkscape:document-units="mm"
     inkscape:zoom="8.4867056"
     inkscape:cx="-23.684102"
     inkscape:cy="23.801933"
     inkscape:window-width="1920"
     inkscape:window-height="1080"
     inkscape:window-x="0"
     inkscape:window-y="0"
     inkscape:window-maximized="0"
     inkscape:current-layer="layer1" />
  <defs
     id="defs1" />
  <g
     inkscape:label="Layer 1"
     inkscape:groupmode="layer"
     id="layer1"
     transform="translate(-127.53072,-137.31914)">
    <path
       fill="#0099b0"
       d="m 131.94898,139.23067 -0.54563,-0.10147 c -0.0133,-0.002 -0.0278,-0.015 -0.0323,-0.0278 l -0.16725,-0.3902 c -0.006,-0.012 -0.005,-0.031 0.003,-0.0422 l 0.31791,-0.46335 c 0.008,-0.0112 0.006,-0.0281 -0.003,-0.0377 l -0.39707,-0.39707 c -0.01,-0.01 -0.0265,-0.0112 -0.0377,-0.003 l -0.47149,0.32355 c -0.0112,0.008 -0.0303,0.009 -0.0424,0.003 l -0.37825,-0.15484 c -0.0128,-0.004 -0.0254,-0.0186 -0.0279,-0.0319 l -0.10505,-0.56435 c -0.002,-0.0133 -0.0156,-0.0242 -0.0291,-0.0242 h -0.5616 c -0.0135,0 -0.0266,0.0109 -0.0291,0.0242 l -0.10502,0.56435 c -0.003,0.0133 -0.015,0.0277 -0.0279,0.0319 l -0.37829,0.15484 c -0.0121,0.006 -0.0313,0.005 -0.0424,-0.003 l -0.47146,-0.32355 c -0.0112,-0.008 -0.0281,-0.006 -0.0377,0.003 l -0.39711,0.39707 c -0.01,0.01 -0.0112,0.0266 -0.003,0.0377 l 0.31794,0.46335 c 0.008,0.0112 0.009,0.0301 0.003,0.0422 l -0.16729,0.3902 c -0.004,0.0128 -0.0189,0.0253 -0.0323,0.0278 l -0.5456,0.10147 c -0.0134,0.003 -0.0242,0.0156 -0.0242,0.0291 l 3e-5,0.56157 c 0,0.0135 0.0109,0.0267 0.0242,0.0291 l 0.53223,0.099 c 0.0133,0.002 0.0275,0.0151 0.0316,0.028 l 0.16616,0.41506 c 0.006,0.0122 0.005,0.0312 -0.003,0.0424 l -0.30231,0.44055 c -0.008,0.0111 -0.006,0.0282 0.003,0.0377 l 0.39714,0.39707 c 0.01,0.01 0.0265,0.0111 0.0377,0.003 l 0.43276,-0.29703 c 0.0112,-0.008 0.0298,-0.008 0.0415,-0.001 l 0.19085,0.10189 c 0.0121,0.006 0.0262,0.001 0.0314,-0.0115 l 0.39352,-0.95084 c 0.005,-0.0125 0,-0.0285 -0.0115,-0.0356 l -0.0478,-0.0292 c -0.009,-0.005 -0.0208,-0.0146 -0.0302,-0.0231 -0.1723,-0.11033 -0.28661,-0.30334 -0.28661,-0.52314 0,-0.343 0.27808,-0.62104 0.62105,-0.62104 0.34297,0 0.62101,0.27804 0.62101,0.62104 0,0.2198 -0.11427,0.41281 -0.28661,0.52314 -0.009,0.008 -0.0213,0.0178 -0.0301,0.0231 l -0.0478,0.0292 c -0.0115,0.007 -0.0167,0.023 -0.0115,0.0356 l 0.39348,0.95087 c 0.005,0.0125 0.0193,0.0177 0.0314,0.0116 l 0.19085,-0.1019 c 0.0117,-0.007 0.0303,-0.006 0.0415,0.001 l 0.43279,0.29703 c 0.0111,0.008 0.0281,0.006 0.0377,-0.003 l 0.39714,-0.39707 c 0.01,-0.01 0.0111,-0.0266 0.003,-0.0377 l -0.30234,-0.44055 c -0.008,-0.0112 -0.009,-0.0302 -0.003,-0.0424 l 0.16616,-0.41506 c 0.004,-0.0129 0.0182,-0.0255 0.0316,-0.028 l 0.53223,-0.099 c 0.0133,-0.002 0.0242,-0.0156 0.0242,-0.0291 l 7e-5,-0.56157 c 3e-5,-0.0136 -0.0109,-0.0266 -0.0241,-0.0292"
       id="path1"
       style="stroke-width:0.0331915;fill:#000000;fill-opacity:1" />
  </g>
</svg>
