%TF.GenerationSoftware,KiCad,Pcbnew,9.0.3*%
%TF.CreationDate,2025-08-17T22:36:11+02:00*%
%TF.ProjectId,CH32PBG,43483332-5042-4472-9e6b-696361645f70,rev?*%
%TF.SameCoordinates,Original*%
%TF.FileFunction,Drillmap*%
%TF.FilePolarity,Positive*%
%FSLAX45Y45*%
G04 Gerber Fmt 4.5, Leading zero omitted, Abs format (unit mm)*
G04 Created by KiCad (PCBNEW 9.0.3) date 2025-08-17 22:36:11*
%MOMM*%
%LPD*%
G01*
G04 APERTURE LIST*
%ADD10C,0.026458*%
%ADD11C,0.200000*%
G04 APERTURE END LIST*
D10*
X17057172Y-5917095D02*
X17076826Y-5919082D01*
X17087773Y-5920873D01*
X17098618Y-5923158D01*
X17109345Y-5925924D01*
X17119937Y-5929161D01*
X17130377Y-5932856D01*
X17140649Y-5936997D01*
X17150736Y-5941574D01*
X17160623Y-5946574D01*
X17170291Y-5951986D01*
X17179725Y-5957798D01*
X17188909Y-5963999D01*
X17197825Y-5970576D01*
X17206458Y-5977519D01*
X17214790Y-5984815D01*
X17222805Y-5992453D01*
X17230486Y-6000421D01*
X17236009Y-6006580D01*
X17241331Y-6012922D01*
X17246444Y-6019439D01*
X17251343Y-6026124D01*
X17256020Y-6032968D01*
X17260469Y-6039964D01*
X17264683Y-6047106D01*
X17268657Y-6054384D01*
X17272383Y-6061792D01*
X17275855Y-6069322D01*
X17279066Y-6076967D01*
X17282011Y-6084718D01*
X17284681Y-6092569D01*
X17287072Y-6100511D01*
X17289175Y-6108538D01*
X17290986Y-6116641D01*
X17298468Y-6112931D01*
X17306002Y-6109382D01*
X17321198Y-6102693D01*
X17336517Y-6096419D01*
X17351905Y-6090403D01*
X17382657Y-6078519D01*
X17397911Y-6072339D01*
X17413007Y-6065792D01*
X17420265Y-6056170D01*
X17427676Y-6047043D01*
X17435226Y-6038398D01*
X17442905Y-6030223D01*
X17450699Y-6022506D01*
X17458596Y-6015233D01*
X17466584Y-6008394D01*
X17474649Y-6001974D01*
X17482780Y-5995963D01*
X17490964Y-5990347D01*
X17507442Y-5980252D01*
X17523982Y-5971589D01*
X17540486Y-5964260D01*
X17556854Y-5958166D01*
X17572986Y-5953206D01*
X17588782Y-5949281D01*
X17604143Y-5946293D01*
X17618970Y-5944142D01*
X17633162Y-5942728D01*
X17646620Y-5941953D01*
X17659245Y-5941717D01*
X17671634Y-5942431D01*
X17683746Y-5943719D01*
X17695580Y-5945557D01*
X17707137Y-5947924D01*
X17718416Y-5950798D01*
X17729417Y-5954158D01*
X17740139Y-5957983D01*
X17750582Y-5962249D01*
X17760746Y-5966936D01*
X17770631Y-5972022D01*
X17780235Y-5977486D01*
X17789559Y-5983305D01*
X17798603Y-5989458D01*
X17807365Y-5995923D01*
X17824046Y-6009703D01*
X17839600Y-6024473D01*
X17854022Y-6040058D01*
X17867312Y-6056285D01*
X17879466Y-6072980D01*
X17890482Y-6089971D01*
X17900356Y-6107084D01*
X17909087Y-6124145D01*
X17916671Y-6140981D01*
X17926098Y-6141287D01*
X17938153Y-6142229D01*
X17952321Y-6143842D01*
X17968086Y-6146161D01*
X17984933Y-6149222D01*
X18002346Y-6153059D01*
X18011103Y-6155279D01*
X18019809Y-6157707D01*
X18028398Y-6160346D01*
X18036806Y-6163202D01*
X18043017Y-6165511D01*
X18049187Y-6167944D01*
X18055310Y-6170502D01*
X18061381Y-6173186D01*
X18067397Y-6175997D01*
X18073351Y-6178937D01*
X18079239Y-6182008D01*
X18085056Y-6185209D01*
X18090797Y-6188544D01*
X18096456Y-6192012D01*
X18102031Y-6195615D01*
X18107514Y-6199355D01*
X18112902Y-6203233D01*
X18118189Y-6207249D01*
X18123370Y-6211406D01*
X18128441Y-6215705D01*
X18132560Y-6219497D01*
X18136591Y-6223369D01*
X18140537Y-6227320D01*
X18144400Y-6231344D01*
X18148185Y-6235439D01*
X18151894Y-6239602D01*
X18159095Y-6248113D01*
X18166029Y-6256849D01*
X18172719Y-6265782D01*
X18179190Y-6274883D01*
X18185466Y-6284125D01*
X18192026Y-6286431D01*
X18198551Y-6288852D01*
X18205036Y-6291389D01*
X18211476Y-6294040D01*
X18217863Y-6296805D01*
X18224192Y-6299683D01*
X18230457Y-6302674D01*
X18236652Y-6305777D01*
X18240234Y-6307660D01*
X18243780Y-6309607D01*
X18247290Y-6311616D01*
X18250763Y-6313685D01*
X18254201Y-6315813D01*
X18257602Y-6317998D01*
X18264295Y-6322533D01*
X18270842Y-6327276D01*
X18277241Y-6332214D01*
X18283492Y-6337334D01*
X18289594Y-6342622D01*
X18296519Y-6348969D01*
X18303344Y-6355422D01*
X18310051Y-6361996D01*
X18316616Y-6368706D01*
X18323020Y-6375566D01*
X18329241Y-6382591D01*
X18335259Y-6389795D01*
X18338184Y-6393469D01*
X18341051Y-6397193D01*
X18345445Y-6403113D01*
X18349675Y-6409147D01*
X18353742Y-6415290D01*
X18357647Y-6421537D01*
X18361391Y-6427882D01*
X18364975Y-6434322D01*
X18368401Y-6440849D01*
X18371669Y-6447461D01*
X18374782Y-6454151D01*
X18377739Y-6460915D01*
X18380542Y-6467748D01*
X18383192Y-6474644D01*
X18385691Y-6481599D01*
X18388039Y-6488608D01*
X18390238Y-6495666D01*
X18392288Y-6502768D01*
X18402651Y-6510503D01*
X18412729Y-6518967D01*
X18422523Y-6528113D01*
X18432034Y-6537892D01*
X18441264Y-6548257D01*
X18450213Y-6559159D01*
X18458883Y-6570550D01*
X18467275Y-6582382D01*
X18475391Y-6594607D01*
X18483230Y-6607177D01*
X18490795Y-6620044D01*
X18498087Y-6633159D01*
X18505106Y-6646476D01*
X18511854Y-6659945D01*
X18524541Y-6687149D01*
X18530352Y-6701521D01*
X18535695Y-6715939D01*
X18540576Y-6730407D01*
X18545002Y-6744929D01*
X18548977Y-6759509D01*
X18552508Y-6774150D01*
X18555600Y-6788858D01*
X18558260Y-6803634D01*
X18560493Y-6818484D01*
X18562305Y-6833411D01*
X18563701Y-6848419D01*
X18564688Y-6863512D01*
X18565271Y-6878693D01*
X18565456Y-6893968D01*
X18565249Y-6909338D01*
X18564655Y-6924809D01*
X18564253Y-7086621D01*
X18563221Y-7248510D01*
X18561051Y-7765791D01*
X18560702Y-7880565D01*
X18560658Y-7937946D01*
X18561051Y-7995338D01*
X18561263Y-8051924D01*
X18561637Y-8075961D01*
X18562284Y-8098051D01*
X18563279Y-8118865D01*
X18564691Y-8139072D01*
X18566594Y-8159340D01*
X18569060Y-8180339D01*
X18572512Y-8200753D01*
X18577181Y-8221721D01*
X18582893Y-8243090D01*
X18589472Y-8264708D01*
X18596746Y-8286423D01*
X18604539Y-8308082D01*
X18620986Y-8350626D01*
X18652446Y-8428348D01*
X18664670Y-8461088D01*
X18669295Y-8475396D01*
X18672697Y-8488124D01*
X18674139Y-8494700D01*
X18675320Y-8501320D01*
X18676275Y-8507979D01*
X18677040Y-8514667D01*
X18677650Y-8521376D01*
X18678142Y-8528100D01*
X18678911Y-8541558D01*
X18681578Y-8865130D01*
X18682307Y-9026921D01*
X18681948Y-9188702D01*
X18691530Y-9200861D01*
X18704579Y-9218287D01*
X18720133Y-9240363D01*
X18737232Y-9266475D01*
X18746059Y-9280852D01*
X18754913Y-9296007D01*
X18763671Y-9311863D01*
X18772215Y-9328344D01*
X18780423Y-9345373D01*
X18788177Y-9362871D01*
X18795354Y-9380764D01*
X18801837Y-9398973D01*
X18806687Y-9418710D01*
X18810984Y-9438573D01*
X18814683Y-9458548D01*
X18817739Y-9478619D01*
X18820106Y-9498773D01*
X18821739Y-9518995D01*
X18822594Y-9539270D01*
X18822624Y-9559584D01*
X18822361Y-9569033D01*
X18821902Y-9578483D01*
X18821245Y-9587927D01*
X18820384Y-9597357D01*
X18819315Y-9606768D01*
X18818034Y-9616152D01*
X18816537Y-9625502D01*
X18814819Y-9634812D01*
X18812876Y-9644074D01*
X18810705Y-9653282D01*
X18808300Y-9662430D01*
X18805657Y-9671510D01*
X18802773Y-9680515D01*
X18799642Y-9689439D01*
X18796261Y-9698275D01*
X18792626Y-9707016D01*
X18790207Y-9712655D01*
X18787656Y-9718232D01*
X18784975Y-9723746D01*
X18782167Y-9729195D01*
X18779234Y-9734578D01*
X18776180Y-9739892D01*
X18773006Y-9745136D01*
X18769715Y-9750308D01*
X18766310Y-9755406D01*
X18762794Y-9760429D01*
X18759168Y-9765374D01*
X18755435Y-9770239D01*
X18751598Y-9775023D01*
X18747660Y-9779725D01*
X18743623Y-9784342D01*
X18739489Y-9788872D01*
X18734571Y-9793968D01*
X18729561Y-9798967D01*
X18724461Y-9803871D01*
X18719276Y-9808680D01*
X18708658Y-9818020D01*
X18697733Y-9826996D01*
X18686524Y-9835619D01*
X18675055Y-9843897D01*
X18663349Y-9851842D01*
X18651433Y-9859462D01*
X18655433Y-9861050D01*
X18659413Y-9862680D01*
X18663369Y-9864362D01*
X18667302Y-9866102D01*
X18671210Y-9867911D01*
X18675092Y-9869796D01*
X18678947Y-9871765D01*
X18682774Y-9873828D01*
X18687087Y-9876109D01*
X18691353Y-9878476D01*
X18695572Y-9880925D01*
X18699744Y-9883455D01*
X18703868Y-9886063D01*
X18707944Y-9888748D01*
X18711972Y-9891506D01*
X18715951Y-9894337D01*
X18719880Y-9897237D01*
X18723761Y-9900205D01*
X18727592Y-9903237D01*
X18731372Y-9906333D01*
X18738782Y-9912705D01*
X18745987Y-9919303D01*
X18765861Y-9939216D01*
X18783282Y-9959298D01*
X18798397Y-9979944D01*
X18811354Y-10001547D01*
X18822301Y-10024502D01*
X18831384Y-10049203D01*
X18838751Y-10076045D01*
X18844549Y-10105422D01*
X18848926Y-10137728D01*
X18852030Y-10173358D01*
X18854007Y-10212705D01*
X18855005Y-10256165D01*
X18854654Y-10356998D01*
X18852157Y-10479011D01*
X18851311Y-10507518D01*
X18850688Y-10521768D01*
X18849846Y-10535997D01*
X18848721Y-10550192D01*
X18847250Y-10564340D01*
X18845368Y-10578427D01*
X18843010Y-10592440D01*
X18838486Y-10610662D01*
X18833037Y-10628258D01*
X18826706Y-10645261D01*
X18819537Y-10661702D01*
X18811571Y-10677613D01*
X18802851Y-10693027D01*
X18793421Y-10707976D01*
X18783324Y-10722490D01*
X18772601Y-10736604D01*
X18761296Y-10750348D01*
X18749452Y-10763754D01*
X18737112Y-10776855D01*
X18724317Y-10789682D01*
X18711112Y-10802269D01*
X18697539Y-10814645D01*
X18683640Y-10826845D01*
X18688113Y-10837181D01*
X18692294Y-10847644D01*
X18696188Y-10858221D01*
X18699803Y-10868903D01*
X18703145Y-10879679D01*
X18706220Y-10890540D01*
X18709036Y-10901474D01*
X18711597Y-10912472D01*
X18713331Y-10920608D01*
X18714841Y-10928834D01*
X18716137Y-10937122D01*
X18717233Y-10945445D01*
X18718140Y-10953774D01*
X18718870Y-10962081D01*
X18719846Y-10978515D01*
X18720258Y-10994523D01*
X18720201Y-11009879D01*
X18719771Y-11024359D01*
X18719064Y-11037736D01*
X18718449Y-11045841D01*
X18717645Y-11053933D01*
X18716648Y-11062006D01*
X18715457Y-11070052D01*
X18714069Y-11078067D01*
X18712481Y-11086044D01*
X18710693Y-11093977D01*
X18708700Y-11101860D01*
X18706501Y-11109687D01*
X18704094Y-11117451D01*
X18701475Y-11125146D01*
X18698644Y-11132767D01*
X18695597Y-11140307D01*
X18692332Y-11147759D01*
X18688846Y-11155119D01*
X18685138Y-11162380D01*
X18682709Y-11166784D01*
X18680200Y-11171143D01*
X18677615Y-11175456D01*
X18674956Y-11179726D01*
X18669433Y-11188138D01*
X18663657Y-11196389D01*
X18657655Y-11204487D01*
X18651453Y-11212442D01*
X18645076Y-11220262D01*
X18638553Y-11227957D01*
X18638669Y-11231735D01*
X18638735Y-11235365D01*
X18638789Y-11237128D01*
X18638878Y-11238858D01*
X18639019Y-11240557D01*
X18639227Y-11242226D01*
X18639519Y-11243866D01*
X18639909Y-11245480D01*
X18640415Y-11247068D01*
X18640716Y-11247853D01*
X18641052Y-11248631D01*
X18641425Y-11249405D01*
X18641836Y-11250172D01*
X18642288Y-11250935D01*
X18642783Y-11251692D01*
X18643323Y-11252445D01*
X18643910Y-11253192D01*
X18644545Y-11253935D01*
X18645231Y-11254674D01*
X18651663Y-11262733D01*
X18657935Y-11270909D01*
X18664032Y-11279204D01*
X18669938Y-11287624D01*
X18675637Y-11296172D01*
X18681114Y-11304852D01*
X18686353Y-11313670D01*
X18691340Y-11322628D01*
X18696100Y-11331789D01*
X18700752Y-11341024D01*
X18705243Y-11350345D01*
X18709518Y-11359764D01*
X18713526Y-11369292D01*
X18717212Y-11378940D01*
X18718918Y-11383813D01*
X18720523Y-11388720D01*
X18722021Y-11393664D01*
X18723405Y-11398644D01*
X18726567Y-11412664D01*
X18729229Y-11426771D01*
X18731430Y-11440950D01*
X18733209Y-11455185D01*
X18734604Y-11469461D01*
X18735655Y-11483762D01*
X18736401Y-11498075D01*
X18736879Y-11512384D01*
X18737032Y-11529596D01*
X18736921Y-11546810D01*
X18736549Y-11564020D01*
X18735917Y-11581217D01*
X18735028Y-11598395D01*
X18733885Y-11615546D01*
X18732491Y-11632664D01*
X18730846Y-11649740D01*
X18728219Y-11671862D01*
X18726755Y-11682927D01*
X18725133Y-11693975D01*
X18723306Y-11704994D01*
X18721228Y-11715971D01*
X18718856Y-11726893D01*
X18716144Y-11737745D01*
X18714140Y-11744263D01*
X18712018Y-11750755D01*
X18709786Y-11757220D01*
X18707453Y-11763654D01*
X18705027Y-11770057D01*
X18702515Y-11776427D01*
X18699927Y-11782762D01*
X18697270Y-11789060D01*
X18692887Y-11798941D01*
X18688346Y-11808768D01*
X18683625Y-11818516D01*
X18678699Y-11828166D01*
X18673545Y-11837694D01*
X18668140Y-11847079D01*
X18662461Y-11856300D01*
X18656484Y-11865334D01*
X18656442Y-11865503D01*
X18656405Y-11865662D01*
X18656374Y-11865810D01*
X18656349Y-11865948D01*
X18656328Y-11866077D01*
X18656313Y-11866197D01*
X18656303Y-11866307D01*
X18656297Y-11866410D01*
X18656297Y-11866504D01*
X18656301Y-11866590D01*
X18656311Y-11866669D01*
X18656324Y-11866740D01*
X18656343Y-11866805D01*
X18656366Y-11866863D01*
X18656393Y-11866916D01*
X18656424Y-11866962D01*
X18656460Y-11867003D01*
X18656500Y-11867039D01*
X18656544Y-11867070D01*
X18656591Y-11867096D01*
X18656643Y-11867119D01*
X18656698Y-11867138D01*
X18656757Y-11867153D01*
X18656820Y-11867165D01*
X18656956Y-11867182D01*
X18657105Y-11867191D01*
X18657440Y-11867195D01*
X18662626Y-11873222D01*
X18667628Y-11879401D01*
X18672446Y-11885726D01*
X18677078Y-11892189D01*
X18681524Y-11898784D01*
X18685785Y-11905503D01*
X18689859Y-11912341D01*
X18693746Y-11919291D01*
X18697445Y-11926345D01*
X18700957Y-11933497D01*
X18704280Y-11940741D01*
X18707415Y-11948069D01*
X18710360Y-11955475D01*
X18713116Y-11962952D01*
X18715681Y-11970493D01*
X18718056Y-11978092D01*
X18719972Y-11984777D01*
X18721737Y-11991496D01*
X18724844Y-12005030D01*
X18727438Y-12018673D01*
X18729579Y-12032404D01*
X18731327Y-12046203D01*
X18732742Y-12060049D01*
X18733883Y-12073922D01*
X18734813Y-12087801D01*
X18736405Y-12120928D01*
X18737454Y-12154070D01*
X18738393Y-12220377D01*
X18738960Y-12352953D01*
X18743755Y-12358913D01*
X18748426Y-12364972D01*
X18752971Y-12371126D01*
X18757386Y-12377373D01*
X18761670Y-12383712D01*
X18765820Y-12390138D01*
X18769834Y-12396651D01*
X18773710Y-12403247D01*
X18777446Y-12409924D01*
X18781038Y-12416680D01*
X18784485Y-12423513D01*
X18787785Y-12430419D01*
X18790934Y-12437397D01*
X18793931Y-12444444D01*
X18796774Y-12451557D01*
X18799460Y-12458735D01*
X18804925Y-12476595D01*
X18808325Y-12490772D01*
X18811668Y-12507937D01*
X18814578Y-12527706D01*
X18816679Y-12549696D01*
X18817594Y-12573523D01*
X18816947Y-12598803D01*
X18814362Y-12625155D01*
X18809462Y-12652194D01*
X18806027Y-12665851D01*
X18801872Y-12679537D01*
X18796950Y-12693203D01*
X18791214Y-12706801D01*
X18784617Y-12720283D01*
X18777112Y-12733602D01*
X18768652Y-12746709D01*
X18759190Y-12759556D01*
X18748680Y-12772097D01*
X18737073Y-12784282D01*
X18724323Y-12796064D01*
X18710383Y-12807395D01*
X18706078Y-12810695D01*
X18701704Y-12813895D01*
X18697265Y-12816997D01*
X18692763Y-12820006D01*
X18683591Y-12825761D01*
X18674219Y-12831192D01*
X18664678Y-12836333D01*
X18655001Y-12841216D01*
X18645218Y-12845873D01*
X18635361Y-12850339D01*
X18633387Y-12855892D01*
X18631340Y-12861426D01*
X18629216Y-12866936D01*
X18627014Y-12872417D01*
X18624731Y-12877864D01*
X18622366Y-12883273D01*
X18619916Y-12888637D01*
X18617378Y-12893953D01*
X18613846Y-12901158D01*
X18610144Y-12908269D01*
X18606260Y-12915274D01*
X18602185Y-12922162D01*
X18597909Y-12928922D01*
X18593422Y-12935542D01*
X18588714Y-12942011D01*
X18586274Y-12945185D01*
X18583775Y-12948317D01*
X18578147Y-12954929D01*
X18572324Y-12961372D01*
X18566311Y-12967641D01*
X18560115Y-12973732D01*
X18553741Y-12979640D01*
X18547197Y-12985360D01*
X18540489Y-12990889D01*
X18533622Y-12996221D01*
X18526602Y-13001352D01*
X18519437Y-13006277D01*
X18512132Y-13010992D01*
X18504694Y-13015493D01*
X18497128Y-13019774D01*
X18489442Y-13023832D01*
X18481640Y-13027661D01*
X18473730Y-13031257D01*
X18467506Y-13033874D01*
X18461204Y-13036278D01*
X18454833Y-13038501D01*
X18448401Y-13040572D01*
X18441917Y-13042522D01*
X18435391Y-13044382D01*
X18422248Y-13047949D01*
X18422248Y-13113165D01*
X18435385Y-13120094D01*
X18448331Y-13127327D01*
X18461054Y-13134886D01*
X18473521Y-13142788D01*
X18485699Y-13151053D01*
X18497555Y-13159700D01*
X18509058Y-13168749D01*
X18520173Y-13178219D01*
X18530868Y-13188129D01*
X18541111Y-13198499D01*
X18550869Y-13209348D01*
X18560108Y-13220695D01*
X18568797Y-13232559D01*
X18576902Y-13244960D01*
X18584390Y-13257917D01*
X18591230Y-13271450D01*
X18593672Y-13275931D01*
X18596012Y-13280460D01*
X18598250Y-13285035D01*
X18600390Y-13289653D01*
X18604385Y-13299010D01*
X18608015Y-13308514D01*
X18611300Y-13318150D01*
X18614259Y-13327899D01*
X18616911Y-13337746D01*
X18619277Y-13347672D01*
X18622304Y-13363162D01*
X18624898Y-13378659D01*
X18628995Y-13409778D01*
X18631981Y-13441220D01*
X18634268Y-13473181D01*
X18638395Y-13539434D01*
X18641060Y-13574113D01*
X18644676Y-13610085D01*
X18646598Y-13624322D01*
X18647634Y-13631509D01*
X18648732Y-13638714D01*
X18650812Y-13649417D01*
X18652985Y-13659028D01*
X18655260Y-13667730D01*
X18657648Y-13675701D01*
X18660159Y-13683123D01*
X18662804Y-13690175D01*
X18668536Y-13703891D01*
X18674926Y-13718290D01*
X18682057Y-13734813D01*
X18685926Y-13744321D01*
X18690011Y-13754901D01*
X18694323Y-13766733D01*
X18698871Y-13779997D01*
X18702977Y-13793078D01*
X18706662Y-13806302D01*
X18709874Y-13819655D01*
X18712558Y-13833121D01*
X18713685Y-13839891D01*
X18714659Y-13846683D01*
X18715475Y-13853496D01*
X18716125Y-13860327D01*
X18716603Y-13867174D01*
X18716901Y-13874036D01*
X18717013Y-13880910D01*
X18716932Y-13887794D01*
X18715860Y-13905593D01*
X18713936Y-13922737D01*
X18711202Y-13939235D01*
X18707701Y-13955096D01*
X18703474Y-13970326D01*
X18698564Y-13984936D01*
X18693013Y-13998933D01*
X18686863Y-14012326D01*
X18680155Y-14025122D01*
X18672934Y-14037330D01*
X18665239Y-14048960D01*
X18657114Y-14060018D01*
X18648601Y-14070513D01*
X18639741Y-14080454D01*
X18630577Y-14089848D01*
X18621152Y-14098705D01*
X18611506Y-14107033D01*
X18601683Y-14114839D01*
X18581673Y-14128922D01*
X18561458Y-14141020D01*
X18541375Y-14151201D01*
X18521761Y-14159531D01*
X18502953Y-14166077D01*
X18485289Y-14170905D01*
X18469105Y-14174082D01*
X18464433Y-14175073D01*
X18459753Y-14175941D01*
X18455065Y-14176693D01*
X18450370Y-14177338D01*
X18440963Y-14178340D01*
X18431538Y-14179011D01*
X18422102Y-14179418D01*
X18412661Y-14179627D01*
X18393787Y-14179715D01*
X17638671Y-14184158D01*
X16884759Y-14192976D01*
X16287072Y-14199401D01*
X16095255Y-14199601D01*
X16000626Y-14196664D01*
X15981773Y-14194567D01*
X15972352Y-14193500D01*
X15962949Y-14192330D01*
X15953575Y-14190987D01*
X15944243Y-14189405D01*
X15934963Y-14187513D01*
X15930346Y-14186430D01*
X15925747Y-14185244D01*
X15920752Y-14183841D01*
X15915801Y-14182312D01*
X15910892Y-14180663D01*
X15906025Y-14178901D01*
X15901197Y-14177032D01*
X15896407Y-14175063D01*
X15886937Y-14170852D01*
X15877606Y-14166321D01*
X15868403Y-14161524D01*
X15859316Y-14156514D01*
X15850338Y-14151344D01*
X15828176Y-14137949D01*
X15806111Y-14124376D01*
X15783912Y-14111005D01*
X15772691Y-14104516D01*
X15761351Y-14098221D01*
X15716121Y-14118478D01*
X15687647Y-14130873D01*
X15673132Y-14136776D01*
X15658459Y-14142355D01*
X15643648Y-14147513D01*
X15628717Y-14152154D01*
X15613687Y-14156183D01*
X15598578Y-14159502D01*
X15583409Y-14162018D01*
X15568200Y-14163632D01*
X15552970Y-14164249D01*
X15537740Y-14163773D01*
X15522529Y-14162108D01*
X15514937Y-14160800D01*
X15507357Y-14159158D01*
X15499791Y-14157171D01*
X15492243Y-14154827D01*
X15484714Y-14152114D01*
X15477208Y-14149019D01*
X15411731Y-14166374D01*
X15346057Y-14182961D01*
X15280171Y-14198644D01*
X15214057Y-14213285D01*
X15147700Y-14226746D01*
X15081086Y-14238890D01*
X15014198Y-14249579D01*
X14947021Y-14258676D01*
X14878887Y-14267267D01*
X14817366Y-14274055D01*
X14761921Y-14279104D01*
X14712018Y-14282480D01*
X14667119Y-14284248D01*
X14626688Y-14284473D01*
X14590191Y-14283220D01*
X14557090Y-14280554D01*
X14526850Y-14276542D01*
X14498934Y-14271246D01*
X14472808Y-14264734D01*
X14447000Y-14257070D01*
X14421000Y-14250000D01*
X14395000Y-14243000D01*
X14373000Y-14238000D01*
X14350000Y-14233000D01*
X14329000Y-14229000D01*
X14312000Y-14226000D01*
X14301000Y-14224000D01*
X14292000Y-14223000D01*
X14286000Y-14223000D01*
X14277000Y-14224000D01*
X14271000Y-14225000D01*
X14260000Y-14227000D01*
X14247000Y-14229000D01*
X14235000Y-14231000D01*
X14224000Y-14233000D01*
X14211000Y-14235000D01*
X14199000Y-14237000D01*
X14187000Y-14239000D01*
X14170000Y-14242000D01*
X14152000Y-14245000D01*
X14139712Y-14247001D01*
X14123378Y-14249908D01*
X14106939Y-14252152D01*
X14090413Y-14253731D01*
X14073817Y-14254645D01*
X14040494Y-14254475D01*
X14007118Y-14251632D01*
X13990456Y-14249206D01*
X13973836Y-14246110D01*
X13957277Y-14242342D01*
X13940797Y-14237902D01*
X13924414Y-14232788D01*
X13908148Y-14227000D01*
X13892016Y-14220537D01*
X13876038Y-14213398D01*
X13860231Y-14205581D01*
X13844000Y-14197000D01*
X13831000Y-14191000D01*
X13813000Y-14182000D01*
X13796000Y-14173000D01*
X13778000Y-14165000D01*
X13766000Y-14159000D01*
X13755000Y-14154000D01*
X13742000Y-14148000D01*
X13728000Y-14142000D01*
X13716000Y-14136000D01*
X13698000Y-14129000D01*
X13684000Y-14123000D01*
X13666000Y-14120000D01*
X13652000Y-14120000D01*
X13639000Y-14122000D01*
X13624000Y-14126000D01*
X13599000Y-14136000D01*
X13562000Y-14149000D01*
X13530000Y-14161000D01*
X13485000Y-14178000D01*
X13432000Y-14198000D01*
X13374000Y-14217000D01*
X13331000Y-14227000D01*
X13294000Y-14233000D01*
X13254000Y-14236000D01*
X13222000Y-14237000D01*
X13196000Y-14237000D01*
X13186000Y-14237000D01*
X13178000Y-14237000D01*
X13170000Y-14237000D01*
X13164000Y-14237000D01*
X13158000Y-14237000D01*
X13150410Y-14237000D01*
X13143000Y-14237000D01*
X13136000Y-14237000D01*
X13116843Y-14237506D01*
X13096450Y-14237757D01*
X13055665Y-14237670D01*
X12974105Y-14236972D01*
X12601846Y-14225502D01*
X12229667Y-14211760D01*
X11485385Y-14182402D01*
X11431381Y-14181116D01*
X11417889Y-14180600D01*
X11404407Y-14179895D01*
X11390937Y-14178946D01*
X11377484Y-14177699D01*
X11352800Y-14174420D01*
X11328920Y-14169433D01*
X11305897Y-14162801D01*
X11283787Y-14154587D01*
X11262644Y-14144856D01*
X11242521Y-14133671D01*
X11223475Y-14121097D01*
X11205558Y-14107196D01*
X11188826Y-14092033D01*
X11173333Y-14075672D01*
X11159133Y-14058175D01*
X11146281Y-14039608D01*
X11134832Y-14020033D01*
X11124839Y-13999515D01*
X11116357Y-13978118D01*
X11109440Y-13955904D01*
X11104144Y-13932938D01*
X11100522Y-13909284D01*
X11098629Y-13885005D01*
X11098519Y-13860166D01*
X11100247Y-13834829D01*
X11103867Y-13809059D01*
X11109433Y-13782920D01*
X11117001Y-13756475D01*
X11126624Y-13729788D01*
X11138356Y-13702923D01*
X11152254Y-13675943D01*
X11168369Y-13648913D01*
X11186758Y-13621896D01*
X11207475Y-13594956D01*
X11230574Y-13568157D01*
X11256109Y-13541562D01*
X11260603Y-13536966D01*
X11265232Y-13532505D01*
X11269977Y-13528159D01*
X11274814Y-13523908D01*
X11279724Y-13519733D01*
X11284685Y-13515612D01*
X11294673Y-13507456D01*
X11294883Y-13477316D01*
X11295178Y-13462284D01*
X11295732Y-13447253D01*
X11296904Y-13326020D01*
X11297051Y-13265404D01*
X11296662Y-13204787D01*
X11289361Y-13194977D01*
X11285774Y-13190036D01*
X11282235Y-13185066D01*
X11278751Y-13180065D01*
X11275326Y-13175029D01*
X11271967Y-13169955D01*
X11268679Y-13164841D01*
X11260178Y-13151051D01*
X11252225Y-13136936D01*
X11248465Y-13129761D01*
X11244855Y-13122511D01*
X11241400Y-13115187D01*
X11238103Y-13107790D01*
X11234970Y-13100324D01*
X11232004Y-13092789D01*
X11229210Y-13085187D01*
X11226593Y-13077521D01*
X11224156Y-13069792D01*
X11221904Y-13062001D01*
X11219841Y-13054151D01*
X11217972Y-13046244D01*
X11216818Y-13041146D01*
X11215788Y-13036029D01*
X11214065Y-13025739D01*
X11212737Y-13015387D01*
X11211737Y-13004987D01*
X11210998Y-12994550D01*
X11210452Y-12984089D01*
X11209678Y-12963148D01*
X11204092Y-12958948D01*
X11198580Y-12954638D01*
X11193149Y-12950217D01*
X11187807Y-12945682D01*
X11182564Y-12941030D01*
X11177425Y-12936260D01*
X11172400Y-12931369D01*
X11167497Y-12926355D01*
X11162207Y-12920573D01*
X11157043Y-12914682D01*
X11152006Y-12908686D01*
X11147094Y-12902588D01*
X11142308Y-12896393D01*
X11137647Y-12890105D01*
X11133112Y-12883726D01*
X11128701Y-12877262D01*
X11124415Y-12870715D01*
X11120254Y-12864089D01*
X11112304Y-12850618D01*
X11104850Y-12836877D01*
X11097889Y-12822898D01*
X11093335Y-12813024D01*
X11089042Y-12803039D01*
X11085009Y-12792948D01*
X11081237Y-12782759D01*
X11077724Y-12772479D01*
X11074472Y-12762113D01*
X11071478Y-12751668D01*
X11068743Y-12741153D01*
X11066267Y-12730572D01*
X11064050Y-12719934D01*
X11062090Y-12709244D01*
X11060388Y-12698509D01*
X11058943Y-12687737D01*
X11057754Y-12676933D01*
X11056823Y-12666106D01*
X11056147Y-12655260D01*
X11055506Y-12640149D01*
X11055422Y-12625024D01*
X11055911Y-12609912D01*
X11056989Y-12594837D01*
X11058670Y-12579825D01*
X11060971Y-12564902D01*
X11062358Y-12557481D01*
X11063906Y-12550092D01*
X11065616Y-12542738D01*
X11067490Y-12535422D01*
X11069285Y-12528824D01*
X11071125Y-12522510D01*
X11073002Y-12516473D01*
X11074910Y-12510702D01*
X11076842Y-12505189D01*
X11078793Y-12499925D01*
X11080755Y-12494902D01*
X11082722Y-12490110D01*
X11086643Y-12481184D01*
X11090504Y-12473077D01*
X11094252Y-12465716D01*
X11097834Y-12459032D01*
X11104291Y-12447404D01*
X11107061Y-12442318D01*
X11109454Y-12437623D01*
X11111417Y-12433247D01*
X11112222Y-12431157D01*
X11112899Y-12429119D01*
X11113443Y-12427126D01*
X11113846Y-12425167D01*
X11114103Y-12423235D01*
X11114206Y-12421321D01*
X11114642Y-12385205D01*
X11114965Y-12367102D01*
X11115524Y-12348974D01*
X11129135Y-11097442D01*
X11134554Y-10471727D01*
X11136130Y-9845871D01*
X11127474Y-9828119D01*
X11118900Y-9809186D01*
X11110649Y-9789162D01*
X11102960Y-9768136D01*
X11096075Y-9746199D01*
X11090233Y-9723441D01*
X11085675Y-9699952D01*
X11082641Y-9675823D01*
X11081373Y-9651143D01*
X11082110Y-9626003D01*
X11083305Y-9613289D01*
X11085093Y-9600493D01*
X11087501Y-9587627D01*
X11090562Y-9574703D01*
X11094304Y-9561731D01*
X11098758Y-9548723D01*
X11103953Y-9535690D01*
X11109921Y-9522643D01*
X11116691Y-9509594D01*
X11124292Y-9496554D01*
X11132755Y-9483534D01*
X11142111Y-9470545D01*
X11145690Y-9298721D01*
X11134178Y-9280116D01*
X11125949Y-9264469D01*
X11116834Y-9245025D01*
X11107402Y-9222108D01*
X11098226Y-9196043D01*
X11089875Y-9167154D01*
X11082922Y-9135766D01*
X11077937Y-9102203D01*
X11075491Y-9066790D01*
X11076156Y-9029852D01*
X11077832Y-9010912D01*
X11080501Y-8991712D01*
X11084233Y-8972293D01*
X11089099Y-8952696D01*
X11095171Y-8932960D01*
X11102520Y-8913128D01*
X11111218Y-8893238D01*
X11121335Y-8873332D01*
X11132944Y-8853450D01*
X11146116Y-8833633D01*
X11145354Y-8672713D01*
X11130211Y-8648293D01*
X11116734Y-8623479D01*
X11104992Y-8598324D01*
X11095052Y-8572883D01*
X11086982Y-8547210D01*
X11080850Y-8521360D01*
X11076724Y-8495388D01*
X11074672Y-8469347D01*
X11074761Y-8443292D01*
X11075631Y-8430276D01*
X11077061Y-8417277D01*
X11079060Y-8404302D01*
X11081638Y-8391358D01*
X11084802Y-8378450D01*
X11088560Y-8365587D01*
X11092922Y-8352775D01*
X11097896Y-8340021D01*
X11103491Y-8327331D01*
X11109714Y-8314713D01*
X11116574Y-8302173D01*
X11124081Y-8289717D01*
X11132241Y-8277354D01*
X11141065Y-8265089D01*
X11141913Y-8208794D01*
X11142035Y-8124942D01*
X11141433Y-8046091D01*
X11140861Y-8018713D01*
X11140109Y-8004795D01*
X11132095Y-7978625D01*
X11125234Y-7952163D01*
X11119604Y-7925486D01*
X11115285Y-7898672D01*
X11112356Y-7871801D01*
X11110896Y-7844952D01*
X11110985Y-7818201D01*
X11112702Y-7791629D01*
X11116127Y-7765314D01*
X11121337Y-7739334D01*
X11128414Y-7713768D01*
X11137436Y-7688695D01*
X11148483Y-7664192D01*
X11154790Y-7652180D01*
X11161633Y-7640340D01*
X11169022Y-7628681D01*
X11176967Y-7617215D01*
X11185477Y-7605950D01*
X11194563Y-7594897D01*
X11199205Y-7589735D01*
X11203942Y-7584657D01*
X11208772Y-7579667D01*
X11213694Y-7574768D01*
X11218707Y-7569962D01*
X11223811Y-7565253D01*
X11229004Y-7560645D01*
X11234286Y-7556140D01*
X11239655Y-7551741D01*
X11245110Y-7547453D01*
X11250652Y-7543277D01*
X11256278Y-7539217D01*
X11261987Y-7535277D01*
X11267780Y-7531459D01*
X11273654Y-7527767D01*
X11279609Y-7524204D01*
X11282285Y-7484769D01*
X11284155Y-7465031D01*
X11285372Y-7455215D01*
X11286832Y-7445455D01*
X11288580Y-7435769D01*
X11290656Y-7426173D01*
X11293104Y-7416682D01*
X11295965Y-7407314D01*
X11299283Y-7398085D01*
X11303099Y-7389012D01*
X11307457Y-7380110D01*
X11312398Y-7371397D01*
X11312912Y-7344965D01*
X11313764Y-7327274D01*
X11315201Y-7307376D01*
X11317362Y-7285852D01*
X11320388Y-7263286D01*
X11322269Y-7251793D01*
X11324418Y-7240257D01*
X11326854Y-7228752D01*
X11329593Y-7217349D01*
X11331096Y-7211369D01*
X11332773Y-7205443D01*
X11334616Y-7199572D01*
X11336619Y-7193759D01*
X11338778Y-7188004D01*
X11341084Y-7182308D01*
X11343532Y-7176672D01*
X11346117Y-7171099D01*
X11348693Y-7165906D01*
X11351360Y-7160757D01*
X11354117Y-7155652D01*
X11356965Y-7150595D01*
X11359902Y-7145589D01*
X11362929Y-7140636D01*
X11366046Y-7135739D01*
X11369253Y-7130901D01*
X11372549Y-7126124D01*
X11375935Y-7121410D01*
X11379409Y-7116763D01*
X11382973Y-7112185D01*
X11386626Y-7107679D01*
X11390367Y-7103247D01*
X11394197Y-7098893D01*
X11398116Y-7094618D01*
X11403505Y-7088982D01*
X11408954Y-7083406D01*
X11414480Y-7077912D01*
X11420098Y-7072520D01*
X11425822Y-7067251D01*
X11431668Y-7062127D01*
X11437650Y-7057169D01*
X11440698Y-7054759D01*
X11443785Y-7052398D01*
X11446560Y-7050311D01*
X11449378Y-7048276D01*
X11455137Y-7044362D01*
X11461044Y-7040659D01*
X11467078Y-7037173D01*
X11473222Y-7033907D01*
X11479455Y-7030866D01*
X11485759Y-7028054D01*
X11492115Y-7025475D01*
X11499086Y-7022600D01*
X11506103Y-7019805D01*
X11513164Y-7017108D01*
X11520265Y-7014532D01*
X11527404Y-7012096D01*
X11534578Y-7009822D01*
X11541786Y-7007728D01*
X11549024Y-7005838D01*
X11555334Y-7004041D01*
X11561674Y-7002429D01*
X11568041Y-7000977D01*
X11574431Y-6999656D01*
X11580842Y-6998439D01*
X11587268Y-6997299D01*
X11600158Y-6995141D01*
X11639958Y-6989275D01*
X11679820Y-6983924D01*
X11759670Y-6974283D01*
X11919492Y-6955867D01*
X11919765Y-6950108D01*
X11920469Y-6941475D01*
X11921810Y-6930370D01*
X11923993Y-6917200D01*
X11925465Y-6909966D01*
X11927225Y-6902367D01*
X11929298Y-6894454D01*
X11931710Y-6886278D01*
X11934487Y-6877888D01*
X11937655Y-6869336D01*
X11941240Y-6860671D01*
X11945266Y-6851945D01*
X11948839Y-6844812D01*
X11952630Y-6837794D01*
X11956634Y-6830898D01*
X11960848Y-6824128D01*
X11965266Y-6817491D01*
X11969883Y-6810991D01*
X11974694Y-6804635D01*
X11979695Y-6798428D01*
X11984881Y-6792375D01*
X11990247Y-6786482D01*
X11995787Y-6780755D01*
X12001498Y-6775198D01*
X12007374Y-6769819D01*
X12013411Y-6764621D01*
X12019603Y-6759611D01*
X12025946Y-6754794D01*
X12033833Y-6681594D01*
X12036125Y-6663336D01*
X12038710Y-6645120D01*
X12041672Y-6626957D01*
X12045092Y-6608859D01*
X12048003Y-6595150D01*
X12051308Y-6581514D01*
X12055017Y-6567973D01*
X12059142Y-6554547D01*
X12063692Y-6541257D01*
X12068681Y-6528123D01*
X12074117Y-6515166D01*
X12080012Y-6502406D01*
X12082170Y-6497948D01*
X12084404Y-6493528D01*
X12086713Y-6489150D01*
X12089100Y-6484814D01*
X12091562Y-6480523D01*
X12094102Y-6476280D01*
X12096718Y-6472086D01*
X12099410Y-6467944D01*
X12102180Y-6463856D01*
X12105027Y-6459824D01*
X12107951Y-6455850D01*
X12110952Y-6451936D01*
X12114030Y-6448086D01*
X12117186Y-6444300D01*
X12120419Y-6440581D01*
X12123731Y-6436932D01*
X12127570Y-6432875D01*
X12131505Y-6428906D01*
X12135534Y-6425030D01*
X12139656Y-6421251D01*
X12143870Y-6417576D01*
X12148175Y-6414008D01*
X12152570Y-6410554D01*
X12157052Y-6407218D01*
X12161622Y-6404005D01*
X12166277Y-6400922D01*
X12171016Y-6397972D01*
X12175839Y-6395161D01*
X12180743Y-6392494D01*
X12185728Y-6389977D01*
X12190793Y-6387614D01*
X12195935Y-6385410D01*
X12201551Y-6383209D01*
X12207217Y-6381158D01*
X12212931Y-6379256D01*
X12218689Y-6377501D01*
X12224487Y-6375894D01*
X12230322Y-6374433D01*
X12236191Y-6373116D01*
X12242089Y-6371942D01*
X12248013Y-6370911D01*
X12253960Y-6370021D01*
X12259925Y-6369271D01*
X12265906Y-6368660D01*
X12271898Y-6368187D01*
X12277898Y-6367850D01*
X12283903Y-6367649D01*
X12289909Y-6367582D01*
X12301286Y-6367737D01*
X12312652Y-6368291D01*
X12323991Y-6369259D01*
X12335284Y-6370657D01*
X12346513Y-6372500D01*
X12352098Y-6373594D01*
X12357659Y-6374805D01*
X12363196Y-6376136D01*
X12368705Y-6377588D01*
X12374185Y-6379163D01*
X12379632Y-6380863D01*
X12379910Y-6326112D01*
X12380214Y-6298731D01*
X12380769Y-6271360D01*
X12380979Y-6244547D01*
X12381274Y-6231152D01*
X12381513Y-6224460D01*
X12381829Y-6217772D01*
X12382321Y-6208083D01*
X12383192Y-6198423D01*
X12384435Y-6188806D01*
X12386047Y-6179246D01*
X12388025Y-6169754D01*
X12390363Y-6160346D01*
X12393057Y-6151035D01*
X12396104Y-6141834D01*
X12399499Y-6132756D01*
X12403238Y-6123815D01*
X12407317Y-6115024D01*
X12411732Y-6106398D01*
X12416479Y-6097949D01*
X12421552Y-6089691D01*
X12426949Y-6081637D01*
X12432665Y-6073801D01*
X12438192Y-6066924D01*
X12443883Y-6060177D01*
X12449743Y-6053572D01*
X12455774Y-6047124D01*
X12461981Y-6040845D01*
X12468368Y-6034749D01*
X12474937Y-6028849D01*
X12478292Y-6025977D01*
X12481693Y-6023159D01*
X12484524Y-6020834D01*
X12487391Y-6018569D01*
X12493230Y-6014208D01*
X12499206Y-6010064D01*
X12505313Y-6006125D01*
X12511544Y-6002376D01*
X12517894Y-5998807D01*
X12524357Y-5995403D01*
X12530928Y-5992153D01*
X12536382Y-5989775D01*
X12541894Y-5987526D01*
X12547460Y-5985407D01*
X12553078Y-5983416D01*
X12558742Y-5981555D01*
X12564451Y-5979824D01*
X12570199Y-5978223D01*
X12575983Y-5976753D01*
X12581801Y-5975414D01*
X12587647Y-5974205D01*
X12593519Y-5973128D01*
X12599412Y-5972183D01*
X12605324Y-5971370D01*
X12611250Y-5970689D01*
X12617187Y-5970141D01*
X12623132Y-5969725D01*
X12630663Y-5969349D01*
X12638208Y-5969172D01*
X12645761Y-5969198D01*
X12653313Y-5969430D01*
X12660857Y-5969870D01*
X12668385Y-5970523D01*
X12675890Y-5971391D01*
X12683364Y-5972477D01*
X12690799Y-5973785D01*
X12698189Y-5975318D01*
X12705524Y-5977079D01*
X12712799Y-5979071D01*
X12720005Y-5981297D01*
X12727135Y-5983761D01*
X12734180Y-5986465D01*
X12741135Y-5989414D01*
X12748129Y-5992693D01*
X12755021Y-5996172D01*
X12761809Y-5999844D01*
X12768490Y-6003704D01*
X12775062Y-6007746D01*
X12781522Y-6011965D01*
X12787868Y-6016355D01*
X12794097Y-6020911D01*
X12800206Y-6025626D01*
X12806194Y-6030496D01*
X12812058Y-6035514D01*
X12817794Y-6040675D01*
X12823402Y-6045974D01*
X12828877Y-6051405D01*
X12834219Y-6056962D01*
X12839423Y-6062639D01*
X12843921Y-6067779D01*
X12848313Y-6073024D01*
X12852590Y-6078371D01*
X12856745Y-6083818D01*
X12860772Y-6089364D01*
X12864663Y-6095006D01*
X12868411Y-6100742D01*
X12872009Y-6106571D01*
X12875448Y-6112490D01*
X12878723Y-6118497D01*
X12881825Y-6124590D01*
X12884748Y-6130767D01*
X12887483Y-6137027D01*
X12890025Y-6143366D01*
X12892366Y-6149784D01*
X12894497Y-6156277D01*
X12895955Y-6161292D01*
X12897283Y-6166334D01*
X12898489Y-6171402D01*
X12899579Y-6176494D01*
X12901437Y-6186739D01*
X12902906Y-6197050D01*
X12904038Y-6207409D01*
X12904884Y-6217799D01*
X12905493Y-6228202D01*
X12905918Y-6238598D01*
X12906456Y-6370741D01*
X12907352Y-6502923D01*
X12919544Y-6502507D01*
X12933217Y-6501701D01*
X12962121Y-6499467D01*
X12988290Y-6497320D01*
X12998545Y-6496623D01*
X13005951Y-6496360D01*
X13006476Y-6487214D01*
X13007174Y-6478076D01*
X13008062Y-6468952D01*
X13009159Y-6459850D01*
X13010484Y-6450777D01*
X13012053Y-6441741D01*
X13013886Y-6432748D01*
X13016002Y-6423806D01*
X13018283Y-6415232D01*
X13020878Y-6406759D01*
X13023773Y-6398393D01*
X13026959Y-6390139D01*
X13030423Y-6382001D01*
X13034156Y-6373983D01*
X13038146Y-6366092D01*
X13042382Y-6358332D01*
X13046714Y-6350917D01*
X13051244Y-6343617D01*
X13055969Y-6336439D01*
X13060884Y-6329389D01*
X13065988Y-6322473D01*
X13071276Y-6315697D01*
X13076745Y-6309068D01*
X13082391Y-6302592D01*
X13088212Y-6296276D01*
X13094204Y-6290125D01*
X13100363Y-6284145D01*
X13106686Y-6278344D01*
X13113170Y-6272727D01*
X13119812Y-6267301D01*
X13126607Y-6262072D01*
X13133553Y-6257046D01*
X13139562Y-6252906D01*
X13145702Y-6248975D01*
X13151964Y-6245253D01*
X13158343Y-6241739D01*
X13164829Y-6238435D01*
X13171417Y-6235341D01*
X13178099Y-6232455D01*
X13184867Y-6229780D01*
X13191715Y-6227315D01*
X13198635Y-6225061D01*
X13205619Y-6223017D01*
X13212661Y-6221183D01*
X13219753Y-6219561D01*
X13226889Y-6218150D01*
X13234060Y-6216951D01*
X13241259Y-6215963D01*
X13250132Y-6214965D01*
X13259035Y-6214277D01*
X13267957Y-6213897D01*
X13276888Y-6213826D01*
X13285816Y-6214063D01*
X13294731Y-6214607D01*
X13303621Y-6215458D01*
X13312476Y-6216616D01*
X13321284Y-6218079D01*
X13330034Y-6219848D01*
X13338715Y-6221921D01*
X13347317Y-6224299D01*
X13355829Y-6226980D01*
X13364238Y-6229964D01*
X13372535Y-6233251D01*
X13380708Y-6236841D01*
X13387383Y-6240052D01*
X13393953Y-6243460D01*
X13400416Y-6247061D01*
X13406769Y-6250848D01*
X13413010Y-6254816D01*
X13419137Y-6258958D01*
X13425147Y-6263269D01*
X13431038Y-6267743D01*
X13436807Y-6272375D01*
X13442453Y-6277158D01*
X13447972Y-6282088D01*
X13453363Y-6287157D01*
X13458624Y-6292361D01*
X13463751Y-6297694D01*
X13468743Y-6303150D01*
X13473596Y-6308723D01*
X13481006Y-6317866D01*
X13488146Y-6327236D01*
X13494994Y-6336828D01*
X13501529Y-6346640D01*
X13507731Y-6356671D01*
X13513578Y-6366917D01*
X13519049Y-6377376D01*
X13521637Y-6382685D01*
X13524123Y-6388046D01*
X13525984Y-6392331D01*
X13527720Y-6396659D01*
X13529335Y-6401026D01*
X13530834Y-6405429D01*
X13532222Y-6409867D01*
X13533502Y-6414337D01*
X13534681Y-6418835D01*
X13535762Y-6423360D01*
X13537650Y-6432478D01*
X13539204Y-6441669D01*
X13540462Y-6450912D01*
X13541460Y-6460186D01*
X13542348Y-6475817D01*
X13543066Y-6491467D01*
X13544114Y-6522812D01*
X13545517Y-6585553D01*
X13603939Y-6587639D01*
X13633295Y-6589133D01*
X13662543Y-6591541D01*
X13677080Y-6593232D01*
X13691532Y-6595323D01*
X13705881Y-6597872D01*
X13720109Y-6600937D01*
X13734194Y-6604576D01*
X13748120Y-6608845D01*
X13761865Y-6613802D01*
X13775413Y-6619505D01*
X13781343Y-6622572D01*
X13787183Y-6625802D01*
X13792930Y-6629190D01*
X13798585Y-6632729D01*
X13804145Y-6636414D01*
X13809611Y-6640239D01*
X13814981Y-6644199D01*
X13820255Y-6648288D01*
X13825431Y-6652501D01*
X13830509Y-6656832D01*
X13835487Y-6661275D01*
X13840365Y-6665824D01*
X13845142Y-6670475D01*
X13849817Y-6675222D01*
X13854389Y-6680058D01*
X13858857Y-6684979D01*
X13865838Y-6693673D01*
X13872518Y-6702491D01*
X13878903Y-6711433D01*
X13885000Y-6720500D01*
X13890815Y-6729693D01*
X13896354Y-6739012D01*
X13901624Y-6748460D01*
X13906632Y-6758036D01*
X13911384Y-6767742D01*
X13915885Y-6777578D01*
X13920144Y-6787546D01*
X13924166Y-6797646D01*
X13927957Y-6807879D01*
X13931524Y-6818247D01*
X13934874Y-6828749D01*
X13938013Y-6839388D01*
X13938765Y-6841388D01*
X13939481Y-6843421D01*
X13940864Y-6847507D01*
X13941561Y-6849521D01*
X13942282Y-6851487D01*
X13943040Y-6853387D01*
X13943439Y-6854306D01*
X13943852Y-6855201D01*
X13955374Y-6869529D01*
X13961015Y-6876783D01*
X13966523Y-6884133D01*
X13971856Y-6891607D01*
X13976973Y-6899232D01*
X13979438Y-6903109D01*
X13981833Y-6907034D01*
X13984154Y-6911011D01*
X13986395Y-6915042D01*
X13989997Y-6921101D01*
X13993365Y-6927298D01*
X13996485Y-6933625D01*
X13997948Y-6936834D01*
X13999344Y-6940073D01*
X14000672Y-6943340D01*
X14001929Y-6946635D01*
X14003114Y-6949956D01*
X14004226Y-6953303D01*
X14005263Y-6956674D01*
X14006222Y-6960069D01*
X14007104Y-6963486D01*
X14007905Y-6966925D01*
X14009025Y-6972206D01*
X14010023Y-6977504D01*
X14011697Y-6988145D01*
X14013011Y-6998835D01*
X14014050Y-7009558D01*
X14017142Y-7052501D01*
X14020467Y-7056095D01*
X14022095Y-7057903D01*
X14023702Y-7059736D01*
X14025288Y-7061608D01*
X14026854Y-7063533D01*
X14028402Y-7065522D01*
X14029932Y-7067591D01*
X14032857Y-7071510D01*
X14035691Y-7075497D01*
X14038432Y-7079548D01*
X14041077Y-7083662D01*
X14043624Y-7087837D01*
X14046070Y-7092070D01*
X14048413Y-7096359D01*
X14050649Y-7100703D01*
X14052778Y-7105098D01*
X14054796Y-7109544D01*
X14056700Y-7114037D01*
X14058489Y-7118576D01*
X14060160Y-7123159D01*
X14061710Y-7127783D01*
X14063137Y-7132447D01*
X14064439Y-7137147D01*
X14066377Y-7145771D01*
X14068086Y-7154430D01*
X14069587Y-7163123D01*
X14070898Y-7171848D01*
X14072040Y-7180602D01*
X14073032Y-7189383D01*
X14073894Y-7198187D01*
X14074645Y-7207014D01*
X14076334Y-7231550D01*
X14077682Y-7256090D01*
X14079588Y-7305180D01*
X14081906Y-7403384D01*
X14086277Y-7405372D01*
X14090600Y-7407458D01*
X14094872Y-7409640D01*
X14099093Y-7411917D01*
X14103263Y-7414285D01*
X14107381Y-7416742D01*
X14111447Y-7419287D01*
X14115460Y-7421917D01*
X14119419Y-7424630D01*
X14123324Y-7427423D01*
X14127174Y-7430296D01*
X14130969Y-7433244D01*
X14134708Y-7436267D01*
X14138390Y-7439362D01*
X14142016Y-7442527D01*
X14145584Y-7445759D01*
X14150261Y-7450091D01*
X14154855Y-7454520D01*
X14159360Y-7459046D01*
X14163771Y-7463668D01*
X14168082Y-7468386D01*
X14172287Y-7473199D01*
X14176379Y-7478107D01*
X14180354Y-7483108D01*
X14184205Y-7488203D01*
X14187927Y-7493390D01*
X14191513Y-7498670D01*
X14194958Y-7504040D01*
X14198255Y-7509502D01*
X14201400Y-7515054D01*
X14204386Y-7520695D01*
X14207208Y-7526426D01*
X14209630Y-7531735D01*
X14211910Y-7537099D01*
X14214051Y-7542514D01*
X14216058Y-7547977D01*
X14217933Y-7553485D01*
X14219682Y-7559034D01*
X14221307Y-7564620D01*
X14222814Y-7570241D01*
X14225486Y-7581572D01*
X14227730Y-7592999D01*
X14229576Y-7604495D01*
X14231057Y-7616033D01*
X14236076Y-7728016D01*
X14237357Y-7741753D01*
X14239100Y-7755391D01*
X14241400Y-7768916D01*
X14244352Y-7782316D01*
X14248051Y-7795579D01*
X14252592Y-7808692D01*
X14258071Y-7821642D01*
X14264582Y-7834418D01*
X14271856Y-7851785D01*
X14280358Y-7871281D01*
X14289435Y-7891491D01*
X14298435Y-7911002D01*
X14306704Y-7928401D01*
X14313592Y-7942274D01*
X14318445Y-7951208D01*
X14319905Y-7953382D01*
X14320358Y-7953818D01*
X14320612Y-7953790D01*
X14324949Y-7946679D01*
X14327114Y-7943118D01*
X14329240Y-7939534D01*
X14331298Y-7935914D01*
X14333258Y-7932243D01*
X14334193Y-7930385D01*
X14335093Y-7928509D01*
X14335954Y-7926613D01*
X14336774Y-7924696D01*
X14341427Y-7824269D01*
X14344568Y-7739913D01*
X14346534Y-7669887D01*
X14347666Y-7612448D01*
X14348781Y-7528361D01*
X14349441Y-7498230D01*
X14350623Y-7473716D01*
X14350877Y-7469405D01*
X14351224Y-7465097D01*
X14351666Y-7460797D01*
X14352206Y-7456508D01*
X14352846Y-7452233D01*
X14353589Y-7447976D01*
X14354437Y-7443741D01*
X14355392Y-7439532D01*
X14356457Y-7435352D01*
X14357633Y-7431204D01*
X14358925Y-7427093D01*
X14360333Y-7423021D01*
X14361861Y-7418994D01*
X14363511Y-7415013D01*
X14365285Y-7411084D01*
X14367185Y-7407208D01*
X14370602Y-7400839D01*
X14374347Y-7394663D01*
X14378406Y-7388692D01*
X14382764Y-7382936D01*
X14387408Y-7377406D01*
X14392323Y-7372113D01*
X14397495Y-7367068D01*
X14402910Y-7362282D01*
X14408553Y-7357765D01*
X14414411Y-7353529D01*
X14420469Y-7349584D01*
X14426713Y-7345940D01*
X14433129Y-7342610D01*
X14439702Y-7339603D01*
X14446419Y-7336930D01*
X14453265Y-7334603D01*
X14461272Y-7332280D01*
X14469400Y-7330462D01*
X14477622Y-7329146D01*
X14485908Y-7328326D01*
X14494231Y-7327999D01*
X14502561Y-7328159D01*
X14510871Y-7328803D01*
X14519130Y-7329926D01*
X14527311Y-7331524D01*
X14535385Y-7333593D01*
X14543323Y-7336127D01*
X14551097Y-7339123D01*
X14558678Y-7342576D01*
X14566037Y-7346482D01*
X14573146Y-7350837D01*
X14579976Y-7355635D01*
X14585269Y-7359719D01*
X14590359Y-7364056D01*
X14595236Y-7368634D01*
X14599893Y-7373439D01*
X14604319Y-7378462D01*
X14608507Y-7383688D01*
X14612446Y-7389106D01*
X14616130Y-7394703D01*
X14619548Y-7400467D01*
X14622692Y-7406386D01*
X14625554Y-7412448D01*
X14628123Y-7418640D01*
X14630392Y-7424950D01*
X14632352Y-7431367D01*
X14633994Y-7437876D01*
X14635308Y-7444467D01*
X14636017Y-7451108D01*
X14636605Y-7457775D01*
X14637097Y-7464461D01*
X14637514Y-7471164D01*
X14638887Y-7498056D01*
X14641283Y-7609345D01*
X14642950Y-7721201D01*
X14645605Y-7830935D01*
X14647840Y-7884166D01*
X14650966Y-7935858D01*
X14662434Y-7959190D01*
X14673547Y-7982692D01*
X14694966Y-8030084D01*
X14736349Y-8125511D01*
X14738243Y-8129903D01*
X14740075Y-8134319D01*
X14741840Y-8138761D01*
X14743533Y-8143229D01*
X14745150Y-8147724D01*
X14746684Y-8152246D01*
X14748132Y-8156796D01*
X14749487Y-8161374D01*
X14750507Y-8156344D01*
X14751638Y-8151331D01*
X14752878Y-8146341D01*
X14754224Y-8141375D01*
X14755675Y-8136439D01*
X14757229Y-8131536D01*
X14758883Y-8126669D01*
X14760637Y-8121842D01*
X14759883Y-8092126D01*
X14759702Y-8062362D01*
X14759988Y-8032559D01*
X14760637Y-8002728D01*
X14760616Y-7997956D01*
X14760721Y-7993180D01*
X14760953Y-7988404D01*
X14761314Y-7983632D01*
X14761806Y-7978869D01*
X14762430Y-7974119D01*
X14763189Y-7969388D01*
X14764083Y-7964681D01*
X14765115Y-7960001D01*
X14766286Y-7955354D01*
X14767599Y-7950744D01*
X14769055Y-7946176D01*
X14770656Y-7941654D01*
X14772404Y-7937184D01*
X14774300Y-7932770D01*
X14776346Y-7928417D01*
X14776651Y-7921381D01*
X14777134Y-7914346D01*
X14777790Y-7907316D01*
X14778610Y-7900298D01*
X14779590Y-7893298D01*
X14780721Y-7886319D01*
X14781998Y-7879369D01*
X14783413Y-7872451D01*
X14790822Y-7848063D01*
X14806612Y-7801550D01*
X14852043Y-7669751D01*
X14876037Y-7598264D01*
X14897120Y-7532254D01*
X14912468Y-7478619D01*
X14917109Y-7458599D01*
X14919257Y-7444260D01*
X14922544Y-7280472D01*
X14926324Y-7116684D01*
X14926387Y-7111735D01*
X14926580Y-7106809D01*
X14926910Y-7101904D01*
X14927384Y-7097021D01*
X14928007Y-7092156D01*
X14928788Y-7087310D01*
X14929732Y-7082481D01*
X14930846Y-7077668D01*
X14931779Y-7074045D01*
X14932805Y-7070445D01*
X14933921Y-7066872D01*
X14935129Y-7063327D01*
X14936426Y-7059813D01*
X14937813Y-7056333D01*
X14939287Y-7052889D01*
X14940849Y-7049485D01*
X14942496Y-7046122D01*
X14944230Y-7042804D01*
X14946047Y-7039533D01*
X14947949Y-7036311D01*
X14949933Y-7033142D01*
X14951999Y-7030028D01*
X14954147Y-7026972D01*
X14956374Y-7023976D01*
X14960835Y-7018415D01*
X14965580Y-7013096D01*
X14970592Y-7008028D01*
X14975857Y-7003221D01*
X14981358Y-6998685D01*
X14987079Y-6994429D01*
X14993006Y-6990465D01*
X14999122Y-6986801D01*
X15005411Y-6983448D01*
X15011859Y-6980416D01*
X15018449Y-6977714D01*
X15025165Y-6975353D01*
X15031993Y-6973341D01*
X15038915Y-6971690D01*
X15045917Y-6970410D01*
X15052983Y-6969509D01*
X15057472Y-6969126D01*
X15061970Y-6968886D01*
X15066473Y-6968787D01*
X15070977Y-6968827D01*
X15075478Y-6969003D01*
X15079972Y-6969314D01*
X15084456Y-6969757D01*
X15088926Y-6970329D01*
X15093377Y-6971030D01*
X15097807Y-6971856D01*
X15102211Y-6972806D01*
X15106586Y-6973877D01*
X15110928Y-6975066D01*
X15115232Y-6976373D01*
X15119496Y-6977794D01*
X15123715Y-6979328D01*
X15126737Y-6980541D01*
X15129734Y-6981817D01*
X15132707Y-6983155D01*
X15135652Y-6984553D01*
X15138568Y-6986013D01*
X15141454Y-6987532D01*
X15144308Y-6989111D01*
X15147128Y-6990748D01*
X15149913Y-6992444D01*
X15152660Y-6994197D01*
X15155369Y-6996007D01*
X15158037Y-6997873D01*
X15160664Y-6999795D01*
X15163246Y-7001772D01*
X15165783Y-7003804D01*
X15168273Y-7005889D01*
X15173443Y-7010640D01*
X15178352Y-7015656D01*
X15182992Y-7020922D01*
X15187355Y-7026421D01*
X15191432Y-7032137D01*
X15195216Y-7038053D01*
X15198698Y-7044153D01*
X15201871Y-7050421D01*
X15204726Y-7056841D01*
X15207255Y-7063395D01*
X15209450Y-7070069D01*
X15211303Y-7076844D01*
X15212806Y-7083706D01*
X15213950Y-7090637D01*
X15214728Y-7097622D01*
X15215131Y-7104643D01*
X15216175Y-7171017D01*
X15216755Y-7228215D01*
X15217250Y-7321406D01*
X15218074Y-7396856D01*
X15219065Y-7431878D01*
X15220686Y-7467205D01*
X15231247Y-7508610D01*
X15243041Y-7549650D01*
X15255856Y-7590382D01*
X15269482Y-7630864D01*
X15298316Y-7711303D01*
X15327850Y-7791423D01*
X15331305Y-7796277D01*
X15334607Y-7801230D01*
X15337743Y-7806282D01*
X15340700Y-7811434D01*
X15343463Y-7816689D01*
X15344768Y-7819354D01*
X15346019Y-7822046D01*
X15347216Y-7824763D01*
X15348356Y-7827507D01*
X15349437Y-7830277D01*
X15350459Y-7833074D01*
X15351680Y-7836674D01*
X15352794Y-7840304D01*
X15353807Y-7843960D01*
X15354726Y-7847642D01*
X15355556Y-7851345D01*
X15356304Y-7855069D01*
X15357575Y-7862568D01*
X15358590Y-7870120D01*
X15359395Y-7877708D01*
X15360041Y-7885312D01*
X15360574Y-7892915D01*
X15362027Y-7895149D01*
X15363434Y-7897412D01*
X15366115Y-7902021D01*
X15368615Y-7906732D01*
X15370937Y-7911538D01*
X15373080Y-7916428D01*
X15375045Y-7921395D01*
X15376832Y-7926427D01*
X15378441Y-7931517D01*
X15379450Y-7935189D01*
X15380338Y-7938877D01*
X15381113Y-7942581D01*
X15381785Y-7946298D01*
X15382363Y-7950029D01*
X15382857Y-7953771D01*
X15383630Y-7961283D01*
X15384178Y-7968824D01*
X15384576Y-7976384D01*
X15385224Y-7991514D01*
X15386169Y-8063552D01*
X15386409Y-8135639D01*
X15386180Y-8279920D01*
X15390786Y-8281746D01*
X15395347Y-8283676D01*
X15399861Y-8285707D01*
X15404329Y-8287836D01*
X15408749Y-8290061D01*
X15413121Y-8292379D01*
X15417445Y-8294788D01*
X15421719Y-8297283D01*
X15425943Y-8299864D01*
X15430117Y-8302526D01*
X15434240Y-8305268D01*
X15438312Y-8308087D01*
X15442331Y-8310979D01*
X15446297Y-8313943D01*
X15454070Y-8320073D01*
X15461124Y-8326080D01*
X15468048Y-8332254D01*
X15474809Y-8338609D01*
X15481373Y-8345161D01*
X15484570Y-8348517D01*
X15487706Y-8351927D01*
X15490776Y-8355395D01*
X15493775Y-8358922D01*
X15496699Y-8362510D01*
X15499545Y-8366161D01*
X15502308Y-8369878D01*
X15504984Y-8373661D01*
X15510596Y-8374336D01*
X15516179Y-8375230D01*
X15521725Y-8376336D01*
X15527226Y-8377647D01*
X15532674Y-8379153D01*
X15538062Y-8380848D01*
X15543381Y-8382724D01*
X15548625Y-8384772D01*
X15548690Y-8384777D01*
X15548762Y-8384792D01*
X15548839Y-8384816D01*
X15548921Y-8384848D01*
X15549098Y-8384931D01*
X15549286Y-8385033D01*
X15549671Y-8385262D01*
X15549856Y-8385372D01*
X15550028Y-8385469D01*
X15550182Y-8385544D01*
X15550250Y-8385571D01*
X15550311Y-8385589D01*
X15550365Y-8385598D01*
X15550410Y-8385596D01*
X15550446Y-8385582D01*
X15550461Y-8385571D01*
X15550472Y-8385556D01*
X15550482Y-8385538D01*
X15550488Y-8385517D01*
X15550492Y-8385462D01*
X15550485Y-8385392D01*
X15550464Y-8385306D01*
X15550430Y-8385201D01*
X15550382Y-8385078D01*
X15550319Y-8384935D01*
X15550240Y-8384772D01*
X15554203Y-7944107D01*
X15558288Y-7723816D01*
X15565626Y-7503637D01*
X15565903Y-7497565D01*
X15566418Y-7491507D01*
X15567168Y-7485471D01*
X15568152Y-7479469D01*
X15569369Y-7473509D01*
X15570815Y-7467602D01*
X15572490Y-7461757D01*
X15574392Y-7455985D01*
X15576518Y-7450293D01*
X15578867Y-7444694D01*
X15581437Y-7439195D01*
X15584226Y-7433808D01*
X15587233Y-7428542D01*
X15590454Y-7423406D01*
X15593890Y-7418410D01*
X15597536Y-7413565D01*
X15598218Y-7384296D01*
X15598481Y-7376987D01*
X15598830Y-7369679D01*
X15599291Y-7362373D01*
X15599888Y-7355067D01*
X15600443Y-7349059D01*
X15601253Y-7343076D01*
X15602314Y-7337128D01*
X15603625Y-7331226D01*
X15605180Y-7325379D01*
X15606978Y-7319599D01*
X15609014Y-7313896D01*
X15611286Y-7308280D01*
X15613790Y-7302762D01*
X15616523Y-7297351D01*
X15619481Y-7292059D01*
X15622662Y-7286895D01*
X15626063Y-7281870D01*
X15629679Y-7276995D01*
X15633508Y-7272279D01*
X15637547Y-7267734D01*
X15638684Y-7265873D01*
X15641216Y-7161487D01*
X15643044Y-7109313D01*
X15644357Y-7083265D01*
X15646035Y-7057256D01*
X15647476Y-7049935D01*
X15649318Y-7042711D01*
X15651548Y-7035601D01*
X15654153Y-7028620D01*
X15657121Y-7021783D01*
X15660440Y-7015108D01*
X15664098Y-7008610D01*
X15668083Y-7002304D01*
X15672382Y-6996208D01*
X15676984Y-6990336D01*
X15681875Y-6984705D01*
X15687044Y-6979332D01*
X15692479Y-6974231D01*
X15698168Y-6969418D01*
X15704097Y-6964911D01*
X15710256Y-6960724D01*
X15714610Y-6958007D01*
X15719054Y-6955456D01*
X15723583Y-6953068D01*
X15728190Y-6950842D01*
X15732870Y-6948776D01*
X15737616Y-6946869D01*
X15742422Y-6945118D01*
X15747284Y-6943522D01*
X15752193Y-6942080D01*
X15757146Y-6940789D01*
X15762135Y-6939648D01*
X15767154Y-6938654D01*
X15772199Y-6937807D01*
X15777262Y-6937105D01*
X15782338Y-6936545D01*
X15787421Y-6936126D01*
X15817889Y-6934700D01*
X15848366Y-6933478D01*
X15878850Y-6932623D01*
X15909339Y-6932302D01*
X15911542Y-6730628D01*
X15913459Y-6629828D01*
X15916961Y-6529071D01*
X15917394Y-6522756D01*
X15918083Y-6516455D01*
X15918524Y-6513313D01*
X15919031Y-6510181D01*
X15919604Y-6507059D01*
X15920243Y-6503950D01*
X15920949Y-6500854D01*
X15921721Y-6497774D01*
X15922561Y-6494711D01*
X15923469Y-6491668D01*
X15924445Y-6488645D01*
X15925490Y-6485645D01*
X15926604Y-6482669D01*
X15927788Y-6479720D01*
X15930402Y-6473746D01*
X15933292Y-6467904D01*
X15936449Y-6462204D01*
X15939864Y-6456654D01*
X15943528Y-6451265D01*
X15947431Y-6446046D01*
X15951563Y-6441007D01*
X15955917Y-6436157D01*
X15960483Y-6431505D01*
X15965251Y-6427061D01*
X15970213Y-6422836D01*
X15975359Y-6418837D01*
X15980680Y-6415075D01*
X15986167Y-6411560D01*
X15991811Y-6408300D01*
X15997602Y-6405306D01*
X16003748Y-6402464D01*
X16010018Y-6399929D01*
X16016400Y-6397700D01*
X16022878Y-6395777D01*
X16029439Y-6394162D01*
X16036068Y-6392855D01*
X16042750Y-6391856D01*
X16049471Y-6391166D01*
X16056217Y-6390785D01*
X16062973Y-6390715D01*
X16069725Y-6390955D01*
X16076458Y-6391506D01*
X16083159Y-6392368D01*
X16089812Y-6393543D01*
X16096404Y-6395030D01*
X16102919Y-6396831D01*
X16106531Y-6397948D01*
X16110109Y-6399166D01*
X16113651Y-6400484D01*
X16117154Y-6401901D01*
X16120616Y-6403414D01*
X16124035Y-6405022D01*
X16127409Y-6406723D01*
X16130735Y-6408516D01*
X16134013Y-6410400D01*
X16137238Y-6412372D01*
X16140410Y-6414431D01*
X16143525Y-6416575D01*
X16146583Y-6418804D01*
X16149580Y-6421114D01*
X16152514Y-6423506D01*
X16155384Y-6425976D01*
X16160333Y-6430543D01*
X16165063Y-6435341D01*
X16169568Y-6440358D01*
X16173836Y-6445579D01*
X16177862Y-6450995D01*
X16181635Y-6456590D01*
X16185148Y-6462354D01*
X16188392Y-6468274D01*
X16191358Y-6474336D01*
X16194039Y-6480528D01*
X16196426Y-6486839D01*
X16198509Y-6493254D01*
X16200282Y-6499762D01*
X16201735Y-6506351D01*
X16202860Y-6513007D01*
X16203649Y-6519717D01*
X16205907Y-6556962D01*
X16207640Y-6594196D01*
X16208934Y-6631411D01*
X16209876Y-6668597D01*
X16212786Y-6664770D01*
X16215823Y-6661042D01*
X16218986Y-6657419D01*
X16222268Y-6653903D01*
X16225667Y-6650498D01*
X16229179Y-6647210D01*
X16232800Y-6644041D01*
X16236525Y-6640996D01*
X16240351Y-6638078D01*
X16244274Y-6635293D01*
X16248290Y-6632643D01*
X16252395Y-6630133D01*
X16256586Y-6627767D01*
X16260857Y-6625549D01*
X16265205Y-6623482D01*
X16269627Y-6621572D01*
X16270107Y-6582530D01*
X16270486Y-6563000D01*
X16271061Y-6543489D01*
X16271197Y-6538653D01*
X16271461Y-6533820D01*
X16271854Y-6528994D01*
X16272379Y-6524179D01*
X16273037Y-6519380D01*
X16273831Y-6514601D01*
X16274763Y-6509848D01*
X16275835Y-6505125D01*
X16277048Y-6500437D01*
X16278405Y-6495787D01*
X16279908Y-6491182D01*
X16281558Y-6486624D01*
X16283359Y-6482120D01*
X16285311Y-6477673D01*
X16287416Y-6473289D01*
X16289678Y-6468971D01*
X16293631Y-6462261D01*
X16297959Y-6455799D01*
X16302643Y-6449597D01*
X16307665Y-6443667D01*
X16313004Y-6438019D01*
X16318642Y-6432664D01*
X16324560Y-6427615D01*
X16330739Y-6422882D01*
X16337161Y-6418477D01*
X16343805Y-6414411D01*
X16350654Y-6410694D01*
X16357688Y-6407340D01*
X16364888Y-6404358D01*
X16372235Y-6401760D01*
X16379710Y-6399557D01*
X16387294Y-6397761D01*
X16392767Y-6396722D01*
X16398274Y-6395908D01*
X16403807Y-6395319D01*
X16409359Y-6394953D01*
X16414920Y-6394807D01*
X16420482Y-6394881D01*
X16426037Y-6395173D01*
X16431578Y-6395681D01*
X16437095Y-6396403D01*
X16442581Y-6397338D01*
X16448026Y-6398484D01*
X16453424Y-6399839D01*
X16458765Y-6401402D01*
X16464042Y-6403172D01*
X16469246Y-6405145D01*
X16474369Y-6407321D01*
X16478923Y-6409457D01*
X16483398Y-6411754D01*
X16487787Y-6414208D01*
X16492085Y-6416817D01*
X16496289Y-6419575D01*
X16500391Y-6422480D01*
X16504389Y-6425528D01*
X16508275Y-6428715D01*
X16512046Y-6432038D01*
X16515697Y-6435493D01*
X16519221Y-6439076D01*
X16522615Y-6442784D01*
X16525872Y-6446613D01*
X16528989Y-6450560D01*
X16531960Y-6454620D01*
X16534779Y-6458791D01*
X16537251Y-6462716D01*
X16539582Y-6466716D01*
X16541772Y-6470787D01*
X16543823Y-6474924D01*
X16545737Y-6479124D01*
X16547513Y-6483382D01*
X16549155Y-6487692D01*
X16550663Y-6492051D01*
X16552038Y-6496455D01*
X16553282Y-6500898D01*
X16554396Y-6505376D01*
X16555381Y-6509885D01*
X16556239Y-6514421D01*
X16556970Y-6518978D01*
X16557576Y-6523553D01*
X16558059Y-6528141D01*
X16559008Y-6551577D01*
X16559592Y-6575056D01*
X16560630Y-6622088D01*
X16564487Y-6623889D01*
X16568292Y-6625800D01*
X16572039Y-6627821D01*
X16575726Y-6629950D01*
X16579349Y-6632187D01*
X16582905Y-6634529D01*
X16586390Y-6636974D01*
X16589801Y-6639523D01*
X16593135Y-6642172D01*
X16596388Y-6644921D01*
X16599556Y-6647769D01*
X16602637Y-6650713D01*
X16605626Y-6653753D01*
X16608521Y-6656886D01*
X16611317Y-6660112D01*
X16614012Y-6663430D01*
X16616924Y-6667195D01*
X16619687Y-6671064D01*
X16622302Y-6675031D01*
X16624770Y-6679089D01*
X16627091Y-6683233D01*
X16629268Y-6687456D01*
X16631300Y-6691752D01*
X16633189Y-6696115D01*
X16634935Y-6700538D01*
X16636540Y-6705016D01*
X16638004Y-6709542D01*
X16639328Y-6714110D01*
X16640514Y-6718713D01*
X16641562Y-6723346D01*
X16642473Y-6728003D01*
X16643248Y-6732676D01*
X16644266Y-6742767D01*
X16645092Y-6752686D01*
X16645751Y-6762367D01*
X16646265Y-6771745D01*
X16646958Y-6789324D01*
X16647359Y-6804894D01*
X16647660Y-6817925D01*
X16648051Y-6827888D01*
X16648340Y-6831554D01*
X16648722Y-6834254D01*
X16648955Y-6835222D01*
X16649221Y-6835923D01*
X16649523Y-6836350D01*
X16649862Y-6836494D01*
X16654780Y-6828869D01*
X16660198Y-6821125D01*
X16666240Y-6813165D01*
X16669534Y-6809074D01*
X16673031Y-6804894D01*
X16676747Y-6800612D01*
X16680697Y-6796216D01*
X16689360Y-6787035D01*
X16699147Y-6777256D01*
X16710182Y-6766782D01*
X16716987Y-6760558D01*
X16723853Y-6754400D01*
X16737736Y-6742256D01*
X16751773Y-6730295D01*
X16765902Y-6718465D01*
X16767951Y-6593169D01*
X16768527Y-6530504D01*
X16768731Y-6467834D01*
X16768850Y-6432158D01*
X16769134Y-6414342D01*
X16769687Y-6396521D01*
X16769981Y-6390527D01*
X16770364Y-6384555D01*
X16771236Y-6372653D01*
X16771647Y-6366708D01*
X16771989Y-6360760D01*
X16772223Y-6354800D01*
X16772309Y-6348823D01*
X16772476Y-6308206D01*
X16773165Y-6267588D01*
X16774228Y-6226970D01*
X16775513Y-6186353D01*
X16775803Y-6178400D01*
X16776322Y-6170437D01*
X16777066Y-6162476D01*
X16778035Y-6154527D01*
X16779224Y-6146599D01*
X16780631Y-6138703D01*
X16782255Y-6130850D01*
X16784092Y-6123049D01*
X16784066Y-6122791D01*
X16787503Y-6110537D01*
X16792217Y-6096077D01*
X16798359Y-6079869D01*
X16806079Y-6062373D01*
X16815530Y-6044048D01*
X16826861Y-6025353D01*
X16840225Y-6006747D01*
X16855770Y-5988690D01*
X16864409Y-5980011D01*
X16873650Y-5971641D01*
X16883512Y-5963638D01*
X16894014Y-5956059D01*
X16905175Y-5948961D01*
X16917013Y-5942402D01*
X16929549Y-5936440D01*
X16942799Y-5931131D01*
X16956784Y-5926533D01*
X16971523Y-5922704D01*
X16987033Y-5919701D01*
X17003334Y-5917581D01*
X17020445Y-5916402D01*
X17038385Y-5916221D01*
X17057172Y-5917095D01*
D11*
X11314875Y-14597280D02*
X11314875Y-14397280D01*
X11314875Y-14397280D02*
X11362494Y-14397280D01*
X11362494Y-14397280D02*
X11391066Y-14406803D01*
X11391066Y-14406803D02*
X11410114Y-14425851D01*
X11410114Y-14425851D02*
X11419637Y-14444899D01*
X11419637Y-14444899D02*
X11429161Y-14482994D01*
X11429161Y-14482994D02*
X11429161Y-14511565D01*
X11429161Y-14511565D02*
X11419637Y-14549660D01*
X11419637Y-14549660D02*
X11410114Y-14568708D01*
X11410114Y-14568708D02*
X11391066Y-14587756D01*
X11391066Y-14587756D02*
X11362494Y-14597280D01*
X11362494Y-14597280D02*
X11314875Y-14597280D01*
X11514875Y-14597280D02*
X11514875Y-14463946D01*
X11514875Y-14502041D02*
X11524399Y-14482994D01*
X11524399Y-14482994D02*
X11533923Y-14473470D01*
X11533923Y-14473470D02*
X11552971Y-14463946D01*
X11552971Y-14463946D02*
X11572018Y-14463946D01*
X11638685Y-14597280D02*
X11638685Y-14463946D01*
X11638685Y-14397280D02*
X11629161Y-14406803D01*
X11629161Y-14406803D02*
X11638685Y-14416327D01*
X11638685Y-14416327D02*
X11648209Y-14406803D01*
X11648209Y-14406803D02*
X11638685Y-14397280D01*
X11638685Y-14397280D02*
X11638685Y-14416327D01*
X11762494Y-14597280D02*
X11743447Y-14587756D01*
X11743447Y-14587756D02*
X11733923Y-14568708D01*
X11733923Y-14568708D02*
X11733923Y-14397280D01*
X11867256Y-14597280D02*
X11848209Y-14587756D01*
X11848209Y-14587756D02*
X11838685Y-14568708D01*
X11838685Y-14568708D02*
X11838685Y-14397280D01*
X12095828Y-14597280D02*
X12095828Y-14397280D01*
X12095828Y-14397280D02*
X12162495Y-14540137D01*
X12162495Y-14540137D02*
X12229161Y-14397280D01*
X12229161Y-14397280D02*
X12229161Y-14597280D01*
X12410114Y-14597280D02*
X12410114Y-14492518D01*
X12410114Y-14492518D02*
X12400590Y-14473470D01*
X12400590Y-14473470D02*
X12381542Y-14463946D01*
X12381542Y-14463946D02*
X12343447Y-14463946D01*
X12343447Y-14463946D02*
X12324399Y-14473470D01*
X12410114Y-14587756D02*
X12391066Y-14597280D01*
X12391066Y-14597280D02*
X12343447Y-14597280D01*
X12343447Y-14597280D02*
X12324399Y-14587756D01*
X12324399Y-14587756D02*
X12314875Y-14568708D01*
X12314875Y-14568708D02*
X12314875Y-14549660D01*
X12314875Y-14549660D02*
X12324399Y-14530613D01*
X12324399Y-14530613D02*
X12343447Y-14521089D01*
X12343447Y-14521089D02*
X12391066Y-14521089D01*
X12391066Y-14521089D02*
X12410114Y-14511565D01*
X12505352Y-14463946D02*
X12505352Y-14663946D01*
X12505352Y-14473470D02*
X12524399Y-14463946D01*
X12524399Y-14463946D02*
X12562495Y-14463946D01*
X12562495Y-14463946D02*
X12581542Y-14473470D01*
X12581542Y-14473470D02*
X12591066Y-14482994D01*
X12591066Y-14482994D02*
X12600590Y-14502041D01*
X12600590Y-14502041D02*
X12600590Y-14559184D01*
X12600590Y-14559184D02*
X12591066Y-14578232D01*
X12591066Y-14578232D02*
X12581542Y-14587756D01*
X12581542Y-14587756D02*
X12562495Y-14597280D01*
X12562495Y-14597280D02*
X12524399Y-14597280D01*
X12524399Y-14597280D02*
X12505352Y-14587756D01*
X12686304Y-14578232D02*
X12695828Y-14587756D01*
X12695828Y-14587756D02*
X12686304Y-14597280D01*
X12686304Y-14597280D02*
X12676780Y-14587756D01*
X12676780Y-14587756D02*
X12686304Y-14578232D01*
X12686304Y-14578232D02*
X12686304Y-14597280D01*
X12686304Y-14473470D02*
X12695828Y-14482994D01*
X12695828Y-14482994D02*
X12686304Y-14492518D01*
X12686304Y-14492518D02*
X12676780Y-14482994D01*
X12676780Y-14482994D02*
X12686304Y-14473470D01*
X12686304Y-14473470D02*
X12686304Y-14492518D01*
M02*
