G04 #@! TF.GenerationSoftware,KiCad,Pcbnew,9.0.3*
G04 #@! TF.CreationDate,2025-08-17T22:36:11+02:00*
G04 #@! TF.ProjectId,CH32PBG,43483332-5042-4472-9e6b-696361645f70,rev?*
G04 #@! TF.SameCoordinates,Original*
G04 #@! TF.FileFunction,Soldermask,Bot*
G04 #@! TF.FilePolarity,Negative*
%FSLAX46Y46*%
G04 Gerber Fmt 4.6, Leading zero omitted, Abs format (unit mm)*
G04 Created by KiCad (PCBNEW 9.0.3) date 2025-08-17 22:36:11*
%MOMM*%
%LPD*%
G01*
G04 APERTURE LIST*
G04 Aperture macros list*
%AMRoundRect*
0 Rectangle with rounded corners*
0 $1 Rounding radius*
0 $2 $3 $4 $5 $6 $7 $8 $9 X,Y pos of 4 corners*
0 Add a 4 corners polygon primitive as box body*
4,1,4,$2,$3,$4,$5,$6,$7,$8,$9,$2,$3,0*
0 Add four circle primitives for the rounded corners*
1,1,$1+$1,$2,$3*
1,1,$1+$1,$4,$5*
1,1,$1+$1,$6,$7*
1,1,$1+$1,$8,$9*
0 Add four rect primitives between the rounded corners*
20,1,$1+$1,$2,$3,$4,$5,0*
20,1,$1+$1,$4,$5,$6,$7,0*
20,1,$1+$1,$6,$7,$8,$9,0*
20,1,$1+$1,$8,$9,$2,$3,0*%
%AMRotRect*
0 Rectangle, with rotation*
0 The origin of the aperture is its center*
0 $1 length*
0 $2 width*
0 $3 Rotation angle, in degrees counterclockwise*
0 Add horizontal line*
21,1,$1,$2,0,0,$3*%
%AMOutline5P*
0 Free polygon, 5 corners , with rotation*
0 The origin of the aperture is its center*
0 number of corners: always 5*
0 $1 to $10 corner X, Y*
0 $11 Rotation angle, in degrees counterclockwise*
0 create outline with 5 corners*
4,1,5,$1,$2,$3,$4,$5,$6,$7,$8,$9,$10,$1,$2,$11*%
%AMOutline6P*
0 Free polygon, 6 corners , with rotation*
0 The origin of the aperture is its center*
0 number of corners: always 6*
0 $1 to $12 corner X, Y*
0 $13 Rotation angle, in degrees counterclockwise*
0 create outline with 6 corners*
4,1,6,$1,$2,$3,$4,$5,$6,$7,$8,$9,$10,$11,$12,$1,$2,$13*%
%AMOutline7P*
0 Free polygon, 7 corners , with rotation*
0 The origin of the aperture is its center*
0 number of corners: always 7*
0 $1 to $14 corner X, Y*
0 $15 Rotation angle, in degrees counterclockwise*
0 create outline with 7 corners*
4,1,7,$1,$2,$3,$4,$5,$6,$7,$8,$9,$10,$11,$12,$13,$14,$1,$2,$15*%
%AMOutline8P*
0 Free polygon, 8 corners , with rotation*
0 The origin of the aperture is its center*
0 number of corners: always 8*
0 $1 to $16 corner X, Y*
0 $17 Rotation angle, in degrees counterclockwise*
0 create outline with 8 corners*
4,1,8,$1,$2,$3,$4,$5,$6,$7,$8,$9,$10,$11,$12,$13,$14,$15,$16,$1,$2,$17*%
G04 Aperture macros list end*
%ADD10C,0.000000*%
%ADD11C,0.100000*%
%ADD12R,2.100000X1.700000*%
%ADD13Outline5P,-1.050000X0.850000X1.050000X0.850000X1.050000X-0.850000X-0.710000X-0.850000X-1.050000X-0.510000X180.000000*%
%ADD14RoundRect,0.250000X0.450000X-0.350000X0.450000X0.350000X-0.450000X0.350000X-0.450000X-0.350000X0*%
%ADD15R,8.000000X3.000000*%
%ADD16RoundRect,0.500000X3.500000X1.000000X-3.500000X1.000000X-3.500000X-1.000000X3.500000X-1.000000X0*%
%ADD17RoundRect,0.291666X-0.648182X0.070711X0.070711X-0.648182X0.648182X-0.070711X-0.070711X0.648182X0*%
%ADD18RotRect,2.100000X1.700000X178.000000*%
%ADD19Outline5P,-1.050000X0.850000X1.050000X0.850000X1.050000X-0.850000X-0.710000X-0.850000X-1.050000X-0.510000X178.000000*%
%ADD20RotRect,2.100000X1.700000X182.000000*%
%ADD21Outline5P,-1.050000X0.850000X1.050000X0.850000X1.050000X-0.850000X-0.710000X-0.850000X-1.050000X-0.510000X182.000000*%
%ADD22RotRect,2.100000X1.700000X185.000000*%
%ADD23Outline5P,-1.050000X0.850000X1.050000X0.850000X1.050000X-0.850000X-0.710000X-0.850000X-1.050000X-0.510000X185.000000*%
%ADD24RoundRect,0.250000X-2.750000X-0.950000X2.750000X-0.950000X2.750000X0.950000X-2.750000X0.950000X0*%
%ADD25Outline5P,-3.000000X1.200000X3.000000X1.200000X3.000000X-1.200000X-1.800000X-1.200000X-3.000000X0.000000X0.000000*%
%ADD26RotRect,2.100000X1.700000X184.000000*%
%ADD27Outline5P,-1.050000X0.850000X1.050000X0.850000X1.050000X-0.850000X-0.710000X-0.850000X-1.050000X-0.510000X184.000000*%
%ADD28R,1.789000X1.700000*%
%ADD29RoundRect,0.308511X-0.491489X-0.416489X0.491489X-0.416489X0.491489X0.416489X-0.491489X0.416489X0*%
%ADD30RotRect,2.100000X1.700000X183.000000*%
%ADD31Outline5P,-1.050000X0.850000X1.050000X0.850000X1.050000X-0.850000X-0.710000X-0.850000X-1.050000X-0.510000X183.000000*%
%ADD32RoundRect,0.102000X-2.000000X-0.762000X2.000000X-0.762000X2.000000X0.762000X-2.000000X0.762000X0*%
G04 APERTURE END LIST*
D10*
G36*
X141133078Y-104389852D02*
G01*
X141134040Y-104389934D01*
X141135006Y-104390072D01*
X141156849Y-104396778D01*
X141160949Y-104397876D01*
X141164960Y-104399120D01*
X141168868Y-104400486D01*
X141172661Y-104401951D01*
X141176325Y-104403491D01*
X141179846Y-104405083D01*
X141183210Y-104406703D01*
X141186404Y-104408328D01*
X141189414Y-104409934D01*
X141192227Y-104411498D01*
X141197206Y-104414407D01*
X141204198Y-104418684D01*
X141205593Y-104419377D01*
X141207359Y-104420027D01*
X141209462Y-104420652D01*
X141211871Y-104421269D01*
X141223910Y-104423982D01*
X141230914Y-104425722D01*
X141234548Y-104426747D01*
X141238228Y-104427896D01*
X141241919Y-104429188D01*
X141245590Y-104430638D01*
X141249209Y-104432264D01*
X141252741Y-104434082D01*
X141255889Y-104435873D01*
X141258436Y-104437434D01*
X141260468Y-104438809D01*
X141262071Y-104440041D01*
X141263328Y-104441175D01*
X141264326Y-104442253D01*
X141265150Y-104443319D01*
X141265885Y-104444416D01*
X141267427Y-104446877D01*
X141268405Y-104448329D01*
X141269635Y-104449986D01*
X141271201Y-104451891D01*
X141273190Y-104454088D01*
X141275685Y-104456621D01*
X141278773Y-104459533D01*
X141285484Y-104465507D01*
X141292580Y-104471600D01*
X141306663Y-104483409D01*
X141313017Y-104488758D01*
X141318492Y-104493493D01*
X141320801Y-104495572D01*
X141322772Y-104497428D01*
X141324365Y-104499039D01*
X141325541Y-104500381D01*
X141326184Y-104501537D01*
X141327190Y-104503057D01*
X141328537Y-104504904D01*
X141330203Y-104507040D01*
X141334402Y-104512035D01*
X141339610Y-104517746D01*
X141342537Y-104520777D01*
X141345649Y-104523875D01*
X141348925Y-104527005D01*
X141352342Y-104530129D01*
X141355878Y-104533209D01*
X141359511Y-104536209D01*
X141363218Y-104539091D01*
X141366978Y-104541820D01*
X141368807Y-104543064D01*
X141370521Y-104544166D01*
X141372129Y-104545134D01*
X141373638Y-104545978D01*
X141375055Y-104546707D01*
X141376389Y-104547331D01*
X141377647Y-104547858D01*
X141378837Y-104548298D01*
X141379966Y-104548662D01*
X141381041Y-104548957D01*
X141382071Y-104549193D01*
X141383063Y-104549381D01*
X141384964Y-104549645D01*
X141386803Y-104549824D01*
X141388643Y-104549995D01*
X141390544Y-104550230D01*
X141392567Y-104550606D01*
X141393643Y-104550870D01*
X141394773Y-104551197D01*
X141395963Y-104551597D01*
X141397222Y-104552079D01*
X141398557Y-104552653D01*
X141399976Y-104553327D01*
X141401486Y-104554111D01*
X141403095Y-104555014D01*
X141404811Y-104556047D01*
X141406640Y-104557218D01*
X141410179Y-104559556D01*
X141413293Y-104561690D01*
X141416045Y-104563660D01*
X141418497Y-104565511D01*
X141420712Y-104567285D01*
X141422754Y-104569024D01*
X141424686Y-104570771D01*
X141426570Y-104572569D01*
X141430447Y-104576489D01*
X141434888Y-104581126D01*
X141440399Y-104586821D01*
X141447481Y-104593916D01*
X141451268Y-104597711D01*
X141454635Y-104601217D01*
X141457642Y-104604471D01*
X141460351Y-104607512D01*
X141465119Y-104613106D01*
X141469429Y-104618306D01*
X141473770Y-104623417D01*
X141476105Y-104626034D01*
X141478631Y-104628744D01*
X141481410Y-104631585D01*
X141484503Y-104634594D01*
X141487970Y-104637811D01*
X141491874Y-104641273D01*
X141493914Y-104642990D01*
X141495894Y-104644552D01*
X141497815Y-104645969D01*
X141499679Y-104647252D01*
X141501488Y-104648411D01*
X141503243Y-104649456D01*
X141504947Y-104650398D01*
X141506600Y-104651247D01*
X141508204Y-104652014D01*
X141509762Y-104652708D01*
X141512745Y-104653924D01*
X141518225Y-104655950D01*
X141520750Y-104656927D01*
X141523149Y-104657992D01*
X141524306Y-104658583D01*
X141525437Y-104659227D01*
X141526544Y-104659935D01*
X141527628Y-104660716D01*
X141528691Y-104661582D01*
X141529734Y-104662543D01*
X141530760Y-104663609D01*
X141531770Y-104664791D01*
X141532766Y-104666098D01*
X141533749Y-104667542D01*
X141534722Y-104669133D01*
X141535686Y-104670882D01*
X141536585Y-104672701D01*
X141537370Y-104674501D01*
X141538045Y-104676282D01*
X141538616Y-104678043D01*
X141539088Y-104679785D01*
X141539466Y-104681508D01*
X141539756Y-104683211D01*
X141539961Y-104684895D01*
X141540089Y-104686560D01*
X141540143Y-104688205D01*
X141540130Y-104689831D01*
X141540053Y-104691437D01*
X141539732Y-104694591D01*
X141539223Y-104697666D01*
X141533312Y-104719425D01*
X141533007Y-104720672D01*
X141532550Y-104722009D01*
X141531953Y-104723429D01*
X141531224Y-104724924D01*
X141529409Y-104728106D01*
X141527182Y-104731495D01*
X141524618Y-104735028D01*
X141521795Y-104738643D01*
X141518788Y-104742277D01*
X141515673Y-104745868D01*
X141512527Y-104749354D01*
X141509426Y-104752673D01*
X141503663Y-104758561D01*
X141498992Y-104763034D01*
X141497257Y-104764585D01*
X141496024Y-104765595D01*
X141456363Y-104793419D01*
X141453245Y-104795548D01*
X141448168Y-104798780D01*
X141434749Y-104806989D01*
X141421333Y-104814922D01*
X141416260Y-104817807D01*
X141413148Y-104819451D01*
X141411849Y-104819940D01*
X141409872Y-104820520D01*
X141404250Y-104821856D01*
X141397014Y-104823267D01*
X141388897Y-104824564D01*
X141384736Y-104825110D01*
X141380629Y-104825556D01*
X141376668Y-104825878D01*
X141372944Y-104826053D01*
X141369548Y-104826056D01*
X141366572Y-104825863D01*
X141364108Y-104825451D01*
X141363096Y-104825156D01*
X141362247Y-104824796D01*
X141361714Y-104824264D01*
X141358301Y-104821386D01*
X141353267Y-104816967D01*
X141340779Y-104805777D01*
X141323247Y-104789931D01*
X141319602Y-104786546D01*
X141316230Y-104783215D01*
X141313079Y-104779923D01*
X141310097Y-104776658D01*
X141298792Y-104763610D01*
X141295858Y-104760287D01*
X141292775Y-104756912D01*
X141289491Y-104753475D01*
X141285952Y-104749960D01*
X141282106Y-104746357D01*
X141277900Y-104742650D01*
X141273281Y-104738829D01*
X141268196Y-104734880D01*
X141262950Y-104731075D01*
X141257880Y-104727672D01*
X141252995Y-104724636D01*
X141248302Y-104721937D01*
X141243807Y-104719542D01*
X141239519Y-104717419D01*
X141235444Y-104715536D01*
X141231590Y-104713861D01*
X141218530Y-104708599D01*
X141215891Y-104707483D01*
X141213516Y-104706382D01*
X141211414Y-104705265D01*
X141209591Y-104704100D01*
X141205261Y-104701160D01*
X141199207Y-104697283D01*
X141191767Y-104692693D01*
X141183281Y-104687612D01*
X141174088Y-104682261D01*
X141164527Y-104676862D01*
X141154937Y-104671638D01*
X141145658Y-104666812D01*
X141144287Y-104666141D01*
X141142983Y-104665525D01*
X141141743Y-104664962D01*
X141140565Y-104664450D01*
X141139447Y-104663986D01*
X141138386Y-104663569D01*
X141137381Y-104663195D01*
X141136430Y-104662863D01*
X141135529Y-104662571D01*
X141134677Y-104662315D01*
X141133871Y-104662094D01*
X141133109Y-104661906D01*
X141132390Y-104661748D01*
X141131711Y-104661618D01*
X141131069Y-104661513D01*
X141130462Y-104661432D01*
X141129888Y-104661372D01*
X141129346Y-104661332D01*
X141128344Y-104661297D01*
X141127440Y-104661311D01*
X141126614Y-104661355D01*
X141125128Y-104661460D01*
X141124432Y-104661485D01*
X141123744Y-104661467D01*
X141123211Y-104661467D01*
X141122827Y-104661371D01*
X141122431Y-104661250D01*
X141122019Y-104661103D01*
X141121587Y-104660927D01*
X141121134Y-104660719D01*
X141120655Y-104660476D01*
X141120147Y-104660195D01*
X141119608Y-104659875D01*
X141119033Y-104659512D01*
X141118421Y-104659104D01*
X141117767Y-104658649D01*
X141117068Y-104658143D01*
X141115525Y-104656970D01*
X141113764Y-104655564D01*
X141110950Y-104653178D01*
X141108154Y-104650646D01*
X141105395Y-104647998D01*
X141102693Y-104645261D01*
X141100067Y-104642465D01*
X141097537Y-104639637D01*
X141095122Y-104636806D01*
X141092841Y-104634002D01*
X141090715Y-104631251D01*
X141088762Y-104628582D01*
X141087003Y-104626025D01*
X141085457Y-104623608D01*
X141084143Y-104621358D01*
X141083080Y-104619305D01*
X141082289Y-104617477D01*
X141081789Y-104615903D01*
X141081628Y-104615152D01*
X141081628Y-104614619D01*
X141081738Y-104613245D01*
X141082054Y-104611536D01*
X141082557Y-104609518D01*
X141083227Y-104607213D01*
X141084987Y-104601844D01*
X141087175Y-104595623D01*
X141092201Y-104581396D01*
X141094721Y-104573779D01*
X141097034Y-104566083D01*
X141098086Y-104562550D01*
X141099053Y-104559579D01*
X141099936Y-104557090D01*
X141100738Y-104555004D01*
X141103168Y-104549091D01*
X141103593Y-104547821D01*
X141103947Y-104546476D01*
X141104235Y-104544974D01*
X141104458Y-104543238D01*
X141104617Y-104541186D01*
X141104715Y-104538738D01*
X141104754Y-104535817D01*
X141104737Y-104532340D01*
X141104644Y-104528729D01*
X141104465Y-104525423D01*
X141104205Y-104522377D01*
X141103867Y-104519544D01*
X141103456Y-104516879D01*
X141102975Y-104514336D01*
X141102430Y-104511870D01*
X141101824Y-104509435D01*
X141100446Y-104504474D01*
X141098876Y-104499087D01*
X141097146Y-104492909D01*
X141096231Y-104489408D01*
X141095290Y-104485573D01*
X141094791Y-104483642D01*
X141094261Y-104481856D01*
X141093704Y-104480204D01*
X141093123Y-104478678D01*
X141092523Y-104477268D01*
X141091908Y-104475963D01*
X141091282Y-104474754D01*
X141090649Y-104473631D01*
X141089380Y-104471604D01*
X141088131Y-104469805D01*
X141085831Y-104466575D01*
X141084844Y-104464988D01*
X141084406Y-104464167D01*
X141084010Y-104463315D01*
X141083660Y-104462422D01*
X141083361Y-104461478D01*
X141083117Y-104460474D01*
X141082931Y-104459399D01*
X141082808Y-104458245D01*
X141082752Y-104457000D01*
X141082767Y-104455656D01*
X141082857Y-104454202D01*
X141083027Y-104452630D01*
X141083279Y-104450928D01*
X141083619Y-104449087D01*
X141084050Y-104447098D01*
X141085050Y-104443034D01*
X141086142Y-104439114D01*
X141087335Y-104435333D01*
X141088637Y-104431686D01*
X141090058Y-104428170D01*
X141091606Y-104424779D01*
X141093290Y-104421509D01*
X141095118Y-104418356D01*
X141097100Y-104415315D01*
X141099244Y-104412381D01*
X141101560Y-104409550D01*
X141104055Y-104406818D01*
X141106738Y-104404179D01*
X141109619Y-104401629D01*
X141112707Y-104399163D01*
X141116009Y-104396778D01*
X141119232Y-104394666D01*
X141120707Y-104393771D01*
X141122099Y-104392979D01*
X141123416Y-104392285D01*
X141124665Y-104391687D01*
X141125854Y-104391180D01*
X141126989Y-104390759D01*
X141128077Y-104390422D01*
X141129127Y-104390165D01*
X141130145Y-104389983D01*
X141131138Y-104389873D01*
X141132113Y-104389830D01*
X141133078Y-104389852D01*
G37*
G36*
X144190984Y-105287688D02*
G01*
X144213285Y-105306679D01*
X144234429Y-105326914D01*
X144254360Y-105348338D01*
X144273020Y-105370894D01*
X144290355Y-105394527D01*
X144306307Y-105419182D01*
X144320819Y-105444803D01*
X144333836Y-105471333D01*
X144345300Y-105498718D01*
X144355156Y-105526902D01*
X144363346Y-105555828D01*
X144369815Y-105585443D01*
X144374505Y-105615689D01*
X144377361Y-105646511D01*
X144378325Y-105677853D01*
X144377673Y-105703612D01*
X144375738Y-105729038D01*
X144372552Y-105754099D01*
X144368145Y-105778762D01*
X144362550Y-105802997D01*
X144355799Y-105826772D01*
X144347921Y-105850054D01*
X144338951Y-105872813D01*
X144328917Y-105895015D01*
X144317854Y-105916630D01*
X144305791Y-105937626D01*
X144292760Y-105957971D01*
X144278793Y-105977633D01*
X144263922Y-105996581D01*
X144248178Y-106014782D01*
X144231593Y-106032205D01*
X144214197Y-106048818D01*
X144196024Y-106064590D01*
X144177103Y-106079488D01*
X144157468Y-106093482D01*
X144137148Y-106106538D01*
X144116177Y-106118625D01*
X144094584Y-106129713D01*
X144072403Y-106139767D01*
X144049664Y-106148758D01*
X144026400Y-106156654D01*
X144002641Y-106163421D01*
X143978419Y-106169030D01*
X143953765Y-106173447D01*
X143928712Y-106176642D01*
X143903291Y-106178582D01*
X143877533Y-106179236D01*
X143855808Y-106178771D01*
X143834319Y-106177389D01*
X143813084Y-106175109D01*
X143792122Y-106171949D01*
X143771452Y-106167930D01*
X143751093Y-106163070D01*
X143731063Y-106157388D01*
X143711382Y-106150903D01*
X143692069Y-106143634D01*
X143673142Y-106135601D01*
X143654620Y-106126822D01*
X143636523Y-106117316D01*
X143618868Y-106107103D01*
X143601676Y-106096201D01*
X143584964Y-106084630D01*
X143568752Y-106072408D01*
X143553058Y-106059555D01*
X143537902Y-106046089D01*
X143523302Y-106032030D01*
X143509278Y-106017397D01*
X143495847Y-106002209D01*
X143483030Y-105986484D01*
X143470845Y-105970243D01*
X143459310Y-105953503D01*
X143448445Y-105936285D01*
X143438268Y-105918606D01*
X143428799Y-105900487D01*
X143420057Y-105881946D01*
X143412059Y-105863002D01*
X143404826Y-105843674D01*
X143398375Y-105823982D01*
X143392727Y-105803944D01*
X143394326Y-105803241D01*
X143395400Y-105801920D01*
X143396456Y-105800640D01*
X143397498Y-105799400D01*
X143398528Y-105798200D01*
X143399552Y-105797039D01*
X143400571Y-105795919D01*
X143401589Y-105794837D01*
X143402610Y-105793794D01*
X143404363Y-105792201D01*
X143406401Y-105790618D01*
X143408687Y-105789048D01*
X143411183Y-105787491D01*
X143413852Y-105785951D01*
X143416658Y-105784430D01*
X143422530Y-105781450D01*
X143434276Y-105775806D01*
X143439557Y-105773175D01*
X143441920Y-105771914D01*
X143444048Y-105770693D01*
X143444581Y-105770160D01*
X143445689Y-105769014D01*
X143446812Y-105767588D01*
X143447960Y-105765915D01*
X143449141Y-105764030D01*
X143454357Y-105755028D01*
X143455825Y-105752580D01*
X143457376Y-105750122D01*
X143459017Y-105747685D01*
X143460757Y-105745304D01*
X143462604Y-105743012D01*
X143464566Y-105740842D01*
X143466651Y-105738830D01*
X143467743Y-105737892D01*
X143468869Y-105737007D01*
X143472206Y-105734587D01*
X143475703Y-105732209D01*
X143479345Y-105729889D01*
X143483116Y-105727644D01*
X143487001Y-105725487D01*
X143490984Y-105723436D01*
X143495050Y-105721506D01*
X143499182Y-105719712D01*
X143503367Y-105718071D01*
X143507587Y-105716597D01*
X143511828Y-105715307D01*
X143516075Y-105714217D01*
X143520311Y-105713341D01*
X143524521Y-105712696D01*
X143528690Y-105712298D01*
X143532802Y-105712162D01*
X143540703Y-105712180D01*
X143548125Y-105712314D01*
X143551666Y-105712463D01*
X143555098Y-105712684D01*
X143558425Y-105712995D01*
X143561652Y-105713409D01*
X143564782Y-105713942D01*
X143567819Y-105714608D01*
X143570767Y-105715422D01*
X143573629Y-105716399D01*
X143576410Y-105717555D01*
X143579113Y-105718903D01*
X143581742Y-105720459D01*
X143584301Y-105722238D01*
X143586017Y-105723628D01*
X143587617Y-105725124D01*
X143589110Y-105726720D01*
X143590505Y-105728407D01*
X143591808Y-105730178D01*
X143593028Y-105732025D01*
X143595253Y-105735913D01*
X143597244Y-105740011D01*
X143599064Y-105744254D01*
X143602456Y-105752924D01*
X143604157Y-105757226D01*
X143605947Y-105761422D01*
X143607891Y-105765449D01*
X143610053Y-105769243D01*
X143611237Y-105771034D01*
X143612500Y-105772743D01*
X143613849Y-105774363D01*
X143615294Y-105775885D01*
X143616842Y-105777302D01*
X143618501Y-105778606D01*
X143620280Y-105779789D01*
X143622186Y-105780843D01*
X143623223Y-105781394D01*
X143624248Y-105782002D01*
X143626271Y-105783373D01*
X143628268Y-105784926D01*
X143630254Y-105786632D01*
X143632242Y-105788464D01*
X143634247Y-105790392D01*
X143638363Y-105794422D01*
X143640502Y-105796467D01*
X143642714Y-105798494D01*
X143645013Y-105800474D01*
X143647412Y-105802378D01*
X143649926Y-105804178D01*
X143652568Y-105805846D01*
X143653942Y-105806620D01*
X143655353Y-105807351D01*
X143656804Y-105808035D01*
X143658295Y-105808667D01*
X143661593Y-105809939D01*
X143664817Y-105811078D01*
X143667970Y-105812066D01*
X143671057Y-105812889D01*
X143674082Y-105813529D01*
X143677049Y-105813970D01*
X143679963Y-105814198D01*
X143681401Y-105814226D01*
X143682827Y-105814194D01*
X143684242Y-105814101D01*
X143685646Y-105813944D01*
X143687040Y-105813721D01*
X143688424Y-105813431D01*
X143689799Y-105813071D01*
X143691166Y-105812639D01*
X143692524Y-105812133D01*
X143693874Y-105811551D01*
X143695217Y-105810892D01*
X143696554Y-105810153D01*
X143697885Y-105809332D01*
X143699210Y-105808427D01*
X143700530Y-105807436D01*
X143701845Y-105806357D01*
X143703157Y-105805188D01*
X143704465Y-105803928D01*
X143705507Y-105802771D01*
X143706445Y-105801491D01*
X143707283Y-105800097D01*
X143708025Y-105798595D01*
X143708677Y-105796992D01*
X143709243Y-105795295D01*
X143710137Y-105791652D01*
X143710743Y-105787723D01*
X143711100Y-105783567D01*
X143711245Y-105779242D01*
X143711215Y-105774807D01*
X143709197Y-105742368D01*
X143704465Y-105660679D01*
X143704533Y-105656280D01*
X143704741Y-105652123D01*
X143705099Y-105648184D01*
X143705614Y-105644442D01*
X143706293Y-105640875D01*
X143707146Y-105637461D01*
X143708180Y-105634176D01*
X143709402Y-105630999D01*
X143710823Y-105627908D01*
X143712448Y-105624881D01*
X143714286Y-105621895D01*
X143716346Y-105618928D01*
X143718636Y-105615958D01*
X143721162Y-105612962D01*
X143723935Y-105609919D01*
X143726960Y-105606806D01*
X143729674Y-105604221D01*
X143732465Y-105601777D01*
X143735297Y-105599441D01*
X143738136Y-105597181D01*
X143743695Y-105592760D01*
X143746347Y-105590533D01*
X143748866Y-105588253D01*
X143751219Y-105585887D01*
X143752323Y-105584661D01*
X143753371Y-105583402D01*
X143754361Y-105582105D01*
X143755287Y-105580766D01*
X143756146Y-105579382D01*
X143756932Y-105577947D01*
X143757643Y-105576459D01*
X143758272Y-105574912D01*
X143758817Y-105573304D01*
X143759273Y-105571629D01*
X143759634Y-105569885D01*
X143759898Y-105568066D01*
X143760059Y-105566169D01*
X143760114Y-105564189D01*
X143760138Y-105557875D01*
X143760189Y-105555131D01*
X143760285Y-105552618D01*
X143760441Y-105550301D01*
X143760671Y-105548147D01*
X143760989Y-105546122D01*
X143761410Y-105544191D01*
X143761948Y-105542321D01*
X143762617Y-105540478D01*
X143763431Y-105538627D01*
X143764406Y-105536736D01*
X143765555Y-105534770D01*
X143766892Y-105532694D01*
X143768433Y-105530476D01*
X143770191Y-105528080D01*
X143771221Y-105526765D01*
X143772276Y-105525522D01*
X143773353Y-105524348D01*
X143774448Y-105523235D01*
X143775558Y-105522180D01*
X143776682Y-105521176D01*
X143778956Y-105519298D01*
X143781247Y-105517560D01*
X143783532Y-105515916D01*
X143787991Y-105512733D01*
X143790119Y-105511106D01*
X143792149Y-105509397D01*
X143793119Y-105508497D01*
X143794057Y-105507560D01*
X143794958Y-105506581D01*
X143795821Y-105505553D01*
X143796641Y-105504471D01*
X143797417Y-105503330D01*
X143798145Y-105502124D01*
X143798823Y-105500847D01*
X143799447Y-105499495D01*
X143800015Y-105498061D01*
X143800524Y-105496540D01*
X143800971Y-105494927D01*
X143801569Y-105491769D01*
X143801892Y-105488276D01*
X143801969Y-105484498D01*
X143801827Y-105480489D01*
X143801494Y-105476301D01*
X143800999Y-105471986D01*
X143800369Y-105467596D01*
X143799632Y-105463184D01*
X143797952Y-105454503D01*
X143796181Y-105446360D01*
X143793268Y-105433367D01*
X143793268Y-105432834D01*
X143793268Y-105432301D01*
X143793800Y-105431768D01*
X143794213Y-105431264D01*
X143794700Y-105430733D01*
X143795251Y-105430181D01*
X143795853Y-105429611D01*
X143797173Y-105428434D01*
X143798573Y-105427236D01*
X143799966Y-105426048D01*
X143801267Y-105424904D01*
X143801856Y-105424359D01*
X143802390Y-105423837D01*
X143802857Y-105423342D01*
X143803247Y-105422879D01*
X143803247Y-105422346D01*
X143803781Y-105422346D01*
X143803781Y-105421813D01*
X143803781Y-105421280D01*
X143802383Y-105415820D01*
X143801076Y-105410898D01*
X143799896Y-105406496D01*
X143798881Y-105402596D01*
X143798070Y-105399182D01*
X143797753Y-105397651D01*
X143797501Y-105396235D01*
X143797319Y-105394931D01*
X143797212Y-105393737D01*
X143797184Y-105392651D01*
X143797240Y-105391671D01*
X143797245Y-105391610D01*
X143797259Y-105391527D01*
X143797310Y-105391307D01*
X143797383Y-105391036D01*
X143797470Y-105390740D01*
X143797562Y-105390445D01*
X143797649Y-105390177D01*
X143797723Y-105389960D01*
X143797773Y-105389822D01*
X143798306Y-105389289D01*
X143798306Y-105388756D01*
X143798839Y-105388756D01*
X143798839Y-105388223D01*
X143799372Y-105388223D01*
X143799905Y-105388223D01*
X143800438Y-105387690D01*
X143800948Y-105387554D01*
X143801509Y-105387442D01*
X143802118Y-105387355D01*
X143802774Y-105387291D01*
X143803473Y-105387250D01*
X143804214Y-105387232D01*
X143804995Y-105387237D01*
X143805813Y-105387263D01*
X143807554Y-105387381D01*
X143809419Y-105387582D01*
X143811391Y-105387864D01*
X143813454Y-105388223D01*
X143818286Y-105388899D01*
X143822687Y-105389401D01*
X143826697Y-105389746D01*
X143830356Y-105389953D01*
X143833707Y-105390040D01*
X143836791Y-105390025D01*
X143839649Y-105389926D01*
X143842322Y-105389761D01*
X143847278Y-105389304D01*
X143851989Y-105388800D01*
X143854356Y-105388574D01*
X143856786Y-105388391D01*
X143859319Y-105388268D01*
X143861997Y-105388223D01*
X143863878Y-105388362D01*
X143865711Y-105388768D01*
X143867497Y-105389425D01*
X143869240Y-105390320D01*
X143870942Y-105391435D01*
X143872604Y-105392757D01*
X143874230Y-105394269D01*
X143875822Y-105395957D01*
X143878913Y-105399796D01*
X143881895Y-105404153D01*
X143884788Y-105408904D01*
X143887611Y-105413927D01*
X143893122Y-105424299D01*
X143898580Y-105434288D01*
X143901336Y-105438832D01*
X143904136Y-105442913D01*
X143906999Y-105446407D01*
X143908460Y-105447896D01*
X143909943Y-105449193D01*
X143911088Y-105450017D01*
X143912350Y-105450728D01*
X143913721Y-105451330D01*
X143915193Y-105451831D01*
X143916757Y-105452238D01*
X143918406Y-105452556D01*
X143921924Y-105452951D01*
X143925683Y-105453067D01*
X143929618Y-105452957D01*
X143933665Y-105452669D01*
X143937758Y-105452256D01*
X143953298Y-105450361D01*
X143956651Y-105450081D01*
X143959662Y-105449980D01*
X143962266Y-105450108D01*
X143963395Y-105450274D01*
X143964397Y-105450517D01*
X143964397Y-105451050D01*
X143964930Y-105451050D01*
X143965463Y-105451050D01*
X143965996Y-105451583D01*
X143965996Y-105452116D01*
X143966529Y-105452116D01*
X143966529Y-105452649D01*
X143966529Y-105453182D01*
X143967062Y-105453715D01*
X143967062Y-105454248D01*
X143966529Y-105454781D01*
X143966526Y-105454882D01*
X143966516Y-105454989D01*
X143966501Y-105455100D01*
X143966480Y-105455216D01*
X143966454Y-105455335D01*
X143966424Y-105455456D01*
X143966391Y-105455578D01*
X143966353Y-105455702D01*
X143966271Y-105455949D01*
X143966182Y-105456190D01*
X143966089Y-105456419D01*
X143965996Y-105456630D01*
X143965312Y-105458415D01*
X143964723Y-105460042D01*
X143964225Y-105461516D01*
X143963814Y-105462840D01*
X143963488Y-105464017D01*
X143963355Y-105464552D01*
X143963242Y-105465051D01*
X143963148Y-105465516D01*
X143963072Y-105465947D01*
X143963015Y-105466343D01*
X143962976Y-105466707D01*
X143962976Y-105467239D01*
X143962976Y-105467772D01*
X143962976Y-105468305D01*
X143963509Y-105468305D01*
X143964042Y-105468305D01*
X143964575Y-105468305D01*
X143964995Y-105468117D01*
X143965446Y-105467892D01*
X143965924Y-105467635D01*
X143966424Y-105467354D01*
X143967467Y-105466739D01*
X143968536Y-105466094D01*
X143969591Y-105465466D01*
X143970593Y-105464902D01*
X143971062Y-105464659D01*
X143971502Y-105464450D01*
X143971909Y-105464280D01*
X143972278Y-105464155D01*
X143972811Y-105464155D01*
X143973344Y-105464155D01*
X143974379Y-105465222D01*
X143975375Y-105466311D01*
X143977257Y-105468546D01*
X143979007Y-105470840D01*
X143980640Y-105473169D01*
X143982173Y-105475514D01*
X143983621Y-105477852D01*
X143986330Y-105482421D01*
X143988893Y-105486706D01*
X143990161Y-105488687D01*
X143991441Y-105490532D01*
X143992749Y-105492220D01*
X143994101Y-105493728D01*
X143994799Y-105494408D01*
X143995513Y-105495036D01*
X143996247Y-105495608D01*
X143997002Y-105496122D01*
X143997486Y-105496378D01*
X143998001Y-105496623D01*
X143998547Y-105496853D01*
X143999119Y-105497067D01*
X143999716Y-105497261D01*
X144000334Y-105497433D01*
X144000970Y-105497582D01*
X144001623Y-105497704D01*
X144002288Y-105497798D01*
X144002964Y-105497860D01*
X144003647Y-105497889D01*
X144004335Y-105497882D01*
X144005025Y-105497836D01*
X144005714Y-105497750D01*
X144006399Y-105497621D01*
X144007079Y-105497446D01*
X144007151Y-105497445D01*
X144007221Y-105497442D01*
X144007288Y-105497437D01*
X144007353Y-105497430D01*
X144007415Y-105497421D01*
X144007474Y-105497411D01*
X144007531Y-105497399D01*
X144007586Y-105497385D01*
X144007638Y-105497371D01*
X144007688Y-105497355D01*
X144007736Y-105497338D01*
X144007782Y-105497320D01*
X144007826Y-105497301D01*
X144007868Y-105497281D01*
X144007908Y-105497261D01*
X144007947Y-105497240D01*
X144007984Y-105497219D01*
X144008020Y-105497197D01*
X144008086Y-105497153D01*
X144008148Y-105497108D01*
X144008205Y-105497064D01*
X144008309Y-105496982D01*
X144008357Y-105496946D01*
X144008403Y-105496913D01*
X144008936Y-105496913D01*
X144009469Y-105496380D01*
X144010002Y-105495847D01*
X144010535Y-105495847D01*
X144011118Y-105495012D01*
X144011606Y-105494085D01*
X144012007Y-105493071D01*
X144012327Y-105491977D01*
X144012574Y-105490809D01*
X144012754Y-105489574D01*
X144012942Y-105486927D01*
X144012948Y-105484085D01*
X144012828Y-105481099D01*
X144012436Y-105474898D01*
X144012276Y-105471783D01*
X144012215Y-105468725D01*
X144012309Y-105465776D01*
X144012615Y-105462984D01*
X144012865Y-105461664D01*
X144013188Y-105460402D01*
X144013593Y-105459204D01*
X144014085Y-105458078D01*
X144014672Y-105457029D01*
X144015362Y-105456064D01*
X144016160Y-105455188D01*
X144017075Y-105454409D01*
X144018872Y-105453164D01*
X144020738Y-105452114D01*
X144022670Y-105451244D01*
X144024665Y-105450539D01*
X144026721Y-105449981D01*
X144028835Y-105449556D01*
X144031004Y-105449247D01*
X144033226Y-105449039D01*
X144035498Y-105448914D01*
X144037818Y-105448858D01*
X144042589Y-105448887D01*
X144052587Y-105449064D01*
X144052797Y-105449067D01*
X144053027Y-105449074D01*
X144053515Y-105449091D01*
X144053762Y-105449096D01*
X144054003Y-105449094D01*
X144054233Y-105449085D01*
X144054341Y-105449076D01*
X144054443Y-105449064D01*
X144054976Y-105449064D01*
X144055510Y-105449064D01*
X144056042Y-105448531D01*
X144056575Y-105448531D01*
X144057108Y-105447998D01*
X144057641Y-105447998D01*
X144057641Y-105447465D01*
X144058174Y-105446932D01*
X144058707Y-105446399D01*
X144059165Y-105445478D01*
X144059537Y-105444467D01*
X144059828Y-105443371D01*
X144060041Y-105442196D01*
X144060182Y-105440948D01*
X144060253Y-105439633D01*
X144060208Y-105436827D01*
X144059940Y-105433825D01*
X144059483Y-105430673D01*
X144058873Y-105427420D01*
X144058144Y-105424114D01*
X144056466Y-105417529D01*
X144054726Y-105411297D01*
X144053201Y-105405800D01*
X144052605Y-105403445D01*
X144052166Y-105401417D01*
X144051595Y-105398192D01*
X144051145Y-105394815D01*
X144050808Y-105391310D01*
X144050582Y-105387700D01*
X144050460Y-105384012D01*
X144050438Y-105380268D01*
X144050510Y-105376493D01*
X144050671Y-105372713D01*
X144050916Y-105368951D01*
X144051239Y-105365231D01*
X144052101Y-105358018D01*
X144052629Y-105354573D01*
X144053215Y-105351268D01*
X144053854Y-105348129D01*
X144054541Y-105345178D01*
X144054946Y-105343683D01*
X144055406Y-105342241D01*
X144055919Y-105340847D01*
X144056482Y-105339501D01*
X144057092Y-105338200D01*
X144057749Y-105336942D01*
X144058448Y-105335723D01*
X144059188Y-105334543D01*
X144060780Y-105332286D01*
X144062505Y-105330152D01*
X144064346Y-105328122D01*
X144066283Y-105326178D01*
X144068296Y-105324300D01*
X144070366Y-105322470D01*
X144074604Y-105318877D01*
X144078843Y-105315249D01*
X144080915Y-105313375D01*
X144082930Y-105311435D01*
X144084217Y-105310201D01*
X144085526Y-105309074D01*
X144086858Y-105308049D01*
X144088211Y-105307122D01*
X144089584Y-105306286D01*
X144090976Y-105305537D01*
X144092387Y-105304868D01*
X144093815Y-105304276D01*
X144096719Y-105303297D01*
X144099682Y-105302557D01*
X144102695Y-105302014D01*
X144105753Y-105301627D01*
X144108846Y-105301351D01*
X144111967Y-105301145D01*
X144118266Y-105300773D01*
X144121428Y-105300522D01*
X144124589Y-105300171D01*
X144127741Y-105299678D01*
X144130876Y-105299000D01*
X144132175Y-105298647D01*
X144133464Y-105298239D01*
X144136013Y-105297268D01*
X144138524Y-105296102D01*
X144140997Y-105294756D01*
X144143430Y-105293244D01*
X144145824Y-105291583D01*
X144148179Y-105289786D01*
X144150495Y-105287869D01*
X144152771Y-105285846D01*
X144155007Y-105283733D01*
X144157204Y-105281545D01*
X144159360Y-105279297D01*
X144163553Y-105274678D01*
X144167583Y-105269997D01*
X144190984Y-105287688D01*
G37*
G36*
X143564228Y-105304539D02*
G01*
X143564595Y-105304552D01*
X143565056Y-105304588D01*
X143565574Y-105304642D01*
X143566113Y-105304712D01*
X143566640Y-105304794D01*
X143567117Y-105304883D01*
X143567326Y-105304930D01*
X143567509Y-105304978D01*
X143567662Y-105305025D01*
X143567781Y-105305072D01*
X143567915Y-105305137D01*
X143568074Y-105305229D01*
X143568254Y-105305345D01*
X143568450Y-105305482D01*
X143568660Y-105305636D01*
X143568880Y-105305803D01*
X143569333Y-105306163D01*
X143569781Y-105306537D01*
X143570195Y-105306895D01*
X143570544Y-105307210D01*
X143570801Y-105307454D01*
X143571355Y-105308238D01*
X143571857Y-105309097D01*
X143572723Y-105311030D01*
X143573435Y-105313229D01*
X143574029Y-105315672D01*
X143575008Y-105321192D01*
X143575944Y-105327403D01*
X143577126Y-105334118D01*
X143577898Y-105337605D01*
X143578840Y-105341147D01*
X143579986Y-105344721D01*
X143581373Y-105348304D01*
X143583036Y-105351871D01*
X143585012Y-105355400D01*
X143586312Y-105357481D01*
X143587583Y-105359425D01*
X143588826Y-105361240D01*
X143590043Y-105362935D01*
X143591236Y-105364519D01*
X143592407Y-105366000D01*
X143594686Y-105368686D01*
X143596897Y-105371063D01*
X143599051Y-105373199D01*
X143601162Y-105375160D01*
X143603246Y-105377017D01*
X143607381Y-105380685D01*
X143609460Y-105382634D01*
X143611566Y-105384749D01*
X143613711Y-105387099D01*
X143615910Y-105389753D01*
X143617034Y-105391214D01*
X143618176Y-105392777D01*
X143619339Y-105394450D01*
X143620523Y-105396241D01*
X143621654Y-105398041D01*
X143622673Y-105399733D01*
X143623588Y-105401324D01*
X143624406Y-105402821D01*
X143625133Y-105404231D01*
X143625778Y-105405561D01*
X143626843Y-105408008D01*
X143627658Y-105410218D01*
X143628277Y-105412246D01*
X143628757Y-105414147D01*
X143629153Y-105415978D01*
X143629912Y-105419647D01*
X143630387Y-105421597D01*
X143630999Y-105423698D01*
X143631804Y-105426004D01*
X143632857Y-105428573D01*
X143633494Y-105429972D01*
X143634213Y-105431458D01*
X143635023Y-105433037D01*
X143635929Y-105434716D01*
X143636899Y-105436403D01*
X143637891Y-105437993D01*
X143638903Y-105439493D01*
X143639931Y-105440908D01*
X143640972Y-105442244D01*
X143642022Y-105443507D01*
X143643078Y-105444704D01*
X143644137Y-105445839D01*
X143646247Y-105447951D01*
X143648326Y-105449891D01*
X143652282Y-105453441D01*
X143654103Y-105455147D01*
X143654963Y-105456004D01*
X143655784Y-105456871D01*
X143656563Y-105457754D01*
X143657296Y-105458659D01*
X143657981Y-105459593D01*
X143658614Y-105460560D01*
X143659190Y-105461567D01*
X143659708Y-105462620D01*
X143660163Y-105463725D01*
X143660552Y-105464888D01*
X143660871Y-105466114D01*
X143661118Y-105467410D01*
X143661289Y-105468782D01*
X143661380Y-105470235D01*
X143661372Y-105472453D01*
X143661352Y-105473512D01*
X143661313Y-105474526D01*
X143661250Y-105475485D01*
X143661207Y-105475940D01*
X143661155Y-105476379D01*
X143661094Y-105476799D01*
X143661023Y-105477200D01*
X143660941Y-105477580D01*
X143660847Y-105477938D01*
X143660314Y-105478471D01*
X143659781Y-105479004D01*
X143659781Y-105479537D01*
X143659060Y-105480322D01*
X143658237Y-105481046D01*
X143657317Y-105481733D01*
X143656305Y-105482405D01*
X143651414Y-105485420D01*
X143650002Y-105486372D01*
X143648523Y-105487450D01*
X143646981Y-105488677D01*
X143645381Y-105490077D01*
X143643727Y-105491674D01*
X143642022Y-105493490D01*
X143640272Y-105495549D01*
X143638481Y-105497874D01*
X143635798Y-105501434D01*
X143633032Y-105504933D01*
X143627387Y-105511742D01*
X143621831Y-105518285D01*
X143616648Y-105524544D01*
X143614284Y-105527562D01*
X143612121Y-105530503D01*
X143610193Y-105533365D01*
X143608536Y-105536146D01*
X143607820Y-105537505D01*
X143607186Y-105538844D01*
X143606636Y-105540161D01*
X143606177Y-105541456D01*
X143605812Y-105542730D01*
X143605545Y-105543982D01*
X143605382Y-105545211D01*
X143605327Y-105546417D01*
X143605511Y-105552059D01*
X143605956Y-105559224D01*
X143607005Y-105576969D01*
X143607293Y-105586973D01*
X143607214Y-105597345D01*
X143606988Y-105602580D01*
X143606611Y-105607799D01*
X143606064Y-105612967D01*
X143605327Y-105618046D01*
X143604869Y-105620791D01*
X143604470Y-105623375D01*
X143603818Y-105628087D01*
X143602870Y-105635834D01*
X143602446Y-105638958D01*
X143602218Y-105640353D01*
X143601968Y-105641643D01*
X143601689Y-105642834D01*
X143601373Y-105643932D01*
X143601011Y-105644942D01*
X143600596Y-105645870D01*
X143600062Y-105646403D01*
X143600007Y-105646464D01*
X143599939Y-105646548D01*
X143599774Y-105646769D01*
X143599581Y-105647042D01*
X143599376Y-105647340D01*
X143598990Y-105647904D01*
X143598840Y-105648119D01*
X143598738Y-105648252D01*
X143598311Y-105648638D01*
X143597854Y-105649003D01*
X143597364Y-105649350D01*
X143596841Y-105649682D01*
X143596284Y-105650003D01*
X143595690Y-105650315D01*
X143595059Y-105650622D01*
X143594390Y-105650925D01*
X143592931Y-105651534D01*
X143591303Y-105652167D01*
X143587499Y-105653598D01*
X143584198Y-105654739D01*
X143580976Y-105655756D01*
X143577814Y-105656624D01*
X143574696Y-105657319D01*
X143571603Y-105657818D01*
X143568519Y-105658096D01*
X143565424Y-105658131D01*
X143562302Y-105657897D01*
X143560726Y-105657673D01*
X143559135Y-105657372D01*
X143557530Y-105656992D01*
X143555906Y-105656531D01*
X143554262Y-105655985D01*
X143552596Y-105655350D01*
X143550905Y-105654625D01*
X143549188Y-105653807D01*
X143547442Y-105652891D01*
X143545664Y-105651875D01*
X143542008Y-105649533D01*
X143538200Y-105646756D01*
X143534224Y-105643521D01*
X143530394Y-105640039D01*
X143527013Y-105636532D01*
X143524034Y-105632989D01*
X143521413Y-105629402D01*
X143519102Y-105625761D01*
X143517057Y-105622058D01*
X143515230Y-105618284D01*
X143513577Y-105614428D01*
X143512051Y-105610484D01*
X143510606Y-105606440D01*
X143507776Y-105598020D01*
X143504720Y-105589096D01*
X143502992Y-105584422D01*
X143501070Y-105579595D01*
X143495635Y-105566401D01*
X143494947Y-105564576D01*
X143494444Y-105563088D01*
X143494085Y-105561807D01*
X143493827Y-105560609D01*
X143493449Y-105557951D01*
X143492976Y-105554098D01*
X143492075Y-105548035D01*
X143491359Y-105543858D01*
X143490411Y-105538747D01*
X143489419Y-105533945D01*
X143488353Y-105529364D01*
X143486074Y-105520742D01*
X143481501Y-105504799D01*
X143480472Y-105500906D01*
X143479527Y-105496988D01*
X143478689Y-105493017D01*
X143477976Y-105488960D01*
X143477409Y-105484787D01*
X143477007Y-105480468D01*
X143476792Y-105475972D01*
X143476782Y-105471269D01*
X143476491Y-105471470D01*
X143476500Y-105470787D01*
X143476526Y-105470107D01*
X143476623Y-105468754D01*
X143476770Y-105467399D01*
X143476953Y-105466031D01*
X143477384Y-105463217D01*
X143477605Y-105461748D01*
X143477815Y-105460223D01*
X143478258Y-105457225D01*
X143478757Y-105454448D01*
X143479309Y-105451878D01*
X143479911Y-105449502D01*
X143480563Y-105447306D01*
X143481261Y-105445276D01*
X143482003Y-105443399D01*
X143482788Y-105441661D01*
X143483613Y-105440049D01*
X143484475Y-105438548D01*
X143485374Y-105437147D01*
X143486305Y-105435830D01*
X143487268Y-105434584D01*
X143488260Y-105433396D01*
X143490323Y-105431138D01*
X143494700Y-105426715D01*
X143496981Y-105424332D01*
X143499298Y-105421691D01*
X143500466Y-105420239D01*
X143501636Y-105418681D01*
X143502807Y-105417005D01*
X143503977Y-105415195D01*
X143505142Y-105413240D01*
X143506302Y-105411124D01*
X143507454Y-105408835D01*
X143508595Y-105406358D01*
X143510636Y-105401484D01*
X143512257Y-105397109D01*
X143513524Y-105393165D01*
X143514497Y-105389583D01*
X143515242Y-105386296D01*
X143515820Y-105383235D01*
X143516730Y-105377521D01*
X143517188Y-105374732D01*
X143517733Y-105371897D01*
X143518426Y-105368949D01*
X143519332Y-105365819D01*
X143520514Y-105362439D01*
X143522034Y-105358741D01*
X143523956Y-105354657D01*
X143526343Y-105350120D01*
X143536114Y-105332044D01*
X143538388Y-105327972D01*
X143540624Y-105324132D01*
X143542837Y-105320553D01*
X143545043Y-105317262D01*
X143546148Y-105315732D01*
X143547257Y-105314285D01*
X143548371Y-105312923D01*
X143549493Y-105311650D01*
X143550624Y-105310469D01*
X143551767Y-105309383D01*
X143552923Y-105308397D01*
X143554094Y-105307514D01*
X143555281Y-105306736D01*
X143556488Y-105306067D01*
X143557715Y-105305511D01*
X143558965Y-105305071D01*
X143560240Y-105304750D01*
X143561540Y-105304553D01*
X143562869Y-105304481D01*
X143564228Y-105304539D01*
G37*
G36*
X144126475Y-103418944D02*
G01*
X144127260Y-103419007D01*
X144128032Y-103419123D01*
X144128799Y-103419287D01*
X144129567Y-103419496D01*
X144130342Y-103419744D01*
X144131940Y-103420341D01*
X144135499Y-103421819D01*
X144137562Y-103422629D01*
X144139881Y-103423440D01*
X144141153Y-103423834D01*
X144142507Y-103424216D01*
X144143951Y-103424580D01*
X144145491Y-103424922D01*
X144147050Y-103425223D01*
X144148552Y-103425464D01*
X144149999Y-103425652D01*
X144151395Y-103425793D01*
X144154043Y-103425965D01*
X144156517Y-103426032D01*
X144161028Y-103426074D01*
X144163108Y-103426157D01*
X144164114Y-103426238D01*
X144165100Y-103426354D01*
X144166069Y-103426512D01*
X144167024Y-103426719D01*
X144167968Y-103426981D01*
X144168903Y-103427306D01*
X144169833Y-103427700D01*
X144170758Y-103428171D01*
X144171683Y-103428724D01*
X144172610Y-103429367D01*
X144173542Y-103430106D01*
X144174481Y-103430948D01*
X144175431Y-103431901D01*
X144176393Y-103432970D01*
X144177370Y-103434163D01*
X144178365Y-103435487D01*
X144179381Y-103436947D01*
X144180421Y-103438552D01*
X144182439Y-103441916D01*
X144184225Y-103445295D01*
X144185788Y-103448692D01*
X144187139Y-103452113D01*
X144188288Y-103455562D01*
X144189245Y-103459043D01*
X144190021Y-103462560D01*
X144190625Y-103466118D01*
X144191068Y-103469721D01*
X144191359Y-103473374D01*
X144191509Y-103477080D01*
X144191528Y-103480844D01*
X144191426Y-103484670D01*
X144191214Y-103488563D01*
X144190901Y-103492527D01*
X144190498Y-103496567D01*
X144186894Y-103522892D01*
X144181311Y-103560262D01*
X144176180Y-103595234D01*
X144174542Y-103607620D01*
X144173929Y-103614365D01*
X144170776Y-103671900D01*
X144168888Y-103709200D01*
X144168464Y-103722830D01*
X144168616Y-103730387D01*
X144168787Y-103732823D01*
X144168857Y-103736196D01*
X144168749Y-103745179D01*
X144167877Y-103768117D01*
X144166242Y-103802015D01*
X144166194Y-103809101D01*
X144165915Y-103814581D01*
X144165649Y-103817661D01*
X144165273Y-103820913D01*
X144164771Y-103824296D01*
X144164123Y-103827770D01*
X144163311Y-103831291D01*
X144162318Y-103834821D01*
X144161125Y-103838317D01*
X144159714Y-103841738D01*
X144158067Y-103845044D01*
X144156165Y-103848193D01*
X144154185Y-103851085D01*
X144152303Y-103853643D01*
X144150497Y-103855891D01*
X144148741Y-103857852D01*
X144147013Y-103859551D01*
X144146152Y-103860310D01*
X144145289Y-103861012D01*
X144144421Y-103861660D01*
X144143545Y-103862257D01*
X144142658Y-103862807D01*
X144141757Y-103863312D01*
X144139900Y-103864200D01*
X144137953Y-103864945D01*
X144135890Y-103865571D01*
X144133688Y-103866101D01*
X144131323Y-103866561D01*
X144128771Y-103866972D01*
X144123012Y-103867749D01*
X144121563Y-103867896D01*
X144120144Y-103867970D01*
X144118754Y-103867974D01*
X144117394Y-103867913D01*
X144116064Y-103867791D01*
X144114762Y-103867613D01*
X144113489Y-103867382D01*
X144112245Y-103867103D01*
X144111030Y-103866781D01*
X144109842Y-103866418D01*
X144108683Y-103866021D01*
X144107551Y-103865593D01*
X144105371Y-103864660D01*
X144103300Y-103863654D01*
X144101336Y-103862610D01*
X144099478Y-103861561D01*
X144096072Y-103859586D01*
X144094521Y-103858728D01*
X144093069Y-103858002D01*
X144091714Y-103857442D01*
X144091073Y-103857235D01*
X144090456Y-103857083D01*
X144089922Y-103857083D01*
X144086748Y-103857197D01*
X144082290Y-103857553D01*
X144076959Y-103858173D01*
X144071160Y-103859078D01*
X144068212Y-103859644D01*
X144065301Y-103860289D01*
X144062476Y-103861016D01*
X144059790Y-103861828D01*
X144057292Y-103862726D01*
X144055033Y-103863715D01*
X144053066Y-103864796D01*
X144052207Y-103865372D01*
X144051440Y-103865973D01*
X144050907Y-103866506D01*
X144050374Y-103866506D01*
X144050374Y-103867039D01*
X144049841Y-103867039D01*
X144049778Y-103867054D01*
X144049692Y-103867064D01*
X144049589Y-103867070D01*
X144049469Y-103867071D01*
X144049197Y-103867066D01*
X144048901Y-103867054D01*
X144048338Y-103867028D01*
X144048122Y-103867026D01*
X144048042Y-103867030D01*
X144047984Y-103867039D01*
X144047094Y-103867022D01*
X144046159Y-103866927D01*
X144045184Y-103866759D01*
X144044171Y-103866521D01*
X144043127Y-103866218D01*
X144042055Y-103865855D01*
X144039843Y-103864966D01*
X144037571Y-103863888D01*
X144035273Y-103862659D01*
X144032983Y-103861313D01*
X144030735Y-103859886D01*
X144028563Y-103858415D01*
X144026502Y-103856935D01*
X144024585Y-103855481D01*
X144022847Y-103854089D01*
X144021322Y-103852796D01*
X144020044Y-103851637D01*
X144019048Y-103850648D01*
X144018367Y-103849864D01*
X144018367Y-103849331D01*
X144017834Y-103849331D01*
X144016848Y-103844019D01*
X144016096Y-103838618D01*
X144015550Y-103833111D01*
X144015186Y-103827483D01*
X144014896Y-103815797D01*
X144015018Y-103803430D01*
X144015665Y-103776134D01*
X144015773Y-103760946D01*
X144015460Y-103744557D01*
X144014874Y-103728578D01*
X144014212Y-103714633D01*
X144013523Y-103702613D01*
X144012852Y-103692410D01*
X144011759Y-103677022D01*
X144011430Y-103671619D01*
X144011310Y-103667600D01*
X144011293Y-103667621D01*
X144011276Y-103667641D01*
X144011245Y-103667680D01*
X144011215Y-103667720D01*
X144011198Y-103667740D01*
X144011181Y-103667761D01*
X144012017Y-103648676D01*
X144013954Y-103614667D01*
X144016141Y-103580420D01*
X144017721Y-103560622D01*
X144017726Y-103560561D01*
X144017741Y-103560478D01*
X144017795Y-103560258D01*
X144017873Y-103559987D01*
X144017963Y-103559691D01*
X144018143Y-103559127D01*
X144018212Y-103558911D01*
X144018254Y-103558772D01*
X144018259Y-103558712D01*
X144018272Y-103558629D01*
X144018321Y-103558410D01*
X144018393Y-103558140D01*
X144018478Y-103557845D01*
X144018569Y-103557550D01*
X144018656Y-103557281D01*
X144018732Y-103557064D01*
X144018787Y-103556923D01*
X144019637Y-103555489D01*
X144020695Y-103554091D01*
X144021947Y-103552705D01*
X144023378Y-103551306D01*
X144026726Y-103548367D01*
X144030628Y-103545075D01*
X144032752Y-103543234D01*
X144034974Y-103541229D01*
X144037278Y-103539036D01*
X144039652Y-103536629D01*
X144042082Y-103533984D01*
X144044553Y-103531075D01*
X144047053Y-103527878D01*
X144049567Y-103524367D01*
X144052263Y-103520352D01*
X144054614Y-103516670D01*
X144056670Y-103513271D01*
X144058480Y-103510102D01*
X144060094Y-103507111D01*
X144061562Y-103504246D01*
X144064260Y-103498686D01*
X144066973Y-103493007D01*
X144070098Y-103486792D01*
X144071941Y-103483354D01*
X144074036Y-103479626D01*
X144076433Y-103475556D01*
X144079184Y-103471092D01*
X144081954Y-103466588D01*
X144084423Y-103462417D01*
X144086633Y-103458552D01*
X144088631Y-103454970D01*
X144092168Y-103448553D01*
X144093796Y-103445668D01*
X144095391Y-103442966D01*
X144096998Y-103440421D01*
X144098661Y-103438008D01*
X144100425Y-103435704D01*
X144101359Y-103434584D01*
X144102336Y-103433482D01*
X144103360Y-103432394D01*
X144104437Y-103431318D01*
X144105574Y-103430249D01*
X144106775Y-103429186D01*
X144108046Y-103428125D01*
X144109393Y-103427063D01*
X144110822Y-103425996D01*
X144112337Y-103424922D01*
X144113849Y-103423900D01*
X144115267Y-103422987D01*
X144116597Y-103422180D01*
X144117847Y-103421474D01*
X144119021Y-103420865D01*
X144120126Y-103420348D01*
X144121170Y-103419919D01*
X144122157Y-103419573D01*
X144123095Y-103419306D01*
X144123989Y-103419115D01*
X144124846Y-103418993D01*
X144125673Y-103418938D01*
X144126475Y-103418944D01*
G37*
G36*
X143009239Y-103295126D02*
G01*
X143010128Y-103295658D01*
X143011137Y-103296306D01*
X143012344Y-103297021D01*
X143013046Y-103297388D01*
X143013826Y-103297753D01*
X143014693Y-103298110D01*
X143015658Y-103298453D01*
X143016730Y-103298776D01*
X143017919Y-103299071D01*
X143019234Y-103299335D01*
X143020684Y-103299559D01*
X143022281Y-103299738D01*
X143024032Y-103299865D01*
X143027573Y-103300051D01*
X143030904Y-103300061D01*
X143034057Y-103299941D01*
X143037065Y-103299732D01*
X143042776Y-103299230D01*
X143045545Y-103299023D01*
X143048300Y-103298905D01*
X143051073Y-103298918D01*
X143053897Y-103299108D01*
X143056806Y-103299517D01*
X143058302Y-103299818D01*
X143059831Y-103300190D01*
X143061398Y-103300639D01*
X143063006Y-103301171D01*
X143064659Y-103301790D01*
X143066363Y-103302503D01*
X143068120Y-103303315D01*
X143069935Y-103304231D01*
X143071811Y-103305257D01*
X143073754Y-103306398D01*
X143075703Y-103307636D01*
X143077592Y-103308948D01*
X143079422Y-103310327D01*
X143081192Y-103311767D01*
X143082904Y-103313261D01*
X143084557Y-103314804D01*
X143086152Y-103316388D01*
X143087689Y-103318008D01*
X143090592Y-103321327D01*
X143093267Y-103324710D01*
X143095717Y-103328107D01*
X143097945Y-103331465D01*
X143099954Y-103334733D01*
X143101746Y-103337860D01*
X143103323Y-103340795D01*
X143104689Y-103343487D01*
X143106796Y-103347933D01*
X143108087Y-103350791D01*
X143108620Y-103351324D01*
X143108620Y-103351857D01*
X143109152Y-103351857D01*
X143109685Y-103352390D01*
X143110218Y-103352390D01*
X143111718Y-103353140D01*
X143113526Y-103353911D01*
X143117895Y-103355616D01*
X143120373Y-103356602D01*
X143122989Y-103357713D01*
X143125701Y-103358974D01*
X143128469Y-103360412D01*
X143131248Y-103362052D01*
X143133998Y-103363920D01*
X143135348Y-103364948D01*
X143136675Y-103366043D01*
X143137974Y-103367209D01*
X143139239Y-103368447D01*
X143140464Y-103369763D01*
X143141646Y-103371158D01*
X143142777Y-103372637D01*
X143143854Y-103374202D01*
X143144871Y-103375857D01*
X143145822Y-103377605D01*
X143146702Y-103379449D01*
X143147506Y-103381393D01*
X143149060Y-103385882D01*
X143150264Y-103390248D01*
X143151144Y-103394508D01*
X143151727Y-103398679D01*
X143152039Y-103402779D01*
X143152106Y-103406827D01*
X143151955Y-103410840D01*
X143151612Y-103414834D01*
X143151104Y-103418829D01*
X143150456Y-103422842D01*
X143148850Y-103430991D01*
X143145132Y-103448282D01*
X143144757Y-103449952D01*
X143144353Y-103451544D01*
X143143923Y-103453059D01*
X143143468Y-103454500D01*
X143142990Y-103455869D01*
X143142491Y-103457170D01*
X143141974Y-103458404D01*
X143141440Y-103459573D01*
X143140890Y-103460682D01*
X143140328Y-103461731D01*
X143139754Y-103462724D01*
X143139172Y-103463663D01*
X143138582Y-103464550D01*
X143137986Y-103465388D01*
X143137388Y-103466179D01*
X143136787Y-103466927D01*
X143135590Y-103468299D01*
X143134411Y-103469525D01*
X143133264Y-103470624D01*
X143132165Y-103471617D01*
X143130175Y-103473362D01*
X143129314Y-103474154D01*
X143128563Y-103474919D01*
X143128030Y-103474919D01*
X143128030Y-103475452D01*
X143127498Y-103475985D01*
X143127498Y-103476518D01*
X143127498Y-103477051D01*
X143127498Y-103477584D01*
X143127498Y-103478117D01*
X143128400Y-103482443D01*
X143130036Y-103489163D01*
X143134454Y-103506755D01*
X143136710Y-103516110D01*
X143138648Y-103524828D01*
X143140003Y-103532150D01*
X143140380Y-103535051D01*
X143140513Y-103537318D01*
X143140625Y-103539382D01*
X143140942Y-103541713D01*
X143141437Y-103544287D01*
X143142083Y-103547077D01*
X143143721Y-103553207D01*
X143145637Y-103559900D01*
X143147615Y-103566952D01*
X143149438Y-103574159D01*
X143150224Y-103577758D01*
X143150890Y-103581319D01*
X143151409Y-103584818D01*
X143151753Y-103588228D01*
X143151812Y-103589907D01*
X143151761Y-103591587D01*
X143151606Y-103593267D01*
X143151349Y-103594948D01*
X143150993Y-103596631D01*
X143150542Y-103598315D01*
X143150000Y-103600000D01*
X143149368Y-103601687D01*
X143147853Y-103605068D01*
X143146023Y-103608458D01*
X143143905Y-103611860D01*
X143141525Y-103615275D01*
X143138910Y-103618705D01*
X143136086Y-103622152D01*
X143133080Y-103625617D01*
X143129918Y-103629103D01*
X143123233Y-103636140D01*
X143116242Y-103643280D01*
X143114591Y-103644927D01*
X143112951Y-103646496D01*
X143111324Y-103647989D01*
X143109712Y-103649408D01*
X143108115Y-103650753D01*
X143106536Y-103652027D01*
X143103436Y-103654367D01*
X143100425Y-103656439D01*
X143097513Y-103658257D01*
X143094714Y-103659833D01*
X143092039Y-103661179D01*
X143089501Y-103662307D01*
X143087111Y-103663232D01*
X143084883Y-103663964D01*
X143082827Y-103664517D01*
X143080957Y-103664903D01*
X143079285Y-103665135D01*
X143077821Y-103665225D01*
X143076580Y-103665185D01*
X143075463Y-103664822D01*
X143074056Y-103664196D01*
X143072383Y-103663321D01*
X143070470Y-103662210D01*
X143068342Y-103660878D01*
X143066026Y-103659338D01*
X143060930Y-103655692D01*
X143058201Y-103653613D01*
X143055385Y-103651382D01*
X143052507Y-103649012D01*
X143049595Y-103646518D01*
X143046672Y-103643914D01*
X143043764Y-103641213D01*
X143040898Y-103638429D01*
X143038097Y-103635576D01*
X143037586Y-103635050D01*
X143037095Y-103634553D01*
X143036622Y-103634082D01*
X143036168Y-103633638D01*
X143035733Y-103633220D01*
X143035316Y-103632827D01*
X143034534Y-103632112D01*
X143033822Y-103631485D01*
X143033175Y-103630940D01*
X143032593Y-103630471D01*
X143032072Y-103630070D01*
X143031610Y-103629730D01*
X143031204Y-103629444D01*
X143030551Y-103629009D01*
X143030094Y-103628708D01*
X143029933Y-103628591D01*
X143029813Y-103628487D01*
X143029280Y-103627954D01*
X143026690Y-103622220D01*
X143025235Y-103619118D01*
X143023269Y-103615081D01*
X143020698Y-103609975D01*
X143017427Y-103603666D01*
X143003554Y-103577079D01*
X142990279Y-103550930D01*
X142976225Y-103522144D01*
X142960017Y-103487644D01*
X142945046Y-103455177D01*
X142938879Y-103441595D01*
X142933640Y-103429795D01*
X142929369Y-103419788D01*
X142926101Y-103411584D01*
X142924856Y-103408161D01*
X142923876Y-103405193D01*
X142923165Y-103402681D01*
X142922730Y-103400626D01*
X142923150Y-103401232D01*
X142923134Y-103401131D01*
X142923122Y-103401024D01*
X142923114Y-103400912D01*
X142923109Y-103400797D01*
X142923107Y-103400557D01*
X142923113Y-103400310D01*
X142923136Y-103399823D01*
X142923146Y-103399594D01*
X142923150Y-103399383D01*
X142923248Y-103397783D01*
X142923546Y-103395866D01*
X142924045Y-103393650D01*
X142924747Y-103391150D01*
X142925654Y-103388383D01*
X142926769Y-103385364D01*
X142928093Y-103382111D01*
X142929629Y-103378639D01*
X142931379Y-103374964D01*
X142933345Y-103371102D01*
X142935529Y-103367071D01*
X142937933Y-103362886D01*
X142940560Y-103358563D01*
X142943411Y-103354118D01*
X142946489Y-103349568D01*
X142949795Y-103344929D01*
X142953120Y-103340438D01*
X142956262Y-103336296D01*
X142959248Y-103332477D01*
X142962105Y-103328954D01*
X142964859Y-103325700D01*
X142967538Y-103322687D01*
X142970166Y-103319890D01*
X142972771Y-103317280D01*
X142975380Y-103314832D01*
X142978018Y-103312517D01*
X142980713Y-103310310D01*
X142983491Y-103308183D01*
X142986379Y-103306109D01*
X142989403Y-103304062D01*
X142992589Y-103302014D01*
X142995965Y-103299938D01*
X142997646Y-103298879D01*
X142999204Y-103297928D01*
X143000639Y-103297085D01*
X143001954Y-103296354D01*
X143002567Y-103296031D01*
X143003150Y-103295737D01*
X143003704Y-103295472D01*
X143004229Y-103295236D01*
X143004725Y-103295030D01*
X143005192Y-103294854D01*
X143005631Y-103294708D01*
X143006042Y-103294593D01*
X143006575Y-103294593D01*
X143007108Y-103294593D01*
X143007640Y-103294593D01*
X143008173Y-103294593D01*
X143008707Y-103294593D01*
X143009239Y-103295126D01*
G37*
G36*
X142334772Y-104389737D02*
G01*
X142336647Y-104389830D01*
X142338457Y-104389968D01*
X142340191Y-104390144D01*
X142341840Y-104390356D01*
X142343392Y-104390599D01*
X142344839Y-104390870D01*
X142346170Y-104391165D01*
X142347374Y-104391479D01*
X142348442Y-104391810D01*
X142349364Y-104392152D01*
X142349896Y-104392685D01*
X142350430Y-104393218D01*
X142350430Y-104393750D01*
X142350962Y-104393750D01*
X142350962Y-104394283D01*
X142351278Y-104395240D01*
X142351755Y-104396429D01*
X142353103Y-104399366D01*
X142354828Y-104402815D01*
X142356750Y-104406496D01*
X142360466Y-104413432D01*
X142361902Y-104416127D01*
X142362816Y-104417933D01*
X142362816Y-104418466D01*
X142363349Y-104418466D01*
X142363349Y-104418999D01*
X142364279Y-104419961D01*
X142365564Y-104421131D01*
X142368995Y-104423988D01*
X142377881Y-104430983D01*
X142382521Y-104434674D01*
X142386751Y-104438197D01*
X142388584Y-104439825D01*
X142390163Y-104441328D01*
X142391436Y-104442677D01*
X142392352Y-104443844D01*
X142392949Y-104445790D01*
X142393648Y-104447862D01*
X142394062Y-104448957D01*
X142394533Y-104450099D01*
X142395074Y-104451292D01*
X142395693Y-104452541D01*
X142396402Y-104453852D01*
X142397212Y-104455228D01*
X142398133Y-104456675D01*
X142399176Y-104458198D01*
X142400352Y-104459801D01*
X142401672Y-104461490D01*
X142403147Y-104463270D01*
X142404787Y-104465145D01*
X142406344Y-104466809D01*
X142407986Y-104468426D01*
X142409695Y-104469994D01*
X142411450Y-104471510D01*
X142413232Y-104472971D01*
X142415022Y-104474375D01*
X142418547Y-104476999D01*
X142424837Y-104481442D01*
X142427290Y-104483218D01*
X142428275Y-104483985D01*
X142429075Y-104484669D01*
X142429075Y-104485202D01*
X142429607Y-104485734D01*
X142430241Y-104486561D01*
X142431081Y-104487570D01*
X142433255Y-104490045D01*
X142438730Y-104496191D01*
X142441542Y-104499501D01*
X142442861Y-104501137D01*
X142444080Y-104502730D01*
X142445170Y-104504258D01*
X142446099Y-104505697D01*
X142446838Y-104507026D01*
X142447126Y-104507642D01*
X142447355Y-104508222D01*
X142447355Y-104508755D01*
X142447501Y-104509847D01*
X142447719Y-104510970D01*
X142448299Y-104513302D01*
X142448944Y-104515734D01*
X142449245Y-104516982D01*
X142449505Y-104518250D01*
X142449706Y-104519536D01*
X142449830Y-104520837D01*
X142449857Y-104522151D01*
X142449829Y-104522813D01*
X142449769Y-104523477D01*
X142449676Y-104524144D01*
X142449547Y-104524813D01*
X142449380Y-104525484D01*
X142449172Y-104526157D01*
X142448921Y-104526831D01*
X142448625Y-104527506D01*
X142448282Y-104528183D01*
X142447888Y-104528860D01*
X142447130Y-104530150D01*
X142446468Y-104531323D01*
X142445343Y-104533386D01*
X142444832Y-104534309D01*
X142444323Y-104535183D01*
X142443795Y-104536023D01*
X142443223Y-104536847D01*
X142442584Y-104537670D01*
X142441854Y-104538511D01*
X142441010Y-104539385D01*
X142440028Y-104540309D01*
X142438886Y-104541300D01*
X142437559Y-104542374D01*
X142436024Y-104543548D01*
X142434258Y-104544839D01*
X142432749Y-104545921D01*
X142431341Y-104546948D01*
X142430730Y-104547405D01*
X142430209Y-104547806D01*
X142429801Y-104548137D01*
X142429646Y-104548272D01*
X142429527Y-104548384D01*
X142429527Y-104548917D01*
X142428994Y-104549450D01*
X142428967Y-104549477D01*
X142428942Y-104549511D01*
X142428918Y-104549549D01*
X142428895Y-104549593D01*
X142428852Y-104549695D01*
X142428813Y-104549813D01*
X142428777Y-104549943D01*
X142428744Y-104550083D01*
X142428685Y-104550378D01*
X142428631Y-104550672D01*
X142428578Y-104550941D01*
X142428551Y-104551058D01*
X142428523Y-104551158D01*
X142428493Y-104551240D01*
X142428477Y-104551272D01*
X142428461Y-104551299D01*
X142427928Y-104551832D01*
X142427395Y-104552365D01*
X142426816Y-104552893D01*
X142426096Y-104553474D01*
X142425221Y-104554124D01*
X142424173Y-104554856D01*
X142422938Y-104555685D01*
X142421500Y-104556625D01*
X142417948Y-104558897D01*
X142416961Y-104559536D01*
X142416022Y-104560184D01*
X142415128Y-104560838D01*
X142414278Y-104561498D01*
X142413469Y-104562162D01*
X142412699Y-104562830D01*
X142411966Y-104563500D01*
X142411269Y-104564172D01*
X142409971Y-104565515D01*
X142408788Y-104566850D01*
X142407703Y-104568168D01*
X142406700Y-104569461D01*
X142403173Y-104574204D01*
X142402329Y-104575239D01*
X142401466Y-104576195D01*
X142400568Y-104577065D01*
X142400101Y-104577465D01*
X142399619Y-104577840D01*
X142398950Y-104578124D01*
X142398067Y-104578508D01*
X142397205Y-104578889D01*
X142396599Y-104579164D01*
X142396042Y-104579350D01*
X142395450Y-104579511D01*
X142394823Y-104579647D01*
X142394161Y-104579759D01*
X142393464Y-104579846D01*
X142392733Y-104579908D01*
X142391968Y-104579945D01*
X142391169Y-104579957D01*
X142390336Y-104579945D01*
X142389470Y-104579908D01*
X142388570Y-104579846D01*
X142387638Y-104579759D01*
X142386673Y-104579647D01*
X142385675Y-104579511D01*
X142383583Y-104579164D01*
X142379461Y-104578552D01*
X142375728Y-104578039D01*
X142369314Y-104577221D01*
X142366575Y-104576869D01*
X142364109Y-104576526D01*
X142361887Y-104576168D01*
X142359881Y-104575773D01*
X142358949Y-104575554D01*
X142358059Y-104575317D01*
X142357210Y-104575060D01*
X142356395Y-104574779D01*
X142355613Y-104574471D01*
X142354859Y-104574134D01*
X142354129Y-104573765D01*
X142353420Y-104573362D01*
X142352729Y-104572920D01*
X142352052Y-104572438D01*
X142351384Y-104571912D01*
X142350724Y-104571339D01*
X142350065Y-104570718D01*
X142349406Y-104570044D01*
X142348743Y-104569316D01*
X142348072Y-104568530D01*
X142346775Y-104566909D01*
X142345584Y-104565287D01*
X142344487Y-104563663D01*
X142343471Y-104562037D01*
X142342525Y-104560406D01*
X142341637Y-104558771D01*
X142339985Y-104555481D01*
X142336844Y-104548790D01*
X142335163Y-104545371D01*
X142334252Y-104543640D01*
X142333279Y-104541892D01*
X142333137Y-104541671D01*
X142333005Y-104541448D01*
X142332884Y-104541224D01*
X142332773Y-104541001D01*
X142332670Y-104540780D01*
X142332577Y-104540563D01*
X142332490Y-104540350D01*
X142332411Y-104540143D01*
X142332272Y-104539753D01*
X142332153Y-104539404D01*
X142332049Y-104539107D01*
X142332001Y-104538981D01*
X142331955Y-104538872D01*
X142331422Y-104538872D01*
X142331422Y-104538339D01*
X142331955Y-104538339D01*
X142332042Y-104538373D01*
X142332049Y-104538348D01*
X142332020Y-104538285D01*
X142331825Y-104538007D01*
X142331394Y-104537465D01*
X142330665Y-104536590D01*
X142329575Y-104535310D01*
X142326061Y-104531250D01*
X142323566Y-104528444D01*
X142321018Y-104525694D01*
X142315767Y-104520283D01*
X142304684Y-104509229D01*
X142298871Y-104503253D01*
X142295901Y-104500079D01*
X142292892Y-104496755D01*
X142289842Y-104493258D01*
X142286755Y-104489569D01*
X142283632Y-104485665D01*
X142280473Y-104481528D01*
X142274945Y-104474027D01*
X142272502Y-104470624D01*
X142270267Y-104467438D01*
X142268236Y-104464456D01*
X142266403Y-104461668D01*
X142264764Y-104459062D01*
X142263314Y-104456625D01*
X142262049Y-104454347D01*
X142260964Y-104452216D01*
X142260055Y-104450220D01*
X142259316Y-104448348D01*
X142258744Y-104446588D01*
X142258333Y-104444929D01*
X142258079Y-104443359D01*
X142257977Y-104441866D01*
X142258268Y-104442504D01*
X142258273Y-104442403D01*
X142258289Y-104442296D01*
X142258313Y-104442184D01*
X142258344Y-104442069D01*
X142258382Y-104441950D01*
X142258424Y-104441829D01*
X142258516Y-104441583D01*
X142258611Y-104441336D01*
X142258697Y-104441095D01*
X142258734Y-104440979D01*
X142258764Y-104440866D01*
X142258787Y-104440758D01*
X142258801Y-104440655D01*
X142258875Y-104439914D01*
X142258990Y-104439179D01*
X142259142Y-104438449D01*
X142259333Y-104437724D01*
X142259559Y-104437003D01*
X142259821Y-104436285D01*
X142260445Y-104434855D01*
X142261197Y-104433429D01*
X142262067Y-104432001D01*
X142263048Y-104430565D01*
X142264130Y-104429117D01*
X142265304Y-104427649D01*
X142266562Y-104426157D01*
X142269292Y-104423076D01*
X142275369Y-104416367D01*
X142279971Y-104411123D01*
X142280728Y-104410284D01*
X142281407Y-104409573D01*
X142282047Y-104408958D01*
X142282687Y-104408411D01*
X142283367Y-104407898D01*
X142284125Y-104407391D01*
X142285002Y-104406858D01*
X142286036Y-104406269D01*
X142292536Y-104402737D01*
X142296651Y-104400428D01*
X142300220Y-104398357D01*
X142303467Y-104396511D01*
X142305039Y-104395670D01*
X142306616Y-104394882D01*
X142308223Y-104394145D01*
X142309891Y-104393457D01*
X142311646Y-104392818D01*
X142313517Y-104392226D01*
X142315531Y-104391680D01*
X142317718Y-104391178D01*
X142320104Y-104390720D01*
X142322718Y-104390303D01*
X142324772Y-104390054D01*
X142326822Y-104389873D01*
X142328857Y-104389754D01*
X142330867Y-104389695D01*
X142332842Y-104389690D01*
X142334772Y-104389737D01*
G37*
G36*
X141369378Y-103629496D02*
G01*
X141371177Y-103629642D01*
X141373026Y-103629890D01*
X141374854Y-103630233D01*
X141376659Y-103630666D01*
X141378440Y-103631183D01*
X141380196Y-103631779D01*
X141381926Y-103632450D01*
X141383629Y-103633188D01*
X141385303Y-103633991D01*
X141386947Y-103634851D01*
X141388561Y-103635765D01*
X141391690Y-103637729D01*
X141394681Y-103639843D01*
X141397524Y-103642063D01*
X141400210Y-103644349D01*
X141402728Y-103646657D01*
X141405070Y-103648947D01*
X141407226Y-103651176D01*
X141409186Y-103653302D01*
X141410940Y-103655284D01*
X141413794Y-103658645D01*
X141416549Y-103661826D01*
X141420008Y-103665562D01*
X141424176Y-103669785D01*
X141429059Y-103674432D01*
X141434661Y-103679436D01*
X141440986Y-103684733D01*
X141444422Y-103687470D01*
X141448041Y-103690256D01*
X141451843Y-103693082D01*
X141455830Y-103695941D01*
X141457854Y-103697341D01*
X141459849Y-103698663D01*
X141463746Y-103701084D01*
X141467511Y-103703234D01*
X141471137Y-103705143D01*
X141474615Y-103706842D01*
X141477938Y-103708359D01*
X141484084Y-103710974D01*
X141489510Y-103713227D01*
X141491933Y-103714293D01*
X141494152Y-103715360D01*
X141496158Y-103716457D01*
X141497943Y-103717614D01*
X141498751Y-103718224D01*
X141499500Y-103718861D01*
X141500190Y-103719528D01*
X141500820Y-103720229D01*
X141508549Y-103729416D01*
X141513868Y-103735813D01*
X141519495Y-103742724D01*
X141524933Y-103749636D01*
X141529686Y-103756033D01*
X141531651Y-103758877D01*
X141533259Y-103761399D01*
X141534446Y-103763535D01*
X141535153Y-103765220D01*
X141535153Y-103765753D01*
X141535686Y-103766286D01*
X141536879Y-103768315D01*
X141538491Y-103770720D01*
X141540466Y-103773446D01*
X141542743Y-103776440D01*
X141547973Y-103783014D01*
X141553712Y-103790012D01*
X141564845Y-103803561D01*
X141569301Y-103809250D01*
X141571046Y-103811635D01*
X141572392Y-103813642D01*
X141573729Y-103815606D01*
X141575327Y-103817660D01*
X141577165Y-103819814D01*
X141579221Y-103822072D01*
X141583905Y-103826931D01*
X141589209Y-103832291D01*
X141594964Y-103838205D01*
X141597957Y-103841387D01*
X141600999Y-103844728D01*
X141604069Y-103848234D01*
X141607146Y-103851912D01*
X141610207Y-103855769D01*
X141613233Y-103859812D01*
X141618820Y-103867634D01*
X141621307Y-103871221D01*
X141623593Y-103874603D01*
X141625680Y-103877786D01*
X141627572Y-103880778D01*
X141629272Y-103883586D01*
X141630781Y-103886218D01*
X141632102Y-103888682D01*
X141633239Y-103890985D01*
X141634193Y-103893134D01*
X141634968Y-103895137D01*
X141635566Y-103897002D01*
X141635990Y-103898736D01*
X141636242Y-103900345D01*
X141636305Y-103901106D01*
X141636326Y-103901839D01*
X141636543Y-103905653D01*
X141637082Y-103911044D01*
X141638453Y-103924775D01*
X141638948Y-103932224D01*
X141639075Y-103935900D01*
X141639092Y-103939469D01*
X141638979Y-103942875D01*
X141638715Y-103946063D01*
X141638279Y-103948977D01*
X141637650Y-103951562D01*
X141636873Y-103953899D01*
X141635992Y-103956130D01*
X141635028Y-103958268D01*
X141634002Y-103960330D01*
X141631850Y-103964286D01*
X141629707Y-103968120D01*
X141628692Y-103970031D01*
X141627743Y-103971957D01*
X141626882Y-103973915D01*
X141626130Y-103975920D01*
X141625507Y-103977987D01*
X141625252Y-103979048D01*
X141625036Y-103980131D01*
X141624864Y-103981238D01*
X141624738Y-103982369D01*
X141624661Y-103983528D01*
X141624634Y-103984715D01*
X141624577Y-103987205D01*
X141624410Y-103989855D01*
X141624141Y-103992637D01*
X141623777Y-103995520D01*
X141623325Y-103998475D01*
X141622791Y-104001473D01*
X141622184Y-104004485D01*
X141621509Y-104007480D01*
X141620775Y-104010430D01*
X141619988Y-104013305D01*
X141619156Y-104016076D01*
X141618284Y-104018712D01*
X141617382Y-104021186D01*
X141616455Y-104023467D01*
X141615511Y-104025525D01*
X141614557Y-104027332D01*
X141614031Y-104028176D01*
X141613413Y-104029026D01*
X141612710Y-104029881D01*
X141611928Y-104030739D01*
X141610150Y-104032464D01*
X141608128Y-104034193D01*
X141605911Y-104035921D01*
X141603548Y-104037639D01*
X141598578Y-104041020D01*
X141593607Y-104044282D01*
X141589027Y-104047367D01*
X141587005Y-104048825D01*
X141585228Y-104050219D01*
X141583742Y-104051541D01*
X141582598Y-104052783D01*
X141582066Y-104053316D01*
X141581533Y-104053849D01*
X141579768Y-104054933D01*
X141577537Y-104055992D01*
X141574909Y-104057025D01*
X141571955Y-104058032D01*
X141568744Y-104059013D01*
X141565347Y-104059968D01*
X141558274Y-104061799D01*
X141544975Y-104065143D01*
X141542235Y-104065913D01*
X141539870Y-104066655D01*
X141537949Y-104067371D01*
X141536542Y-104068060D01*
X141535181Y-104068738D01*
X141533522Y-104069367D01*
X141531601Y-104069947D01*
X141529453Y-104070479D01*
X141527115Y-104070963D01*
X141524625Y-104071401D01*
X141519327Y-104072140D01*
X141513851Y-104072704D01*
X141508487Y-104073098D01*
X141503524Y-104073329D01*
X141499254Y-104073405D01*
X141497221Y-104073342D01*
X141494980Y-104073158D01*
X141492561Y-104072860D01*
X141489993Y-104072453D01*
X141487307Y-104071946D01*
X141484532Y-104071343D01*
X141481698Y-104070652D01*
X141478834Y-104069880D01*
X141475970Y-104069032D01*
X141473136Y-104068116D01*
X141470361Y-104067138D01*
X141467674Y-104066105D01*
X141465107Y-104065023D01*
X141462688Y-104063899D01*
X141460447Y-104062740D01*
X141458414Y-104061552D01*
X141456589Y-104060386D01*
X141454934Y-104059274D01*
X141451976Y-104057177D01*
X141449227Y-104055201D01*
X141447832Y-104054238D01*
X141446373Y-104053283D01*
X141444808Y-104052328D01*
X141443100Y-104051365D01*
X141441208Y-104050386D01*
X141439095Y-104049384D01*
X141436720Y-104048351D01*
X141434044Y-104047280D01*
X141431028Y-104046162D01*
X141427634Y-104044991D01*
X141424022Y-104043738D01*
X141420401Y-104042393D01*
X141416791Y-104040979D01*
X141413214Y-104039516D01*
X141406237Y-104036533D01*
X141399636Y-104033615D01*
X141393575Y-104030936D01*
X141388219Y-104028666D01*
X141385858Y-104027740D01*
X141383735Y-104026980D01*
X141381870Y-104026409D01*
X141380285Y-104026048D01*
X141379752Y-104025516D01*
X141379219Y-104025516D01*
X141378340Y-104025149D01*
X141377391Y-104024693D01*
X141375308Y-104023535D01*
X141373013Y-104022085D01*
X141370550Y-104020388D01*
X141367963Y-104018485D01*
X141365295Y-104016422D01*
X141362589Y-104014241D01*
X141359889Y-104011986D01*
X141354680Y-104007428D01*
X141350015Y-104003098D01*
X141347995Y-104001127D01*
X141346242Y-103999343D01*
X141344798Y-103997790D01*
X141343708Y-103996512D01*
X141341321Y-103993668D01*
X141338177Y-103990098D01*
X141334510Y-103986066D01*
X141330553Y-103981832D01*
X141326537Y-103977658D01*
X141322695Y-103973806D01*
X141319260Y-103970538D01*
X141317768Y-103969204D01*
X141316465Y-103968114D01*
X141315932Y-103967581D01*
X141315399Y-103967048D01*
X141314417Y-103965775D01*
X141313527Y-103964279D01*
X141312720Y-103962574D01*
X141311990Y-103960669D01*
X141311328Y-103958576D01*
X141310729Y-103956305D01*
X141310183Y-103953867D01*
X141309684Y-103951273D01*
X141308798Y-103945661D01*
X141308012Y-103939554D01*
X141306501Y-103926208D01*
X141306188Y-103922619D01*
X141305988Y-103919277D01*
X141305886Y-103916166D01*
X141305870Y-103913268D01*
X141305928Y-103910566D01*
X141306047Y-103908043D01*
X141306215Y-103905682D01*
X141306418Y-103903466D01*
X141306882Y-103899401D01*
X141307339Y-103895712D01*
X141307533Y-103893965D01*
X141307687Y-103892261D01*
X141307788Y-103890582D01*
X141307825Y-103888912D01*
X141307878Y-103887223D01*
X141308022Y-103885496D01*
X141308500Y-103881845D01*
X141309090Y-103877794D01*
X141309624Y-103873176D01*
X141309817Y-103870602D01*
X141309933Y-103867824D01*
X141309950Y-103864820D01*
X141309849Y-103861571D01*
X141309606Y-103858055D01*
X141309202Y-103854251D01*
X141308616Y-103850139D01*
X141307825Y-103845698D01*
X141306937Y-103841347D01*
X141305963Y-103836978D01*
X141304915Y-103832622D01*
X141303803Y-103828310D01*
X141302639Y-103824072D01*
X141301432Y-103819941D01*
X141300196Y-103815946D01*
X141298939Y-103812118D01*
X141297674Y-103808489D01*
X141296411Y-103805090D01*
X141295162Y-103801950D01*
X141293936Y-103799103D01*
X141292746Y-103796577D01*
X141291602Y-103794405D01*
X141290515Y-103792617D01*
X141289496Y-103791244D01*
X141288963Y-103790711D01*
X141283894Y-103786913D01*
X141280598Y-103784267D01*
X141278804Y-103782743D01*
X141276930Y-103781081D01*
X141274989Y-103779276D01*
X141272993Y-103777324D01*
X141270954Y-103775221D01*
X141268886Y-103772965D01*
X141266801Y-103770549D01*
X141264713Y-103767971D01*
X141262632Y-103765227D01*
X141260574Y-103762313D01*
X141258610Y-103759549D01*
X141256797Y-103757205D01*
X141255131Y-103755206D01*
X141253609Y-103753479D01*
X141250980Y-103750541D01*
X141249865Y-103749180D01*
X141248880Y-103747793D01*
X141248019Y-103746305D01*
X141247279Y-103744640D01*
X141246953Y-103743719D01*
X141246656Y-103742726D01*
X141246146Y-103740487D01*
X141245746Y-103737849D01*
X141245453Y-103734737D01*
X141245261Y-103731076D01*
X141245168Y-103726794D01*
X141244522Y-103726721D01*
X141244473Y-103717698D01*
X141244644Y-103709088D01*
X141244859Y-103704925D01*
X141245186Y-103700852D01*
X141245643Y-103696862D01*
X141246249Y-103692953D01*
X141247024Y-103689118D01*
X141247985Y-103685353D01*
X141249152Y-103681653D01*
X141250544Y-103678015D01*
X141252179Y-103674432D01*
X141254076Y-103670901D01*
X141256255Y-103667417D01*
X141258733Y-103663974D01*
X141260036Y-103662352D01*
X141261313Y-103660897D01*
X141262566Y-103659600D01*
X141263798Y-103658453D01*
X141265012Y-103657449D01*
X141266211Y-103656579D01*
X141267397Y-103655834D01*
X141268573Y-103655207D01*
X141269741Y-103654688D01*
X141270905Y-103654271D01*
X141272066Y-103653946D01*
X141273229Y-103653706D01*
X141274394Y-103653541D01*
X141275566Y-103653445D01*
X141277938Y-103653422D01*
X141280366Y-103653572D01*
X141282872Y-103653828D01*
X141288205Y-103654394D01*
X141291074Y-103654573D01*
X141294107Y-103654594D01*
X141295692Y-103654524D01*
X141297326Y-103654390D01*
X141299012Y-103654184D01*
X141300752Y-103653897D01*
X141304046Y-103653320D01*
X141306894Y-103652926D01*
X141309360Y-103652684D01*
X141311503Y-103652564D01*
X141313386Y-103652537D01*
X141315069Y-103652572D01*
X141318086Y-103652709D01*
X141319541Y-103652751D01*
X141321044Y-103652736D01*
X141322655Y-103652632D01*
X141324436Y-103652411D01*
X141326448Y-103652042D01*
X141328753Y-103651495D01*
X141331412Y-103650740D01*
X141334487Y-103649747D01*
X141336080Y-103649151D01*
X141337574Y-103648500D01*
X141338975Y-103647801D01*
X141340291Y-103647058D01*
X141341528Y-103646276D01*
X141342693Y-103645462D01*
X141343795Y-103644619D01*
X141344839Y-103643753D01*
X141346784Y-103641975D01*
X141348585Y-103640167D01*
X141351984Y-103636630D01*
X141353695Y-103634985D01*
X141354578Y-103634211D01*
X141355489Y-103633477D01*
X141356435Y-103632787D01*
X141357423Y-103632148D01*
X141358460Y-103631563D01*
X141359554Y-103631039D01*
X141360710Y-103630581D01*
X141361938Y-103630193D01*
X141363242Y-103629881D01*
X141364632Y-103629650D01*
X141366113Y-103629505D01*
X141367693Y-103629452D01*
X141369378Y-103629496D01*
G37*
G36*
X143677257Y-104959123D02*
G01*
X143679452Y-104959369D01*
X143681760Y-104959760D01*
X143684205Y-104960292D01*
X143686811Y-104960958D01*
X143689600Y-104961754D01*
X143692596Y-104962676D01*
X143695557Y-104963625D01*
X143698252Y-104964577D01*
X143700707Y-104965546D01*
X143702948Y-104966545D01*
X143705002Y-104967588D01*
X143706894Y-104968687D01*
X143708653Y-104969857D01*
X143710303Y-104971110D01*
X143711871Y-104972461D01*
X143713384Y-104973923D01*
X143714868Y-104975510D01*
X143716350Y-104977234D01*
X143717855Y-104979109D01*
X143719410Y-104981149D01*
X143722778Y-104985777D01*
X143723373Y-104986633D01*
X143723908Y-104987477D01*
X143724387Y-104988308D01*
X143724813Y-104989127D01*
X143725187Y-104989935D01*
X143725512Y-104990730D01*
X143725792Y-104991515D01*
X143726029Y-104992288D01*
X143726226Y-104993050D01*
X143726385Y-104993802D01*
X143726509Y-104994544D01*
X143726600Y-104995276D01*
X143726698Y-104996711D01*
X143726698Y-104998110D01*
X143726623Y-104999475D01*
X143726494Y-105000808D01*
X143726162Y-105003388D01*
X143726001Y-105004639D01*
X143725872Y-105005867D01*
X143725797Y-105007075D01*
X143725798Y-105008264D01*
X143725805Y-105008324D01*
X143725809Y-105008407D01*
X143725809Y-105008627D01*
X143725791Y-105009191D01*
X143725782Y-105009486D01*
X143725777Y-105009755D01*
X143725781Y-105009972D01*
X143725788Y-105010054D01*
X143725798Y-105010113D01*
X143725801Y-105010140D01*
X143725811Y-105010174D01*
X143725849Y-105010256D01*
X143725909Y-105010358D01*
X143725986Y-105010476D01*
X143726079Y-105010606D01*
X143726183Y-105010746D01*
X143726411Y-105011041D01*
X143726860Y-105011604D01*
X143727028Y-105011821D01*
X143727086Y-105011903D01*
X143727122Y-105011962D01*
X143727763Y-105013095D01*
X143728118Y-105013684D01*
X143728309Y-105013983D01*
X143728511Y-105014283D01*
X143728724Y-105014585D01*
X143728952Y-105014888D01*
X143729194Y-105015192D01*
X143729452Y-105015496D01*
X143729728Y-105015799D01*
X143730023Y-105016101D01*
X143730338Y-105016402D01*
X143730675Y-105016702D01*
X143732989Y-105018549D01*
X143735384Y-105020253D01*
X143737848Y-105021811D01*
X143740372Y-105023218D01*
X143742944Y-105024469D01*
X143745556Y-105025562D01*
X143748195Y-105026490D01*
X143750853Y-105027251D01*
X143753518Y-105027839D01*
X143756180Y-105028251D01*
X143758829Y-105028483D01*
X143761455Y-105028529D01*
X143764047Y-105028386D01*
X143766594Y-105028049D01*
X143769087Y-105027515D01*
X143771515Y-105026779D01*
X143771692Y-105026723D01*
X143771883Y-105026656D01*
X143772084Y-105026579D01*
X143772293Y-105026495D01*
X143772727Y-105026309D01*
X143773164Y-105026110D01*
X143773965Y-105025729D01*
X143774535Y-105025455D01*
X143775068Y-105024921D01*
X143775601Y-105024389D01*
X143776134Y-105023856D01*
X143776134Y-105023323D01*
X143776667Y-105022790D01*
X143776667Y-105022257D01*
X143776667Y-105021724D01*
X143775478Y-105011919D01*
X143775521Y-105010472D01*
X143775593Y-105009732D01*
X143775704Y-105008981D01*
X143775858Y-105008221D01*
X143776057Y-105007450D01*
X143776307Y-105006669D01*
X143776610Y-105005879D01*
X143776970Y-105005079D01*
X143777391Y-105004270D01*
X143777876Y-105003452D01*
X143778430Y-105002626D01*
X143779055Y-105001791D01*
X143779756Y-105000947D01*
X143780536Y-105000096D01*
X143781398Y-104999237D01*
X143786599Y-104994300D01*
X143791748Y-104989612D01*
X143794337Y-104987402D01*
X143796953Y-104985301D01*
X143799610Y-104983325D01*
X143802321Y-104981491D01*
X143805100Y-104979814D01*
X143807959Y-104978309D01*
X143810913Y-104976993D01*
X143813975Y-104975880D01*
X143817158Y-104974988D01*
X143818799Y-104974629D01*
X143820475Y-104974331D01*
X143822189Y-104974095D01*
X143823941Y-104973925D01*
X143825734Y-104973821D01*
X143827568Y-104973786D01*
X143831049Y-104973876D01*
X143832625Y-104973988D01*
X143834101Y-104974147D01*
X143835482Y-104974352D01*
X143836776Y-104974604D01*
X143837988Y-104974904D01*
X143839125Y-104975251D01*
X143840194Y-104975647D01*
X143841201Y-104976092D01*
X143842152Y-104976586D01*
X143843054Y-104977129D01*
X143843914Y-104977724D01*
X143844737Y-104978369D01*
X143845530Y-104979065D01*
X143846301Y-104979814D01*
X143847797Y-104981468D01*
X143849278Y-104983335D01*
X143850794Y-104985420D01*
X143852398Y-104987725D01*
X143856075Y-104993015D01*
X143858252Y-104996008D01*
X143860722Y-104999237D01*
X143868999Y-105009506D01*
X143870501Y-105011435D01*
X143871843Y-105013273D01*
X143873059Y-105015102D01*
X143874182Y-105017007D01*
X143875244Y-105019068D01*
X143876281Y-105021368D01*
X143877324Y-105023990D01*
X143878408Y-105027017D01*
X143879565Y-105030531D01*
X143880830Y-105034613D01*
X143883814Y-105044817D01*
X143886766Y-105055684D01*
X143889002Y-105065196D01*
X143890683Y-105073895D01*
X143891964Y-105082323D01*
X143893003Y-105091020D01*
X143893959Y-105100528D01*
X143896249Y-105124140D01*
X143896957Y-105130876D01*
X143897552Y-105137218D01*
X143898045Y-105143180D01*
X143898445Y-105148780D01*
X143899000Y-105158953D01*
X143899291Y-105167863D01*
X143899391Y-105175637D01*
X143899372Y-105182399D01*
X143899269Y-105193395D01*
X143899479Y-105205456D01*
X143899591Y-105213079D01*
X143899576Y-105221515D01*
X143899334Y-105230580D01*
X143898765Y-105240089D01*
X143898327Y-105244951D01*
X143897770Y-105249855D01*
X143897082Y-105254777D01*
X143896249Y-105259694D01*
X143895397Y-105264298D01*
X143894714Y-105268336D01*
X143893678Y-105274946D01*
X143893239Y-105277632D01*
X143892795Y-105279982D01*
X143892302Y-105282053D01*
X143892024Y-105283002D01*
X143891717Y-105283902D01*
X143891377Y-105284762D01*
X143890997Y-105285587D01*
X143890572Y-105286385D01*
X143890097Y-105287164D01*
X143889566Y-105287930D01*
X143888974Y-105288691D01*
X143888316Y-105289454D01*
X143887586Y-105290226D01*
X143886778Y-105291013D01*
X143885887Y-105291824D01*
X143883836Y-105293545D01*
X143881389Y-105295444D01*
X143878501Y-105297579D01*
X143875469Y-105299745D01*
X143872571Y-105301654D01*
X143869778Y-105303319D01*
X143867063Y-105304752D01*
X143864395Y-105305964D01*
X143861747Y-105306969D01*
X143859088Y-105307777D01*
X143856392Y-105308402D01*
X143853627Y-105308855D01*
X143850766Y-105309149D01*
X143847780Y-105309296D01*
X143844639Y-105309308D01*
X143841316Y-105309196D01*
X143837780Y-105308974D01*
X143829958Y-105308246D01*
X143826067Y-105307795D01*
X143822712Y-105307338D01*
X143819817Y-105306853D01*
X143817304Y-105306316D01*
X143815098Y-105305705D01*
X143813121Y-105304996D01*
X143811297Y-105304167D01*
X143809550Y-105303194D01*
X143807802Y-105302055D01*
X143805977Y-105300727D01*
X143801789Y-105297412D01*
X143796374Y-105293065D01*
X143793014Y-105290447D01*
X143789117Y-105287502D01*
X143787101Y-105285961D01*
X143785231Y-105284446D01*
X143783494Y-105282956D01*
X143781880Y-105281488D01*
X143778975Y-105278613D01*
X143776425Y-105275803D01*
X143774139Y-105273044D01*
X143772028Y-105270318D01*
X143767964Y-105264902D01*
X143765832Y-105262179D01*
X143763511Y-105259426D01*
X143760912Y-105256624D01*
X143757944Y-105253759D01*
X143756294Y-105252297D01*
X143754517Y-105250813D01*
X143752603Y-105249305D01*
X143750540Y-105247771D01*
X143748317Y-105246209D01*
X143745922Y-105244616D01*
X143743345Y-105242992D01*
X143740574Y-105241333D01*
X143734968Y-105238242D01*
X143729620Y-105235618D01*
X143724504Y-105233402D01*
X143719590Y-105231539D01*
X143714853Y-105229971D01*
X143710265Y-105228641D01*
X143705799Y-105227492D01*
X143701427Y-105226467D01*
X143692858Y-105224560D01*
X143688605Y-105223564D01*
X143684339Y-105222465D01*
X143680030Y-105221204D01*
X143675652Y-105219724D01*
X143671178Y-105217969D01*
X143666580Y-105215882D01*
X143665577Y-105215405D01*
X143664606Y-105214960D01*
X143662757Y-105214165D01*
X143661030Y-105213487D01*
X143659419Y-105212917D01*
X143657920Y-105212446D01*
X143656530Y-105212065D01*
X143655243Y-105211765D01*
X143654056Y-105211535D01*
X143652965Y-105211367D01*
X143651964Y-105211252D01*
X143651051Y-105211180D01*
X143650220Y-105211141D01*
X143648789Y-105211130D01*
X143647637Y-105211142D01*
X143647104Y-105211142D01*
X143646571Y-105210609D01*
X143646038Y-105210609D01*
X143646038Y-105210077D01*
X143645505Y-105209544D01*
X143645505Y-105209011D01*
X143645150Y-105208063D01*
X143644766Y-105206868D01*
X143644345Y-105205400D01*
X143643878Y-105203631D01*
X143642767Y-105199089D01*
X143641355Y-105193031D01*
X143640887Y-105190334D01*
X143640466Y-105187711D01*
X143640093Y-105185151D01*
X143639769Y-105182643D01*
X143639494Y-105180177D01*
X143639271Y-105177742D01*
X143639099Y-105175329D01*
X143638981Y-105172926D01*
X143638917Y-105172038D01*
X143638759Y-105164864D01*
X143638906Y-105157567D01*
X143639765Y-105141665D01*
X143640793Y-105122449D01*
X143641152Y-105111009D01*
X143641291Y-105098036D01*
X143641134Y-105080889D01*
X143640755Y-105065972D01*
X143639861Y-105040848D01*
X143639616Y-105029655D01*
X143639683Y-105018716D01*
X143639875Y-105013188D01*
X143640196Y-105007538D01*
X143640663Y-105001705D01*
X143641291Y-104995627D01*
X143641925Y-104990574D01*
X143642502Y-104986242D01*
X143643035Y-104982571D01*
X143643535Y-104979500D01*
X143643776Y-104978169D01*
X143644014Y-104976966D01*
X143644249Y-104975882D01*
X143644483Y-104974909D01*
X143644718Y-104974039D01*
X143644955Y-104973266D01*
X143645195Y-104972581D01*
X143645441Y-104971977D01*
X143645441Y-104971444D01*
X143645974Y-104970912D01*
X143646507Y-104970379D01*
X143647039Y-104969846D01*
X143647338Y-104969599D01*
X143647675Y-104969388D01*
X143648051Y-104969203D01*
X143648466Y-104969037D01*
X143649413Y-104968732D01*
X143650516Y-104968409D01*
X143651774Y-104968007D01*
X143652462Y-104967756D01*
X143653189Y-104967462D01*
X143653955Y-104967117D01*
X143654760Y-104966713D01*
X143655604Y-104966241D01*
X143656487Y-104965695D01*
X143658815Y-104964225D01*
X143661026Y-104962949D01*
X143663143Y-104961861D01*
X143665188Y-104960958D01*
X143667185Y-104960233D01*
X143669157Y-104959682D01*
X143671127Y-104959301D01*
X143673118Y-104959084D01*
X143675154Y-104959026D01*
X143677257Y-104959123D01*
G37*
G36*
X143445876Y-104532751D02*
G01*
X143446685Y-104532829D01*
X143447509Y-104532961D01*
X143448349Y-104533146D01*
X143449209Y-104533385D01*
X143450090Y-104533680D01*
X143450996Y-104534029D01*
X143451928Y-104534435D01*
X143452890Y-104534897D01*
X143453883Y-104535417D01*
X143454871Y-104535996D01*
X143455817Y-104536634D01*
X143456722Y-104537327D01*
X143457586Y-104538071D01*
X143458410Y-104538865D01*
X143459194Y-104539705D01*
X143459940Y-104540589D01*
X143460647Y-104541512D01*
X143461952Y-104543467D01*
X143463113Y-104545548D01*
X143464136Y-104547729D01*
X143465028Y-104549988D01*
X143465793Y-104552300D01*
X143466437Y-104554642D01*
X143466967Y-104556990D01*
X143467388Y-104559319D01*
X143467705Y-104561607D01*
X143467925Y-104563829D01*
X143468053Y-104565962D01*
X143468094Y-104567981D01*
X143467996Y-104572505D01*
X143467725Y-104578034D01*
X143467319Y-104584235D01*
X143466814Y-104590771D01*
X143465655Y-104603507D01*
X143464541Y-104613561D01*
X143464125Y-104618327D01*
X143463713Y-104624886D01*
X143462835Y-104640923D01*
X143462335Y-104649169D01*
X143461773Y-104656745D01*
X143461130Y-104663036D01*
X143460773Y-104665507D01*
X143460391Y-104667426D01*
X143460391Y-104667959D01*
X143459208Y-104670392D01*
X143457755Y-104673689D01*
X143456103Y-104677705D01*
X143454325Y-104682294D01*
X143452491Y-104687311D01*
X143450673Y-104692611D01*
X143448944Y-104698048D01*
X143447375Y-104703478D01*
X143444355Y-104728929D01*
X143443822Y-104729461D01*
X143443767Y-104729522D01*
X143443699Y-104729605D01*
X143443533Y-104729825D01*
X143443340Y-104730096D01*
X143443136Y-104730392D01*
X143442750Y-104730956D01*
X143442600Y-104731172D01*
X143442498Y-104731311D01*
X143441965Y-104731843D01*
X143441432Y-104732376D01*
X143441369Y-104732433D01*
X143441283Y-104732503D01*
X143441060Y-104732672D01*
X143440788Y-104732868D01*
X143440491Y-104733075D01*
X143439575Y-104733701D01*
X143439362Y-104733766D01*
X143439141Y-104733822D01*
X143438914Y-104733870D01*
X143438679Y-104733910D01*
X143438189Y-104733972D01*
X143437675Y-104734019D01*
X143436584Y-104734102D01*
X143436011Y-104734157D01*
X143435720Y-104734192D01*
X143435424Y-104734234D01*
X143429853Y-104735163D01*
X143424833Y-104735881D01*
X143420304Y-104736413D01*
X143416203Y-104736788D01*
X143412471Y-104737032D01*
X143409045Y-104737173D01*
X143405865Y-104737238D01*
X143402868Y-104737253D01*
X143402336Y-104737253D01*
X143401803Y-104737253D01*
X143401022Y-104737406D01*
X143400210Y-104737611D01*
X143399370Y-104737861D01*
X143398506Y-104738148D01*
X143396719Y-104738799D01*
X143394879Y-104739495D01*
X143393016Y-104740171D01*
X143392086Y-104740480D01*
X143391161Y-104740759D01*
X143390245Y-104740999D01*
X143389343Y-104741192D01*
X143388457Y-104741330D01*
X143387591Y-104741404D01*
X143387528Y-104741398D01*
X143387443Y-104741382D01*
X143387339Y-104741357D01*
X143387220Y-104741325D01*
X143386947Y-104741243D01*
X143386651Y-104741149D01*
X143386088Y-104740968D01*
X143385873Y-104740903D01*
X143385792Y-104740882D01*
X143385735Y-104740871D01*
X143385201Y-104740871D01*
X143385138Y-104740866D01*
X143385053Y-104740853D01*
X143384829Y-104740806D01*
X143384557Y-104740736D01*
X143384261Y-104740653D01*
X143383966Y-104740563D01*
X143383698Y-104740476D01*
X143383482Y-104740398D01*
X143383402Y-104740365D01*
X143383344Y-104740338D01*
X143383281Y-104740281D01*
X143383196Y-104740213D01*
X143382972Y-104740047D01*
X143382700Y-104739855D01*
X143382404Y-104739651D01*
X143381841Y-104739268D01*
X143381625Y-104739118D01*
X143381487Y-104739014D01*
X143381185Y-104738739D01*
X143380885Y-104738438D01*
X143380587Y-104738113D01*
X143380289Y-104737763D01*
X143379993Y-104737390D01*
X143379698Y-104736993D01*
X143379403Y-104736575D01*
X143379109Y-104736135D01*
X143378523Y-104735194D01*
X143377936Y-104734174D01*
X143377347Y-104733083D01*
X143376756Y-104731924D01*
X143375568Y-104729410D01*
X143374388Y-104727025D01*
X143373223Y-104724761D01*
X143372080Y-104722611D01*
X143367864Y-104714997D01*
X143366063Y-104711675D01*
X143365264Y-104710109D01*
X143364540Y-104708596D01*
X143363900Y-104707128D01*
X143363349Y-104705698D01*
X143362895Y-104704298D01*
X143362545Y-104702921D01*
X143362690Y-104702953D01*
X143362611Y-104702338D01*
X143362554Y-104701757D01*
X143362520Y-104701196D01*
X143362508Y-104700641D01*
X143362520Y-104700079D01*
X143362554Y-104699496D01*
X143362611Y-104698878D01*
X143362690Y-104698213D01*
X143364212Y-104685224D01*
X143364783Y-104681418D01*
X143365565Y-104677014D01*
X143366627Y-104671823D01*
X143368035Y-104665657D01*
X143370448Y-104655066D01*
X143371350Y-104651179D01*
X143372285Y-104647590D01*
X143373429Y-104643817D01*
X143374959Y-104639379D01*
X143377054Y-104633796D01*
X143379889Y-104626585D01*
X143382936Y-104619072D01*
X143385602Y-104612675D01*
X143388054Y-104607041D01*
X143390460Y-104601821D01*
X143392988Y-104596663D01*
X143395805Y-104591215D01*
X143399081Y-104585128D01*
X143402981Y-104578050D01*
X143404976Y-104574408D01*
X143406705Y-104571151D01*
X143409528Y-104565636D01*
X143411770Y-104561197D01*
X143412773Y-104559284D01*
X143413751Y-104557523D01*
X143414744Y-104555877D01*
X143415792Y-104554307D01*
X143416935Y-104552773D01*
X143418213Y-104551238D01*
X143419666Y-104549662D01*
X143421334Y-104548007D01*
X143423258Y-104546235D01*
X143425477Y-104544307D01*
X143429900Y-104540601D01*
X143431889Y-104538997D01*
X143433756Y-104537565D01*
X143435520Y-104536309D01*
X143437203Y-104535233D01*
X143438019Y-104534764D01*
X143438823Y-104534343D01*
X143439616Y-104533968D01*
X143440401Y-104533642D01*
X143441180Y-104533365D01*
X143441956Y-104533136D01*
X143442731Y-104532957D01*
X143443508Y-104532829D01*
X143444290Y-104532751D01*
X143445078Y-104532725D01*
X143445876Y-104532751D01*
G37*
G36*
X144818962Y-100751396D02*
G01*
X144830822Y-100752564D01*
X144842617Y-100754511D01*
X144854309Y-100757238D01*
X144865857Y-100760743D01*
X144877224Y-100765027D01*
X144888370Y-100770090D01*
X144899256Y-100775932D01*
X144909533Y-100782478D01*
X144919294Y-100789634D01*
X144928519Y-100797367D01*
X144937188Y-100805643D01*
X144945280Y-100814429D01*
X144952775Y-100823691D01*
X144959653Y-100833396D01*
X144965892Y-100843510D01*
X144971474Y-100854001D01*
X144976378Y-100864834D01*
X144980583Y-100875977D01*
X144984069Y-100887395D01*
X144986815Y-100899056D01*
X144988803Y-100910926D01*
X144990010Y-100922972D01*
X144990417Y-100935160D01*
X144990417Y-107440092D01*
X144990318Y-107446202D01*
X144990022Y-107452280D01*
X144989532Y-107458323D01*
X144988850Y-107464326D01*
X144987976Y-107470285D01*
X144986914Y-107476196D01*
X144985664Y-107482055D01*
X144984230Y-107487857D01*
X144982613Y-107493599D01*
X144980814Y-107499276D01*
X144978836Y-107504884D01*
X144976680Y-107510418D01*
X144974349Y-107515876D01*
X144971845Y-107521252D01*
X144969169Y-107526543D01*
X144966323Y-107531743D01*
X144963309Y-107536850D01*
X144960129Y-107541858D01*
X144956785Y-107546764D01*
X144953279Y-107551564D01*
X144949613Y-107556252D01*
X144945788Y-107560826D01*
X144941807Y-107565281D01*
X144937672Y-107569613D01*
X144933384Y-107573817D01*
X144928945Y-107577890D01*
X144924358Y-107581826D01*
X144919624Y-107585623D01*
X144914744Y-107589276D01*
X144909722Y-107592781D01*
X144904559Y-107596133D01*
X144899256Y-107599328D01*
X144888572Y-107605170D01*
X144877600Y-107610233D01*
X144866381Y-107614517D01*
X144854954Y-107618023D01*
X144843356Y-107620749D01*
X144831628Y-107622696D01*
X144819809Y-107623865D01*
X144807936Y-107624254D01*
X144796051Y-107623865D01*
X144784191Y-107622696D01*
X144772396Y-107620749D01*
X144760704Y-107618023D01*
X144749155Y-107614517D01*
X144737788Y-107610233D01*
X144726642Y-107605170D01*
X144715756Y-107599328D01*
X144497892Y-107473559D01*
X142542434Y-106344709D01*
X142164798Y-106126706D01*
X141164765Y-105549405D01*
X142226035Y-105549405D01*
X142542004Y-105732307D01*
X142542055Y-105732301D01*
X142542101Y-105732297D01*
X142542143Y-105732295D01*
X142542180Y-105732295D01*
X142542214Y-105732296D01*
X142542245Y-105732298D01*
X142542273Y-105732301D01*
X142542300Y-105732304D01*
X142542352Y-105732311D01*
X142542379Y-105732313D01*
X142542406Y-105732315D01*
X142542434Y-105732316D01*
X142542465Y-105732315D01*
X142542499Y-105732312D01*
X142542537Y-105732307D01*
X142764699Y-105695716D01*
X142974664Y-105662455D01*
X142976148Y-105617006D01*
X142976779Y-105588280D01*
X142977038Y-105557084D01*
X142977256Y-105537708D01*
X142977795Y-105520098D01*
X142979166Y-105489347D01*
X142979661Y-105475788D01*
X142979804Y-105463162D01*
X142979692Y-105457134D01*
X142979428Y-105451261D01*
X142978992Y-105445517D01*
X142978363Y-105439875D01*
X142832175Y-105425268D01*
X142669951Y-105408498D01*
X142671970Y-105409950D01*
X142672218Y-105410142D01*
X142672457Y-105410336D01*
X142672681Y-105410531D01*
X142672890Y-105410727D01*
X142673079Y-105410924D01*
X142673247Y-105411121D01*
X142673321Y-105411220D01*
X142673389Y-105411319D01*
X142673450Y-105411418D01*
X142673504Y-105411518D01*
X142674037Y-105412051D01*
X142674037Y-105412584D01*
X142674570Y-105413116D01*
X142674570Y-105413649D01*
X142674570Y-105414182D01*
X142674570Y-105414715D01*
X142674570Y-105415248D01*
X142674570Y-105415781D01*
X142674037Y-105416314D01*
X142674037Y-105416847D01*
X142673504Y-105417380D01*
X142672900Y-105418245D01*
X142672177Y-105419111D01*
X142671342Y-105419979D01*
X142670406Y-105420852D01*
X142668268Y-105422619D01*
X142665835Y-105424426D01*
X142660389Y-105428220D01*
X142657524Y-105430238D01*
X142654664Y-105432355D01*
X142651885Y-105434587D01*
X142650549Y-105435751D01*
X142649260Y-105436949D01*
X142648029Y-105438183D01*
X142646865Y-105439455D01*
X142645777Y-105440767D01*
X142644774Y-105442121D01*
X142643866Y-105443518D01*
X142643063Y-105444961D01*
X142642372Y-105446451D01*
X142641804Y-105447990D01*
X142641369Y-105449580D01*
X142641075Y-105451223D01*
X142640931Y-105452921D01*
X142640948Y-105454676D01*
X142641037Y-105457908D01*
X142641022Y-105461131D01*
X142640911Y-105464339D01*
X142640708Y-105467526D01*
X142640420Y-105470688D01*
X142640054Y-105473820D01*
X142639108Y-105479973D01*
X142637919Y-105485944D01*
X142636535Y-105491693D01*
X142635005Y-105497179D01*
X142633376Y-105502362D01*
X142631698Y-105507202D01*
X142630018Y-105511658D01*
X142628385Y-105515690D01*
X142626848Y-105519258D01*
X142624252Y-105524837D01*
X142622619Y-105528072D01*
X142620699Y-105531312D01*
X142617301Y-105536662D01*
X142607970Y-105550962D01*
X142598418Y-105565510D01*
X142592437Y-105574839D01*
X142591530Y-105576223D01*
X142590296Y-105577898D01*
X142588766Y-105579820D01*
X142586972Y-105581945D01*
X142584945Y-105584231D01*
X142582718Y-105586632D01*
X142580321Y-105589106D01*
X142577786Y-105591608D01*
X142575144Y-105594095D01*
X142572428Y-105596523D01*
X142569669Y-105598848D01*
X142566898Y-105601026D01*
X142564146Y-105603013D01*
X142561447Y-105604767D01*
X142558830Y-105606242D01*
X142556328Y-105607396D01*
X142553575Y-105608325D01*
X142550264Y-105609163D01*
X142546479Y-105609919D01*
X142542307Y-105610601D01*
X142533151Y-105611781D01*
X142523485Y-105612773D01*
X142505395Y-105614479D01*
X142498355Y-105615334D01*
X142495638Y-105615793D01*
X142493573Y-105616286D01*
X142489194Y-105617478D01*
X142483120Y-105618833D01*
X142475683Y-105620154D01*
X142471557Y-105620739D01*
X142467214Y-105621241D01*
X142462696Y-105621636D01*
X142458044Y-105621898D01*
X142453300Y-105622003D01*
X142448504Y-105621927D01*
X142443699Y-105621643D01*
X142438926Y-105621128D01*
X142434226Y-105620357D01*
X142429640Y-105619305D01*
X142427477Y-105618697D01*
X142425497Y-105618092D01*
X142423691Y-105617488D01*
X142422046Y-105616883D01*
X142420552Y-105616274D01*
X142419198Y-105615660D01*
X142417973Y-105615038D01*
X142416866Y-105614406D01*
X142415865Y-105613761D01*
X142414961Y-105613102D01*
X142414142Y-105612425D01*
X142413396Y-105611730D01*
X142412713Y-105611013D01*
X142412083Y-105610272D01*
X142410933Y-105608710D01*
X142406215Y-105601061D01*
X142404566Y-105598708D01*
X142403610Y-105597453D01*
X142402553Y-105596142D01*
X142401382Y-105594774D01*
X142400088Y-105593346D01*
X142398659Y-105591856D01*
X142397084Y-105590302D01*
X142393977Y-105587234D01*
X142391213Y-105584370D01*
X142388739Y-105581685D01*
X142386502Y-105579153D01*
X142382532Y-105574444D01*
X142378886Y-105570033D01*
X142377054Y-105567875D01*
X142375147Y-105565714D01*
X142373112Y-105563524D01*
X142370897Y-105561279D01*
X142368451Y-105558953D01*
X142365720Y-105556520D01*
X142362654Y-105553955D01*
X142359198Y-105551230D01*
X142355581Y-105548524D01*
X142352068Y-105546031D01*
X142348670Y-105543745D01*
X142345394Y-105541660D01*
X142342250Y-105539771D01*
X142339246Y-105538074D01*
X142336393Y-105536563D01*
X142333699Y-105535232D01*
X142331173Y-105534078D01*
X142328824Y-105533094D01*
X142326661Y-105532276D01*
X142324694Y-105531618D01*
X142322930Y-105531115D01*
X142321380Y-105530763D01*
X142320052Y-105530555D01*
X142318955Y-105530487D01*
X142314597Y-105530992D01*
X142306297Y-105532334D01*
X142283044Y-105536498D01*
X142246140Y-105543503D01*
X142244668Y-105543825D01*
X142242785Y-105544335D01*
X142238013Y-105545779D01*
X142232278Y-105547560D01*
X142229192Y-105548491D01*
X142226035Y-105549405D01*
X141164765Y-105549405D01*
X140758708Y-105314996D01*
X141821134Y-105314996D01*
X142164798Y-105513546D01*
X142164770Y-105510945D01*
X142164898Y-105508385D01*
X142165157Y-105505865D01*
X142165521Y-105503382D01*
X142165967Y-105500935D01*
X142166467Y-105498520D01*
X142167533Y-105493780D01*
X142168516Y-105489143D01*
X142168914Y-105486857D01*
X142169215Y-105484590D01*
X142169394Y-105482339D01*
X142169426Y-105480102D01*
X142169286Y-105477877D01*
X142169143Y-105476768D01*
X142168948Y-105475661D01*
X142168603Y-105474276D01*
X142168425Y-105473618D01*
X142168245Y-105472983D01*
X142168062Y-105472371D01*
X142167876Y-105471784D01*
X142167689Y-105471223D01*
X142167499Y-105470686D01*
X142167307Y-105470176D01*
X142167114Y-105469692D01*
X142166919Y-105469235D01*
X142166723Y-105468806D01*
X142166525Y-105468405D01*
X142166327Y-105468033D01*
X142166128Y-105467690D01*
X142165928Y-105467377D01*
X142165396Y-105466844D01*
X142165396Y-105466311D01*
X142164863Y-105465778D01*
X142164330Y-105465778D01*
X142163797Y-105465245D01*
X142163264Y-105465245D01*
X142162731Y-105465245D01*
X142162025Y-105465220D01*
X142161234Y-105465223D01*
X142159503Y-105465272D01*
X142158616Y-105465297D01*
X142157751Y-105465307D01*
X142156933Y-105465294D01*
X142156551Y-105465274D01*
X142156191Y-105465245D01*
X142155155Y-105464954D01*
X142154023Y-105464525D01*
X142152825Y-105463939D01*
X142151588Y-105463178D01*
X142150343Y-105462224D01*
X142149118Y-105461059D01*
X142147941Y-105459666D01*
X142146842Y-105458026D01*
X142145851Y-105456122D01*
X142145404Y-105455065D01*
X142144995Y-105453935D01*
X142144627Y-105452730D01*
X142144304Y-105451448D01*
X142144030Y-105450086D01*
X142143807Y-105448642D01*
X142143640Y-105447114D01*
X142143533Y-105445500D01*
X142143489Y-105443797D01*
X142143511Y-105442004D01*
X142143603Y-105440117D01*
X142143769Y-105438135D01*
X142144013Y-105436055D01*
X142144337Y-105433876D01*
X142145205Y-105429495D01*
X142146321Y-105425260D01*
X142147658Y-105421152D01*
X142149184Y-105417152D01*
X142150871Y-105413240D01*
X142152689Y-105409397D01*
X142156598Y-105401841D01*
X142160676Y-105394332D01*
X142164685Y-105386714D01*
X142166589Y-105382817D01*
X142168388Y-105378835D01*
X142170051Y-105374749D01*
X142171548Y-105370540D01*
X142171554Y-105370479D01*
X142171569Y-105370396D01*
X142171593Y-105370293D01*
X142171625Y-105370175D01*
X142171704Y-105369903D01*
X142171796Y-105369606D01*
X142171977Y-105369042D01*
X142172044Y-105368827D01*
X142172081Y-105368691D01*
X142172081Y-105368158D01*
X142172081Y-105367625D01*
X142172081Y-105367092D01*
X142172076Y-105367031D01*
X142172062Y-105366948D01*
X142172009Y-105366726D01*
X142171934Y-105366453D01*
X142171845Y-105366156D01*
X142171666Y-105365591D01*
X142171548Y-105365243D01*
X142171015Y-105364710D01*
X142170412Y-105363734D01*
X142169681Y-105362781D01*
X142168828Y-105361851D01*
X142167861Y-105360943D01*
X142166790Y-105360056D01*
X142165620Y-105359192D01*
X142164361Y-105358349D01*
X142163020Y-105357527D01*
X142161604Y-105356726D01*
X142160121Y-105355947D01*
X142158580Y-105355188D01*
X142156988Y-105354449D01*
X142153681Y-105353032D01*
X142150264Y-105351694D01*
X141821134Y-105314996D01*
X140758708Y-105314996D01*
X139082170Y-104347161D01*
X139071886Y-104340613D01*
X139062107Y-104333456D01*
X139052853Y-104325722D01*
X139044147Y-104317445D01*
X139036011Y-104308659D01*
X139028467Y-104299396D01*
X139021537Y-104289691D01*
X139015243Y-104279576D01*
X139009607Y-104269085D01*
X139004651Y-104258251D01*
X139000397Y-104247108D01*
X138996867Y-104235690D01*
X138994083Y-104224029D01*
X138992067Y-104212159D01*
X138990841Y-104200113D01*
X138990428Y-104187925D01*
X139868879Y-104187925D01*
X141285362Y-105006617D01*
X142412639Y-105250860D01*
X142917925Y-105363280D01*
X143254783Y-105442289D01*
X143270074Y-105445356D01*
X143284253Y-105448316D01*
X143297139Y-105451124D01*
X143308553Y-105453732D01*
X143318314Y-105456094D01*
X143326243Y-105458162D01*
X143332159Y-105459890D01*
X143334306Y-105460613D01*
X143335883Y-105461232D01*
X143335883Y-105461765D01*
X143336416Y-105461765D01*
X143336412Y-105461887D01*
X143336403Y-105462013D01*
X143336367Y-105462282D01*
X143336311Y-105462581D01*
X143336240Y-105462918D01*
X143336068Y-105463732D01*
X143335975Y-105464225D01*
X143335883Y-105464785D01*
X143336416Y-105465318D01*
X143335883Y-105465851D01*
X143335350Y-105465851D01*
X143323585Y-105511763D01*
X143316274Y-105539221D01*
X143313082Y-105550695D01*
X143310513Y-105559377D01*
X143309956Y-105561381D01*
X143309503Y-105563476D01*
X143309143Y-105565654D01*
X143308866Y-105567903D01*
X143308515Y-105572577D01*
X143308361Y-105577421D01*
X143308290Y-105587294D01*
X143308198Y-105592166D01*
X143307949Y-105596889D01*
X143307457Y-105601383D01*
X143307091Y-105603519D01*
X143306632Y-105605568D01*
X143306067Y-105607520D01*
X143305386Y-105609366D01*
X143304578Y-105611094D01*
X143303632Y-105612696D01*
X143302536Y-105614162D01*
X143301281Y-105615480D01*
X143299853Y-105616642D01*
X143298244Y-105617638D01*
X143296441Y-105618457D01*
X143294434Y-105619090D01*
X143292211Y-105619527D01*
X143289762Y-105619758D01*
X143288789Y-105619771D01*
X143287642Y-105619816D01*
X143286324Y-105619898D01*
X143284840Y-105620023D01*
X143283195Y-105620198D01*
X143281391Y-105620429D01*
X143279434Y-105620721D01*
X143277327Y-105621082D01*
X143283715Y-105620662D01*
X143289529Y-105620386D01*
X143294746Y-105620253D01*
X143297123Y-105620238D01*
X143299342Y-105620258D01*
X143301400Y-105620312D01*
X143303295Y-105620400D01*
X143305023Y-105620521D01*
X143306581Y-105620675D01*
X143307967Y-105620862D01*
X143309178Y-105621081D01*
X143310210Y-105621332D01*
X143311062Y-105621615D01*
X143311595Y-105621615D01*
X143311595Y-105622148D01*
X143312128Y-105622148D01*
X143312128Y-105622680D01*
X143311595Y-105623214D01*
X143311062Y-105623746D01*
X143304340Y-105627222D01*
X143290372Y-105632222D01*
X143242939Y-105646301D01*
X143085755Y-105687311D01*
X142875330Y-105738864D01*
X142647488Y-105793043D01*
X142822106Y-105893675D01*
X142982779Y-105818277D01*
X143131700Y-105749060D01*
X143243179Y-105698431D01*
X143276848Y-105683965D01*
X143286760Y-105680122D01*
X143291522Y-105678798D01*
X143292339Y-105683409D01*
X143292720Y-105688138D01*
X143292675Y-105692980D01*
X143292213Y-105697932D01*
X143291343Y-105702991D01*
X143290073Y-105708153D01*
X143288412Y-105713415D01*
X143286369Y-105718772D01*
X143281174Y-105729762D01*
X143274559Y-105741093D01*
X143266594Y-105752738D01*
X143257351Y-105764670D01*
X143246900Y-105776859D01*
X143235313Y-105789277D01*
X143222661Y-105801897D01*
X143209014Y-105814691D01*
X143194444Y-105827630D01*
X143179023Y-105840686D01*
X143162820Y-105853831D01*
X143145907Y-105867037D01*
X143146236Y-105869692D01*
X143146636Y-105872438D01*
X143146891Y-105873835D01*
X143147195Y-105875242D01*
X143147560Y-105876655D01*
X143147997Y-105878069D01*
X143148516Y-105879481D01*
X143149128Y-105880887D01*
X143149844Y-105882281D01*
X143150674Y-105883661D01*
X143151630Y-105885021D01*
X143152158Y-105885692D01*
X143152721Y-105886357D01*
X143153321Y-105887016D01*
X143153959Y-105887666D01*
X143154636Y-105888309D01*
X143155355Y-105888943D01*
X143158845Y-105891995D01*
X143162213Y-105895064D01*
X143165447Y-105898131D01*
X143168536Y-105901177D01*
X143171469Y-105904183D01*
X143174234Y-105907130D01*
X143176822Y-105909999D01*
X143179221Y-105912772D01*
X143181419Y-105915429D01*
X143183407Y-105917951D01*
X143185172Y-105920320D01*
X143186705Y-105922516D01*
X143187993Y-105924520D01*
X143189027Y-105926314D01*
X143189794Y-105927878D01*
X143190284Y-105929194D01*
X143190284Y-105929727D01*
X143190817Y-105930260D01*
X143191045Y-105931455D01*
X143191394Y-105932806D01*
X143192382Y-105935907D01*
X143194990Y-105943198D01*
X143196309Y-105947098D01*
X143196906Y-105949049D01*
X143197437Y-105950976D01*
X143197883Y-105952861D01*
X143198224Y-105954686D01*
X143198443Y-105956434D01*
X143198520Y-105958085D01*
X143198671Y-105965011D01*
X143198669Y-105966798D01*
X143198609Y-105968621D01*
X143198471Y-105970491D01*
X143198234Y-105972413D01*
X143197877Y-105974396D01*
X143197379Y-105976448D01*
X143196719Y-105978577D01*
X143195877Y-105980790D01*
X143194832Y-105983095D01*
X143193563Y-105985500D01*
X143192048Y-105988013D01*
X143190269Y-105990641D01*
X143188377Y-105993197D01*
X143186496Y-105995505D01*
X143184619Y-105997590D01*
X143182740Y-105999475D01*
X143180852Y-106001185D01*
X143178950Y-106002745D01*
X143177026Y-106004180D01*
X143175074Y-106005513D01*
X143173089Y-106006770D01*
X143171063Y-106007975D01*
X143166866Y-106010327D01*
X143162433Y-106012765D01*
X143157712Y-106015486D01*
X143146645Y-106021939D01*
X143134335Y-106028989D01*
X143128332Y-106032476D01*
X143122760Y-106035796D01*
X143117867Y-106038845D01*
X143113900Y-106041518D01*
X143112442Y-106042590D01*
X143110839Y-106043811D01*
X143109109Y-106045163D01*
X143107267Y-106046633D01*
X143103313Y-106049861D01*
X143099108Y-106053371D01*
X144497892Y-106861381D01*
X144497892Y-104611970D01*
X144377917Y-104823294D01*
X144318960Y-104925750D01*
X144263864Y-105020162D01*
X144215009Y-105102100D01*
X144174776Y-105167135D01*
X144158637Y-105191929D01*
X144145545Y-105210837D01*
X144135800Y-105223304D01*
X144132275Y-105226949D01*
X144129697Y-105228777D01*
X144129328Y-105226913D01*
X144129159Y-105224588D01*
X144129186Y-105221808D01*
X144129407Y-105218580D01*
X144130421Y-105210804D01*
X144132180Y-105201307D01*
X144134665Y-105190138D01*
X144137854Y-105177346D01*
X144141728Y-105162980D01*
X144146266Y-105147088D01*
X144145582Y-105147817D01*
X144144899Y-105148523D01*
X144144220Y-105149205D01*
X144143548Y-105149862D01*
X144142884Y-105150492D01*
X144142231Y-105151095D01*
X144141591Y-105151669D01*
X144140967Y-105152214D01*
X144139775Y-105153210D01*
X144138674Y-105154074D01*
X144138164Y-105154454D01*
X144137683Y-105154798D01*
X144137234Y-105155104D01*
X144136819Y-105155372D01*
X144136286Y-105155905D01*
X144135753Y-105155905D01*
X144135220Y-105155905D01*
X144135220Y-105155372D01*
X144134687Y-105155372D01*
X144134154Y-105154839D01*
X144133622Y-105154306D01*
X144129290Y-105147403D01*
X144128460Y-105146228D01*
X144127535Y-105144995D01*
X144126503Y-105143706D01*
X144125355Y-105142366D01*
X144124082Y-105140977D01*
X144122673Y-105139542D01*
X144121119Y-105138066D01*
X144119411Y-105136551D01*
X144117078Y-105134519D01*
X144114855Y-105132519D01*
X144112735Y-105130553D01*
X144110712Y-105128621D01*
X144106928Y-105124868D01*
X144103451Y-105121273D01*
X144099838Y-105117412D01*
X144097215Y-105114608D01*
X144094350Y-105111563D01*
X144091586Y-105108726D01*
X144090315Y-105107376D01*
X144088895Y-105105745D01*
X144085702Y-105101809D01*
X144082188Y-105097261D01*
X144078534Y-105092444D01*
X144074921Y-105087701D01*
X144071529Y-105083376D01*
X144069973Y-105081477D01*
X144068541Y-105079811D01*
X144067254Y-105078420D01*
X144066135Y-105077349D01*
X144065602Y-105076816D01*
X144065070Y-105076816D01*
X144064537Y-105076816D01*
X144064003Y-105076816D01*
X144063298Y-105076521D01*
X144062522Y-105076124D01*
X144061687Y-105075634D01*
X144060802Y-105075056D01*
X144059880Y-105074397D01*
X144058930Y-105073665D01*
X144057965Y-105072866D01*
X144056995Y-105072007D01*
X144056031Y-105071094D01*
X144055606Y-105070665D01*
X144055084Y-105070136D01*
X144054165Y-105069138D01*
X144053285Y-105068108D01*
X144052455Y-105067052D01*
X144051686Y-105065978D01*
X144050988Y-105064891D01*
X144050374Y-105063800D01*
X144049360Y-105066079D01*
X144048352Y-105068271D01*
X144047354Y-105070373D01*
X144046366Y-105072382D01*
X144045393Y-105074295D01*
X144044434Y-105076109D01*
X144043493Y-105077820D01*
X144042572Y-105079426D01*
X144041673Y-105080923D01*
X144040797Y-105082308D01*
X144039948Y-105083577D01*
X144039126Y-105084729D01*
X144038335Y-105085759D01*
X144037576Y-105086664D01*
X144036851Y-105087441D01*
X144036163Y-105088088D01*
X144036137Y-105088115D01*
X144036108Y-105088140D01*
X144036076Y-105088165D01*
X144036042Y-105088189D01*
X144035965Y-105088235D01*
X144035881Y-105088277D01*
X144035790Y-105088316D01*
X144035694Y-105088352D01*
X144035595Y-105088386D01*
X144035495Y-105088418D01*
X144035111Y-105088527D01*
X144034955Y-105088575D01*
X144034891Y-105088598D01*
X144034839Y-105088621D01*
X144034306Y-105088621D01*
X144039897Y-105045197D01*
X144055606Y-105045197D01*
X144057463Y-105043872D01*
X144061614Y-105027312D01*
X144060943Y-105029246D01*
X144060207Y-105031483D01*
X144058630Y-105036420D01*
X144057072Y-105041242D01*
X144056358Y-105043334D01*
X144055719Y-105045067D01*
X144055606Y-105045197D01*
X144039897Y-105045197D01*
X144045137Y-105004499D01*
X144060876Y-104914843D01*
X144099531Y-104914843D01*
X144099838Y-104914915D01*
X144100911Y-104912812D01*
X144101893Y-104910805D01*
X144102771Y-104908913D01*
X144103534Y-104907157D01*
X144103868Y-104906336D01*
X144104169Y-104905557D01*
X144104435Y-104904822D01*
X144104664Y-104904134D01*
X144104855Y-104903495D01*
X144105006Y-104902908D01*
X144105116Y-104902375D01*
X144105183Y-104901899D01*
X144105183Y-104901366D01*
X144105994Y-104898724D01*
X144107365Y-104895088D01*
X144111468Y-104885429D01*
X144116865Y-104873581D01*
X144122929Y-104860736D01*
X144134544Y-104836824D01*
X144141292Y-104823230D01*
X144141682Y-104822523D01*
X144142163Y-104821765D01*
X144143373Y-104820113D01*
X144144873Y-104818304D01*
X144146611Y-104816371D01*
X144148540Y-104814344D01*
X144150607Y-104812256D01*
X144154960Y-104808017D01*
X144163136Y-104800170D01*
X144164778Y-104798522D01*
X144166159Y-104797062D01*
X144167229Y-104795822D01*
X144167938Y-104794832D01*
X144167938Y-104794299D01*
X144168471Y-104794299D01*
X144169004Y-104793766D01*
X144169537Y-104793233D01*
X144170993Y-104792472D01*
X144172747Y-104791717D01*
X144174769Y-104790977D01*
X144177026Y-104790260D01*
X144179488Y-104789573D01*
X144182121Y-104788923D01*
X144184896Y-104788318D01*
X144187779Y-104787766D01*
X144190740Y-104787274D01*
X144193746Y-104786849D01*
X144196767Y-104786500D01*
X144199770Y-104786233D01*
X144202724Y-104786057D01*
X144205597Y-104785978D01*
X144208358Y-104786005D01*
X144210975Y-104786144D01*
X144215709Y-104786506D01*
X144217812Y-104786681D01*
X144219721Y-104786869D01*
X144221426Y-104787082D01*
X144222197Y-104787201D01*
X144222913Y-104787332D01*
X144223571Y-104787475D01*
X144224170Y-104787632D01*
X144224709Y-104787804D01*
X144225186Y-104787993D01*
X144225719Y-104788526D01*
X144226252Y-104788526D01*
X144226252Y-104789059D01*
X144226784Y-104789592D01*
X144227317Y-104790125D01*
X144227317Y-104790658D01*
X144227602Y-104791412D01*
X144227866Y-104792251D01*
X144228112Y-104793184D01*
X144228343Y-104794218D01*
X144228561Y-104795364D01*
X144228771Y-104796628D01*
X144228974Y-104798020D01*
X144229175Y-104799548D01*
X144229615Y-104802073D01*
X144230265Y-104804674D01*
X144231103Y-104807346D01*
X144232102Y-104810084D01*
X144233241Y-104812883D01*
X144234495Y-104815738D01*
X144237253Y-104821598D01*
X144240185Y-104827624D01*
X144243100Y-104833776D01*
X144244491Y-104836888D01*
X144245807Y-104840017D01*
X144247024Y-104843158D01*
X144248117Y-104846307D01*
X144310791Y-104674406D01*
X144378939Y-104491726D01*
X144378063Y-104491199D01*
X144377216Y-104490702D01*
X144376401Y-104490235D01*
X144375621Y-104489799D01*
X144374178Y-104489018D01*
X144372910Y-104488360D01*
X144371839Y-104487826D01*
X144370989Y-104487419D01*
X144370041Y-104486986D01*
X144366968Y-104485614D01*
X144364100Y-104484299D01*
X144358940Y-104481854D01*
X144350638Y-104477767D01*
X144347337Y-104476164D01*
X144345863Y-104475482D01*
X144344493Y-104474882D01*
X144343218Y-104474367D01*
X144342028Y-104473939D01*
X144340911Y-104473602D01*
X144339859Y-104473356D01*
X144339326Y-104472823D01*
X144338136Y-104472435D01*
X144336823Y-104471913D01*
X144335411Y-104471266D01*
X144333925Y-104470503D01*
X144332389Y-104469634D01*
X144330829Y-104468667D01*
X144329267Y-104467611D01*
X144327729Y-104466477D01*
X144326240Y-104465272D01*
X144324823Y-104464007D01*
X144323503Y-104462690D01*
X144322888Y-104462015D01*
X144322305Y-104461330D01*
X144321760Y-104460637D01*
X144321254Y-104459937D01*
X144320790Y-104459231D01*
X144320373Y-104458520D01*
X144320004Y-104457805D01*
X144319687Y-104457087D01*
X144319425Y-104456368D01*
X144319221Y-104455649D01*
X144318934Y-104453985D01*
X144318724Y-104452082D01*
X144318585Y-104449970D01*
X144318514Y-104447681D01*
X144318552Y-104442697D01*
X144318799Y-104437379D01*
X144319214Y-104431977D01*
X144319759Y-104426740D01*
X144320393Y-104421919D01*
X144321078Y-104417764D01*
X144321472Y-104415792D01*
X144321958Y-104413645D01*
X144323142Y-104408952D01*
X144325904Y-104398896D01*
X144327222Y-104394056D01*
X144328324Y-104389690D01*
X144328754Y-104387768D01*
X144329081Y-104386062D01*
X144329289Y-104384605D01*
X144329362Y-104383431D01*
X144329415Y-104382344D01*
X144329568Y-104381134D01*
X144329814Y-104379815D01*
X144330143Y-104378400D01*
X144330548Y-104376901D01*
X144331021Y-104375332D01*
X144332136Y-104372032D01*
X144333421Y-104368605D01*
X144334812Y-104365153D01*
X144336243Y-104361779D01*
X144337647Y-104358586D01*
X144338403Y-104357056D01*
X144339300Y-104355545D01*
X144340327Y-104354054D01*
X144341478Y-104352587D01*
X144342744Y-104351147D01*
X144344116Y-104349736D01*
X144345588Y-104348357D01*
X144347150Y-104347013D01*
X144348795Y-104345706D01*
X144350514Y-104344440D01*
X144352299Y-104343216D01*
X144354143Y-104342039D01*
X144356036Y-104340910D01*
X144357971Y-104339833D01*
X144359940Y-104338809D01*
X144361935Y-104337843D01*
X144362561Y-104337550D01*
X144363179Y-104337285D01*
X144363787Y-104337048D01*
X144364385Y-104336836D01*
X144364970Y-104336650D01*
X144365542Y-104336489D01*
X144366099Y-104336350D01*
X144366640Y-104336234D01*
X144367163Y-104336139D01*
X144367667Y-104336065D01*
X144368151Y-104336010D01*
X144368613Y-104335974D01*
X144369052Y-104335955D01*
X144369467Y-104335953D01*
X144369857Y-104335966D01*
X144370219Y-104335994D01*
X144370282Y-104335999D01*
X144370368Y-104336013D01*
X144370471Y-104336034D01*
X144370591Y-104336063D01*
X144370863Y-104336135D01*
X144371160Y-104336221D01*
X144371454Y-104336312D01*
X144371722Y-104336399D01*
X144371938Y-104336474D01*
X144372076Y-104336527D01*
X144372240Y-104336587D01*
X144372421Y-104336670D01*
X144372618Y-104336772D01*
X144372829Y-104336890D01*
X144373281Y-104337160D01*
X144373761Y-104337454D01*
X144374253Y-104337749D01*
X144374498Y-104337888D01*
X144374740Y-104338018D01*
X144374975Y-104338134D01*
X144375204Y-104338235D01*
X144375422Y-104338317D01*
X144375628Y-104338376D01*
X144376107Y-104338455D01*
X144376602Y-104338512D01*
X144377122Y-104338546D01*
X144377674Y-104338557D01*
X144378266Y-104338546D01*
X144378906Y-104338512D01*
X144379601Y-104338455D01*
X144380360Y-104338376D01*
X144380823Y-104338298D01*
X144381280Y-104338205D01*
X144381730Y-104338096D01*
X144382174Y-104337974D01*
X144382611Y-104337839D01*
X144383041Y-104337692D01*
X144383881Y-104337364D01*
X144384693Y-104336998D01*
X144385476Y-104336601D01*
X144386231Y-104336181D01*
X144386955Y-104335743D01*
X144387649Y-104335295D01*
X144388312Y-104334844D01*
X144389542Y-104333962D01*
X144390640Y-104333153D01*
X144391600Y-104332474D01*
X144392133Y-104332474D01*
X144392666Y-104331941D01*
X144393199Y-104332474D01*
X144393732Y-104333006D01*
X144394265Y-104333539D01*
X144394590Y-104334635D01*
X144394925Y-104335984D01*
X144395602Y-104339284D01*
X144396246Y-104343126D01*
X144396810Y-104347200D01*
X144397244Y-104351193D01*
X144397501Y-104354794D01*
X144397547Y-104356350D01*
X144397530Y-104357691D01*
X144397445Y-104358777D01*
X144397285Y-104359571D01*
X144397285Y-104360104D01*
X144396751Y-104360637D01*
X144395300Y-104363915D01*
X144394914Y-104364863D01*
X144394550Y-104365864D01*
X144394222Y-104366919D01*
X144393946Y-104368028D01*
X144393736Y-104369194D01*
X144393609Y-104370415D01*
X144393580Y-104371694D01*
X144393606Y-104372355D01*
X144393663Y-104373031D01*
X144393752Y-104373721D01*
X144393874Y-104374426D01*
X144394032Y-104375147D01*
X144394228Y-104375882D01*
X144394464Y-104376632D01*
X144394741Y-104377397D01*
X144395061Y-104378178D01*
X144395427Y-104378974D01*
X144395855Y-104379807D01*
X144396300Y-104380596D01*
X144396762Y-104381344D01*
X144397239Y-104382052D01*
X144397732Y-104382724D01*
X144398240Y-104383362D01*
X144399298Y-104384549D01*
X144400410Y-104385631D01*
X144401571Y-104386632D01*
X144402777Y-104387571D01*
X144404024Y-104388470D01*
X144409341Y-104392082D01*
X144410732Y-104393094D01*
X144412138Y-104394193D01*
X144413557Y-104395397D01*
X144414984Y-104396730D01*
X144497860Y-104179487D01*
X144497860Y-103869299D01*
X144492209Y-103863434D01*
X144489233Y-103860370D01*
X144486122Y-103857243D01*
X144482851Y-103854070D01*
X144479395Y-103850870D01*
X144475729Y-103847658D01*
X144473809Y-103846054D01*
X144471828Y-103844454D01*
X144470851Y-103843713D01*
X144469887Y-103843039D01*
X144468936Y-103842430D01*
X144467997Y-103841882D01*
X144467072Y-103841394D01*
X144466159Y-103840962D01*
X144465260Y-103840583D01*
X144464374Y-103840254D01*
X144463502Y-103839972D01*
X144462643Y-103839734D01*
X144461798Y-103839538D01*
X144460968Y-103839380D01*
X144460151Y-103839257D01*
X144459349Y-103839167D01*
X144457788Y-103839072D01*
X144456287Y-103839071D01*
X144454846Y-103839140D01*
X144453466Y-103839256D01*
X144452150Y-103839396D01*
X144449711Y-103839650D01*
X144448592Y-103839718D01*
X144447540Y-103839715D01*
X144447476Y-103839709D01*
X144447391Y-103839695D01*
X144447287Y-103839672D01*
X144447168Y-103839643D01*
X144446895Y-103839567D01*
X144446599Y-103839478D01*
X144446036Y-103839299D01*
X144445683Y-103839182D01*
X144445149Y-103838649D01*
X144444617Y-103838649D01*
X144444617Y-103838116D01*
X144444508Y-103838007D01*
X144444376Y-103837882D01*
X144444062Y-103837594D01*
X144443327Y-103836925D01*
X144442964Y-103836581D01*
X144442797Y-103836415D01*
X144442643Y-103836256D01*
X144442507Y-103836106D01*
X144442393Y-103835967D01*
X144442304Y-103835843D01*
X144442269Y-103835786D01*
X144442243Y-103835734D01*
X144441861Y-103834760D01*
X144441504Y-103833641D01*
X144441171Y-103832378D01*
X144440862Y-103830970D01*
X144440578Y-103829417D01*
X144440317Y-103827717D01*
X144440081Y-103825872D01*
X144439869Y-103823880D01*
X144439184Y-103814617D01*
X144439177Y-103811008D01*
X144439396Y-103807808D01*
X144439845Y-103804812D01*
X144440525Y-103801816D01*
X144442590Y-103795004D01*
X144445612Y-103785734D01*
X144449611Y-103772369D01*
X144451983Y-103763639D01*
X144454607Y-103753271D01*
X144457485Y-103741060D01*
X144460620Y-103726802D01*
X144465692Y-103702181D01*
X144470048Y-103679386D01*
X144477811Y-103636542D01*
X144481815Y-103615127D01*
X144486300Y-103592804D01*
X144491565Y-103568891D01*
X144497908Y-103542704D01*
X144497908Y-103310661D01*
X144393254Y-103755381D01*
X144284864Y-104204446D01*
X144183402Y-104607665D01*
X144138601Y-104776396D01*
X144099531Y-104914843D01*
X144060876Y-104914843D01*
X144077520Y-104820037D01*
X144190797Y-104227217D01*
X144498393Y-102685901D01*
X144498393Y-101515026D01*
X144197087Y-101689055D01*
X144094858Y-102545205D01*
X143963515Y-103597995D01*
X143839448Y-104501958D01*
X143791515Y-104790172D01*
X143773064Y-104874444D01*
X143759048Y-104911629D01*
X143811142Y-103705723D01*
X143901110Y-101860128D01*
X143730029Y-101958983D01*
X143674379Y-104042650D01*
X143572561Y-102049554D01*
X143228638Y-102248452D01*
X143421159Y-103729804D01*
X143508665Y-104420084D01*
X143545334Y-104739958D01*
X143520112Y-104655452D01*
X143468643Y-104450079D01*
X143314126Y-103798683D01*
X142988908Y-102386961D01*
X142485757Y-102677019D01*
X142985624Y-103787609D01*
X143216983Y-104308575D01*
X143292627Y-104483043D01*
X143328099Y-104570670D01*
X143277620Y-104494085D01*
X143181333Y-104335123D01*
X142897380Y-103851569D01*
X142286270Y-102792451D01*
X141981411Y-102968854D01*
X142937607Y-104245913D01*
X143385050Y-104852468D01*
X143525438Y-105048360D01*
X143581443Y-105134799D01*
X143567828Y-105126660D01*
X143523708Y-105085983D01*
X143357875Y-104921715D01*
X142813307Y-104364440D01*
X141652281Y-103158280D01*
X141379978Y-103315740D01*
X142656806Y-104543443D01*
X141223706Y-103406311D01*
X140761977Y-103672687D01*
X141844301Y-104318527D01*
X142474111Y-104698839D01*
X143005460Y-105025882D01*
X143011205Y-105022863D01*
X143014188Y-105021241D01*
X143015682Y-105020378D01*
X143017168Y-105019473D01*
X143018641Y-105018519D01*
X143020092Y-105017508D01*
X143021514Y-105016435D01*
X143022901Y-105015293D01*
X143024246Y-105014075D01*
X143025541Y-105012775D01*
X143026780Y-105011387D01*
X143027956Y-105009903D01*
X143030312Y-105006686D01*
X143032387Y-105003736D01*
X143034215Y-105001029D01*
X143035829Y-104998538D01*
X143037261Y-104996237D01*
X143038544Y-104994101D01*
X143040796Y-104990222D01*
X143042850Y-104986693D01*
X143043884Y-104984996D01*
X143044967Y-104983310D01*
X143046133Y-104981609D01*
X143047413Y-104979868D01*
X143048842Y-104978060D01*
X143050451Y-104976160D01*
X143052295Y-104974236D01*
X143054403Y-104972361D01*
X143056764Y-104970538D01*
X143059364Y-104968769D01*
X143062192Y-104967056D01*
X143065237Y-104965400D01*
X143068485Y-104963805D01*
X143071925Y-104962273D01*
X143075545Y-104960805D01*
X143079333Y-104959403D01*
X143083276Y-104958070D01*
X143087363Y-104956808D01*
X143091581Y-104955619D01*
X143095919Y-104954505D01*
X143100365Y-104953468D01*
X143104905Y-104952510D01*
X143107026Y-104952114D01*
X143109093Y-104951784D01*
X143111108Y-104951515D01*
X143113071Y-104951304D01*
X143114982Y-104951149D01*
X143116840Y-104951046D01*
X143118647Y-104950992D01*
X143120403Y-104950984D01*
X143122106Y-104951017D01*
X143123759Y-104951090D01*
X143126911Y-104951341D01*
X143129861Y-104951709D01*
X143132609Y-104952169D01*
X143135157Y-104952695D01*
X143137507Y-104953261D01*
X143139660Y-104953842D01*
X143141617Y-104954411D01*
X143144952Y-104955411D01*
X143146332Y-104955790D01*
X143147522Y-104956055D01*
X143148055Y-104956055D01*
X143148588Y-104956055D01*
X143149121Y-104956055D01*
X143150042Y-104955858D01*
X143151061Y-104955557D01*
X143152161Y-104955158D01*
X143153327Y-104954665D01*
X143154541Y-104954081D01*
X143155786Y-104953413D01*
X143157046Y-104952664D01*
X143158304Y-104951839D01*
X143159543Y-104950942D01*
X143160746Y-104949978D01*
X143161898Y-104948951D01*
X143162980Y-104947867D01*
X143163491Y-104947304D01*
X143163977Y-104946729D01*
X143164439Y-104946141D01*
X143164872Y-104945542D01*
X143165276Y-104944931D01*
X143165648Y-104944310D01*
X143165986Y-104943679D01*
X143166287Y-104943039D01*
X143166341Y-104942843D01*
X143166394Y-104942623D01*
X143166493Y-104942127D01*
X143166584Y-104941575D01*
X143166663Y-104940994D01*
X143166728Y-104940409D01*
X143166778Y-104939846D01*
X143166809Y-104939330D01*
X143166820Y-104938888D01*
X143166819Y-104938456D01*
X143166812Y-104938030D01*
X143166792Y-104937605D01*
X143166775Y-104937391D01*
X143166753Y-104937177D01*
X143166725Y-104936960D01*
X143166690Y-104936741D01*
X143166647Y-104936518D01*
X143166595Y-104936293D01*
X143166534Y-104936063D01*
X143166463Y-104935829D01*
X143166381Y-104935589D01*
X143166287Y-104935344D01*
X143165516Y-104933530D01*
X143164782Y-104931668D01*
X143163402Y-104927857D01*
X143160778Y-104920299D01*
X143160108Y-104918508D01*
X143159418Y-104916785D01*
X143158699Y-104915146D01*
X143157946Y-104913604D01*
X143157150Y-104912174D01*
X143156304Y-104910872D01*
X143155860Y-104910273D01*
X143155401Y-104909711D01*
X143154926Y-104909188D01*
X143154434Y-104908706D01*
X143154370Y-104908649D01*
X143154285Y-104908579D01*
X143154060Y-104908407D01*
X143153785Y-104908208D01*
X143153487Y-104907999D01*
X143152924Y-104907613D01*
X143152577Y-104907382D01*
X143152044Y-104907382D01*
X143151511Y-104906849D01*
X143151456Y-104906837D01*
X143151390Y-104906830D01*
X143151314Y-104906825D01*
X143151229Y-104906824D01*
X143151042Y-104906828D01*
X143150843Y-104906837D01*
X143150459Y-104906856D01*
X143150302Y-104906858D01*
X143150239Y-104906855D01*
X143150187Y-104906849D01*
X143160423Y-104903585D01*
X143168963Y-104900770D01*
X143172696Y-104899481D01*
X143176124Y-104898244D01*
X143179287Y-104897039D01*
X143182224Y-104895847D01*
X143184976Y-104894646D01*
X143187582Y-104893417D01*
X143190081Y-104892140D01*
X143192515Y-104890795D01*
X143194922Y-104889361D01*
X143197342Y-104887819D01*
X143199815Y-104886148D01*
X143202380Y-104884329D01*
X143203855Y-104885501D01*
X143205350Y-104886585D01*
X143206874Y-104887602D01*
X143208436Y-104888568D01*
X143211718Y-104890419D01*
X143215271Y-104892281D01*
X143219174Y-104894296D01*
X143223504Y-104896608D01*
X143228339Y-104899359D01*
X143230971Y-104900943D01*
X143233757Y-104902691D01*
X143244191Y-104909327D01*
X143248652Y-104912179D01*
X143252627Y-104914776D01*
X143256130Y-104917159D01*
X143257708Y-104918283D01*
X143259173Y-104919368D01*
X143260528Y-104920421D01*
X143261772Y-104921446D01*
X143262909Y-104922449D01*
X143263939Y-104923434D01*
X143265042Y-104924438D01*
X143266477Y-104925602D01*
X143270155Y-104928334D01*
X143279396Y-104934854D01*
X143284195Y-104938329D01*
X143286473Y-104940051D01*
X143288604Y-104941736D01*
X143290542Y-104943366D01*
X143292240Y-104944920D01*
X143293648Y-104946378D01*
X143294719Y-104947722D01*
X143295252Y-104948255D01*
X143295720Y-104949699D01*
X143296148Y-104951555D01*
X143296530Y-104953769D01*
X143296857Y-104956290D01*
X143297124Y-104959065D01*
X143297323Y-104962043D01*
X143297445Y-104965171D01*
X143297485Y-104968396D01*
X143297434Y-104971668D01*
X143297285Y-104974933D01*
X143297031Y-104978140D01*
X143296665Y-104981236D01*
X143296179Y-104984169D01*
X143295565Y-104986887D01*
X143294818Y-104989338D01*
X143293928Y-104991469D01*
X143292975Y-104993279D01*
X143292064Y-104994823D01*
X143291184Y-104996141D01*
X143290326Y-104997274D01*
X143289480Y-104998261D01*
X143288634Y-104999144D01*
X143287779Y-104999961D01*
X143286903Y-105000754D01*
X143285052Y-105002426D01*
X143284054Y-105003385D01*
X143282996Y-105004480D01*
X143281865Y-105005752D01*
X143280653Y-105007240D01*
X143279348Y-105008984D01*
X143277941Y-105011025D01*
X143274914Y-105015383D01*
X143271786Y-105019694D01*
X143268714Y-105024014D01*
X143267246Y-105026196D01*
X143265851Y-105028401D01*
X143264547Y-105030636D01*
X143263354Y-105032909D01*
X143262292Y-105035227D01*
X143261379Y-105037597D01*
X143260635Y-105040025D01*
X143260332Y-105041263D01*
X143260079Y-105042519D01*
X143259878Y-105043792D01*
X143259732Y-105045085D01*
X143259642Y-105046398D01*
X143259612Y-105047732D01*
X143259510Y-105053040D01*
X143259241Y-105058252D01*
X143258425Y-105068674D01*
X143257989Y-105074029D01*
X143257609Y-105079576D01*
X143257340Y-105085388D01*
X143257238Y-105091536D01*
X143257179Y-105094583D01*
X143257013Y-105097401D01*
X143256751Y-105100025D01*
X143256407Y-105102489D01*
X143255995Y-105104830D01*
X143255528Y-105107081D01*
X143254480Y-105111456D01*
X143253371Y-105115894D01*
X143252826Y-105118223D01*
X143252305Y-105120673D01*
X143251822Y-105123278D01*
X143251389Y-105126074D01*
X143251021Y-105129095D01*
X143250730Y-105132376D01*
X143250320Y-105138570D01*
X143249954Y-105143643D01*
X143249612Y-105147853D01*
X143249280Y-105151455D01*
X143248941Y-105154707D01*
X143248577Y-105157866D01*
X143247710Y-105164932D01*
X143247654Y-105165692D01*
X143247617Y-105166440D01*
X143247598Y-105167169D01*
X143247595Y-105167871D01*
X143247606Y-105168541D01*
X143247630Y-105169170D01*
X143247665Y-105169751D01*
X143247710Y-105170278D01*
X143247715Y-105170338D01*
X143247729Y-105170421D01*
X143247782Y-105170642D01*
X143247857Y-105170912D01*
X143247946Y-105171208D01*
X143248126Y-105171772D01*
X143248243Y-105172127D01*
X143248270Y-105172153D01*
X143248295Y-105172183D01*
X143248320Y-105172215D01*
X143248345Y-105172251D01*
X143248390Y-105172328D01*
X143248433Y-105172413D01*
X143248472Y-105172505D01*
X143248509Y-105172601D01*
X143248544Y-105172700D01*
X143248576Y-105172801D01*
X143248634Y-105172999D01*
X143248685Y-105173183D01*
X143248732Y-105173338D01*
X143248754Y-105173400D01*
X143248776Y-105173451D01*
X143248776Y-105173984D01*
X143248243Y-105174517D01*
X143248215Y-105174542D01*
X143248183Y-105174566D01*
X143248106Y-105174610D01*
X143248015Y-105174649D01*
X143247912Y-105174684D01*
X143247798Y-105174715D01*
X143247675Y-105174743D01*
X143247411Y-105174795D01*
X143247135Y-105174845D01*
X143246862Y-105174900D01*
X143246731Y-105174932D01*
X143246607Y-105174966D01*
X143246491Y-105175005D01*
X143246386Y-105175050D01*
X143245853Y-105175582D01*
X143245320Y-105175582D01*
X143245053Y-105175625D01*
X143244763Y-105175661D01*
X143244114Y-105175711D01*
X143243384Y-105175735D01*
X143242581Y-105175737D01*
X143241713Y-105175719D01*
X143240789Y-105175686D01*
X143238812Y-105175582D01*
X143264428Y-105192664D01*
X143287251Y-105208137D01*
X143307164Y-105221942D01*
X143324050Y-105234016D01*
X143331321Y-105239386D01*
X143337791Y-105244299D01*
X143343446Y-105248750D01*
X143348271Y-105252730D01*
X143352251Y-105256231D01*
X143355372Y-105259246D01*
X143357618Y-105261768D01*
X143358409Y-105262841D01*
X143358976Y-105263788D01*
X143358976Y-105264321D01*
X143358976Y-105264853D01*
X143358976Y-105265387D01*
X143358976Y-105265919D01*
X143358443Y-105266452D01*
X143357910Y-105266452D01*
X143357773Y-105266463D01*
X143357579Y-105266472D01*
X143357342Y-105266477D01*
X143357078Y-105266480D01*
X143356802Y-105266479D01*
X143356529Y-105266474D01*
X143356274Y-105266465D01*
X143356053Y-105266452D01*
X143234932Y-105221139D01*
X142957546Y-105101686D01*
X142100380Y-104718006D01*
X140341250Y-103915033D01*
X139868879Y-104187925D01*
X138990428Y-104187925D01*
X138990529Y-104181815D01*
X138990829Y-104175737D01*
X138991327Y-104169694D01*
X138992020Y-104163691D01*
X138992907Y-104157732D01*
X138993985Y-104151821D01*
X138995251Y-104145962D01*
X138996705Y-104140160D01*
X138998344Y-104134418D01*
X139000166Y-104128741D01*
X139002168Y-104123133D01*
X139004348Y-104117599D01*
X139006705Y-104112141D01*
X139009236Y-104106765D01*
X139011940Y-104101475D01*
X139014813Y-104096274D01*
X139017854Y-104091167D01*
X139021061Y-104086159D01*
X139024431Y-104081253D01*
X139027963Y-104076453D01*
X139031654Y-104071765D01*
X139035503Y-104067191D01*
X139039507Y-104062736D01*
X139043663Y-104058404D01*
X139047971Y-104054200D01*
X139052427Y-104050127D01*
X139057030Y-104046191D01*
X139061777Y-104042394D01*
X139066667Y-104038741D01*
X139071697Y-104035236D01*
X139076866Y-104031884D01*
X139082170Y-104028689D01*
X144715756Y-100775932D01*
X144726441Y-100770090D01*
X144737412Y-100765027D01*
X144748631Y-100760743D01*
X144760059Y-100757238D01*
X144771657Y-100754511D01*
X144783385Y-100752564D01*
X144795204Y-100751396D01*
X144807076Y-100751006D01*
X144818962Y-100751396D01*
G37*
D11*
G36*
X185023087Y-134631305D02*
G01*
X184353488Y-134689888D01*
X184314443Y-134243602D01*
X184090205Y-134263220D01*
X184086772Y-134223984D01*
X184538681Y-134223984D01*
X184558201Y-134447102D01*
X184779324Y-134427756D01*
X184759804Y-134204638D01*
X184538681Y-134223984D01*
X184086772Y-134223984D01*
X184070681Y-134040053D01*
X184964517Y-133961853D01*
X185023087Y-134631305D01*
G37*
G36*
X184378841Y-134979674D02*
G01*
X184398366Y-135202841D01*
X184731608Y-135173686D01*
X184751128Y-135396804D01*
X184417886Y-135425959D01*
X184437411Y-135649126D01*
X185331247Y-135570926D01*
X185272677Y-134901473D01*
X185048440Y-134921092D01*
X185087484Y-135367377D01*
X184975366Y-135377186D01*
X184936321Y-134930901D01*
X184378841Y-134979674D01*
G37*
G36*
X184411339Y-136642457D02*
G01*
X184430863Y-136865624D01*
X184764105Y-136836469D01*
X184783626Y-137059588D01*
X184562648Y-137078921D01*
X184582173Y-137302088D01*
X184915269Y-137272946D01*
X184934789Y-137496064D01*
X184489428Y-137535028D01*
X184508953Y-137758195D01*
X185290670Y-137689804D01*
X185271146Y-137466637D01*
X185159027Y-137476446D01*
X185119982Y-137030160D01*
X185007863Y-137039969D01*
X184968818Y-136593684D01*
X184411339Y-136642457D01*
G37*
G36*
X185374286Y-138645539D02*
G01*
X185150049Y-138665157D01*
X185111000Y-138218823D01*
X185001995Y-138228360D01*
X185041044Y-138674694D01*
X184605027Y-138712840D01*
X184564261Y-138246888D01*
X184790215Y-138246888D01*
X184809740Y-138470055D01*
X184909401Y-138461336D01*
X184889876Y-138238169D01*
X184790215Y-138246888D01*
X184564261Y-138246888D01*
X184547432Y-138054532D01*
X185316692Y-137987230D01*
X185374286Y-138645539D01*
G37*
G36*
X184728359Y-138974686D02*
G01*
X184777166Y-139532555D01*
X185113523Y-139503127D01*
X185093998Y-139279960D01*
X184981880Y-139289769D01*
X184972121Y-139178235D01*
X185417482Y-139139270D01*
X185397958Y-138916103D01*
X184728359Y-138974686D01*
G37*
G04 #@! TO.C,D3*
X121000000Y-109540847D02*
X121000000Y-112540844D01*
X116000000Y-112540841D01*
X116000000Y-109540844D01*
X121000000Y-109540847D01*
G36*
X121000000Y-109540847D02*
G01*
X121000000Y-112540844D01*
X116000000Y-112540841D01*
X116000000Y-109540844D01*
X121000000Y-109540847D01*
G37*
G04 #@! TO.C,D1*
X121050826Y-121729011D02*
X120946128Y-124727181D01*
X115949174Y-124552681D01*
X116053872Y-121554511D01*
X121050826Y-121729011D01*
G36*
X121050826Y-121729011D02*
G01*
X120946128Y-124727181D01*
X115949174Y-124552681D01*
X116053872Y-121554511D01*
X121050826Y-121729011D01*
G37*
G04 #@! TO.C,D4*
X121050826Y-106352681D02*
X116053872Y-106527176D01*
X115949174Y-103529011D01*
X120946128Y-103354512D01*
X121050826Y-106352681D01*
G36*
X121050826Y-106352681D02*
G01*
X116053872Y-106527176D01*
X115949174Y-103529011D01*
X120946128Y-103354512D01*
X121050826Y-106352681D01*
G37*
G04 #@! TO.C,D2*
X121050826Y-115929011D02*
X120946128Y-118927179D01*
X115949174Y-118752679D01*
X116053872Y-115754509D01*
X121050826Y-115929011D01*
G36*
X121050826Y-115929011D02*
G01*
X120946128Y-118927179D01*
X115949174Y-118752679D01*
X116053872Y-115754509D01*
X121050826Y-115929011D01*
G37*
G04 #@! TO.C,D8*
X121121220Y-82117247D02*
X116140246Y-82553022D01*
X115878779Y-79564441D01*
X120859753Y-79128666D01*
X121121220Y-82117247D01*
G36*
X121121220Y-82117247D02*
G01*
X116140246Y-82553022D01*
X115878779Y-79564441D01*
X120859753Y-79128666D01*
X121121220Y-82117247D01*
G37*
G04 #@! TO.C,D6*
X121098545Y-94462799D02*
X116110724Y-94811578D01*
X115901455Y-91818889D01*
X120889274Y-91470110D01*
X121098545Y-94462799D01*
G36*
X121098545Y-94462799D02*
G01*
X116110724Y-94811578D01*
X115901455Y-91818889D01*
X120889274Y-91470110D01*
X121098545Y-94462799D01*
G37*
G04 #@! TO.C,D5*
X121075078Y-100907948D02*
X116081930Y-101169625D01*
X115924922Y-98173740D01*
X120918070Y-97912063D01*
X121075078Y-100907948D01*
G36*
X121075078Y-100907948D02*
G01*
X116081930Y-101169625D01*
X115924922Y-98173740D01*
X120918070Y-97912063D01*
X121075078Y-100907948D01*
G37*
G04 #@! TO.C,D7*
X121121220Y-88317247D02*
X116140246Y-88753022D01*
X115878779Y-85764441D01*
X120859753Y-85328666D01*
X121121220Y-88317247D01*
G36*
X121121220Y-88317247D02*
G01*
X116140246Y-88753022D01*
X115878779Y-85764441D01*
X120859753Y-85328666D01*
X121121220Y-88317247D01*
G37*
G04 #@! TD*
D12*
G04 #@! TO.C,D3*
X115199999Y-111040846D03*
D13*
X121800001Y-111040846D03*
G04 #@! TD*
D14*
G04 #@! TO.C,R1*
X117800000Y-131500000D03*
X117800000Y-133500000D03*
G04 #@! TD*
G04 #@! TO.C,R2*
X121000000Y-131500000D03*
X121000000Y-133500000D03*
G04 #@! TD*
D15*
G04 #@! TO.C,BT1*
X179375963Y-83833346D03*
D16*
X142175963Y-83833346D03*
G04 #@! TD*
D17*
G04 #@! TO.C,R7*
X129583883Y-89383883D03*
X127816117Y-87616117D03*
G04 #@! TD*
D18*
G04 #@! TO.C,D1*
X115202010Y-123025678D03*
D19*
X121797990Y-123256014D03*
G04 #@! TD*
D20*
G04 #@! TO.C,D4*
X115202010Y-105056014D03*
D21*
X121797990Y-104825678D03*
G04 #@! TD*
D18*
G04 #@! TO.C,D2*
X115202011Y-117225677D03*
D19*
X121797989Y-117456015D03*
G04 #@! TD*
D22*
G04 #@! TO.C,D8*
X115212557Y-81128460D03*
D23*
X121787443Y-80553232D03*
G04 #@! TD*
D17*
G04 #@! TO.C,R4*
X128883883Y-107383883D03*
X127116117Y-105616117D03*
G04 #@! TD*
D24*
G04 #@! TO.C,U2*
X178950000Y-74000000D03*
D25*
X163050000Y-74000000D03*
G04 #@! TD*
D26*
G04 #@! TO.C,D6*
X115208039Y-93371042D03*
D27*
X121791961Y-92910650D03*
G04 #@! TD*
D17*
G04 #@! TO.C,R8*
X129583883Y-83183883D03*
X127816117Y-81416117D03*
G04 #@! TD*
D28*
G04 #@! TO.C,SW1*
X177950000Y-66800000D03*
X172950000Y-66800000D03*
G04 #@! TD*
D17*
G04 #@! TO.C,R3*
X127933883Y-112583883D03*
X126166117Y-110816117D03*
G04 #@! TD*
D29*
G04 #@! TO.C,C1*
X136750000Y-111350000D03*
X134350000Y-111350000D03*
G04 #@! TD*
D17*
G04 #@! TO.C,R6*
X128883883Y-95583883D03*
X127116117Y-93816117D03*
G04 #@! TD*
D30*
G04 #@! TO.C,D5*
X115204521Y-99713554D03*
D31*
X121795479Y-99368138D03*
G04 #@! TD*
D29*
G04 #@! TO.C,C2*
X136800000Y-107800000D03*
X134350000Y-107800000D03*
G04 #@! TD*
D22*
G04 #@! TO.C,D7*
X115212557Y-87328460D03*
D23*
X121787443Y-86753232D03*
G04 #@! TD*
D17*
G04 #@! TO.C,R5*
X128883883Y-101883883D03*
X127116117Y-100116117D03*
G04 #@! TD*
D32*
G04 #@! TO.C,U1*
X143200000Y-135960000D03*
X126200000Y-120720000D03*
X126200000Y-123260000D03*
X126200000Y-125800000D03*
X126200000Y-128340000D03*
X126200000Y-130880000D03*
X126200000Y-133420000D03*
X126200000Y-135960000D03*
X143200000Y-138500000D03*
X126200000Y-138500000D03*
X143200000Y-130880000D03*
X143200000Y-133420000D03*
X143200000Y-128340000D03*
X143200000Y-125800000D03*
X143200000Y-123260000D03*
X143200000Y-120720000D03*
G04 #@! TD*
M02*
