<?xml version="1.0" encoding="UTF-8" standalone="no"?>
<!-- Created with Inkscape (http://www.inkscape.org/) -->

<svg
   version="1.1"
   id="svg1"
   width="299.88062"
   height="320.51678"
   viewBox="0 0 299.88062 320.51678"
   sodipodi:docname="Outline.svg"
   inkscape:version="1.4 (e7c3feb100, 2024-10-09)"
   xmlns:inkscape="http://www.inkscape.org/namespaces/inkscape"
   xmlns:sodipodi="http://sodipodi.sourceforge.net/DTD/sodipodi-0.dtd"
   xmlns="http://www.w3.org/2000/svg"
   xmlns:svg="http://www.w3.org/2000/svg">
  <defs
     id="defs1" />
  <sodipodi:namedview
     id="namedview1"
     pagecolor="#ffffff"
     bordercolor="#000000"
     borderopacity="0.25"
     inkscape:showpageshadow="2"
     inkscape:pageopacity="0.0"
     inkscape:pagecheckerboard="0"
     inkscape:deskcolor="#d1d1d1"
     showgrid="false"
     inkscape:zoom="1.2602604"
     inkscape:cx="-4.3641776"
     inkscape:cy="346.75374"
     inkscape:window-width="1920"
     inkscape:window-height="1080"
     inkscape:window-x="0"
     inkscape:window-y="0"
     inkscape:window-maximized="0"
     inkscape:current-layer="layer1" />
  <g
     inkscape:groupmode="layer"
     inkscape:label="Image"
     id="g1"
     style="display:inline"
     transform="translate(-7689.8688,-25734.846)">
    <rect
       style="display:inline;fill:#ffffff;fill-opacity:1;stroke:#000000;stroke-width:0.0377953;stroke-linecap:round;stroke-miterlimit:14.6;stroke-dasharray:none;stroke-opacity:1"
       id="rect2"
       width="299.84283"
       height="320.479"
       x="7689.8877"
       y="25734.865"
       rx="0.0087160654"
       ry="0.0020131168" />
  </g>
  <g
     inkscape:groupmode="layer"
     id="layer1"
     inkscape:label="Edge"
     style="display:inline"
     transform="translate(-7689.8688,-25734.846)">
    <path
       id="path628-2-3-9"
       style="display:inline;fill:none;fill-opacity:1;stroke:#000000;stroke-width:0.1;stroke-dasharray:none;stroke-opacity:1"
       d="m 7908.5639,25744.892 c -0.196,0.783 -0.3065,1.591 -0.3242,2.393 -0.068,2.047 -0.1283,4.094 -0.1212,6.141 0,0.603 -0.075,1.197 -0.099,1.802 -0.036,0.898 -0.036,1.795 -0.036,2.696 0,3.158 -0.043,6.317 -0.1069,9.472 -0.7133,0.594 -1.4231,1.196 -2.1061,1.826 -1.1794,1.093 -1.805,1.869 -2.28,2.634 -0.1448,0 -0.024,-1.877 -0.2499,-3.923 -0.1425,-0.944 -0.503,-1.87 -1.1052,-2.617 -0.5327,-0.677 -1.235,-1.211 -2.0178,-1.563 -0.036,-1.186 -0.036,-2.372 -0.097,-3.55 -0.085,-0.926 -0.3674,-1.837 -0.8801,-2.621 -0.5526,-0.851 -1.3572,-1.531 -2.2832,-1.945 -1.0237,-0.459 -2.192,-0.594 -3.2912,-0.362 -1.5385,0.32 -2.9314,1.314 -3.6896,2.691 -0.4718,0.863 -0.6891,1.842 -0.7038,2.817 -0.035,0.983 -0.043,1.969 -0.054,2.952 -0.8982,0.37 -1.6853,0.997 -2.2582,1.777 -0.04,-1.873 -0.1069,-3.75 -0.2352,-5.626 -0.1247,-1.357 -0.8052,-2.646 -1.8243,-3.543 -0.5716,-0.505 -1.2513,-0.886 -1.9828,-1.101 -1.3045,-0.395 -2.7554,-0.284 -3.9804,0.321 -1.1815,0.577 -2.1403,1.595 -2.6388,2.813 -0.2458,0.591 -0.3784,1.229 -0.4091,1.865 -0.2295,5.077 -0.2208,10.159 -0.2881,15.24 -1.5364,0 -3.0729,0.07 -4.6081,0.144 -1.0248,0.07 -2.0481,0.366 -2.9164,0.929 -1.2639,0.811 -2.1778,2.164 -2.4272,3.649 -0.19,2.619 -0.2032,5.257 -0.2779,7.884 0.035,0 -0.035,0 -0.043,0.07 -0.8348,0.898 -1.3372,2.087 -1.4234,3.301 -0.068,0.737 -0.071,1.473 -0.089,2.211 -0.7564,0.961 -1.1741,2.179 -1.2061,3.404 -0.4751,11.092 -0.4823,22.202 -0.5813,33.303 0.035,0.07 -0.036,0 -0.061,0 -0.5245,-0.214 -1.0825,-0.363 -1.6493,-0.42 -0.5302,-0.769 -1.2082,-1.428 -1.9245,-2.026 -0.7725,-0.63 -1.6329,-1.161 -2.5661,-1.517 0,-3.636 0.035,-7.271 -0.036,-10.9 -0.035,-0.761 -0.04,-1.53 -0.2565,-2.268 -0.1533,-0.516 -0.3778,-1.011 -0.6752,-1.459 -0.05,-0.766 -0.1248,-1.539 -0.3823,-2.261 -0.1996,-0.567 -0.4989,-1.09 -0.8545,-1.574 -1.4776,-4.038 -3.0554,-8.061 -4.0503,-12.253 -0.2012,-3.629 -0.075,-6.498 -0.21,-13.704 -0.043,-1.418 -0.703,-2.803 -1.7712,-3.733 -0.4971,-0.426 -1.0728,-0.765 -1.684,-1.003 -0.8458,-0.321 -1.7693,-0.463 -2.6733,-0.371 -1.4295,0.142 -2.7816,0.915 -3.6515,2.059 -0.4571,0.598 -0.7863,1.296 -0.9648,2.029 -0.1212,0.484 -0.1711,0.975 -0.1711,1.474 -0.121,4.127 -0.171,8.254 -0.2672,12.381 -0.1583,2.259 -4.9048,15.072 -5.1343,16.183 -0.1496,0.695 -0.2458,1.407 -0.2673,2.115 -0.4279,0.872 -0.6103,1.848 -0.5939,2.809 -0.04,1.503 -0.054,3.005 0,4.501 -0.1817,0.485 -0.3242,0.986 -0.4212,1.495 -0.1318,-0.462 -0.3029,-0.915 -0.4967,-1.356 -1.044,-2.403 -2.0515,-4.826 -3.227,-7.168 -0.3674,-5.122 -0.2887,-10.999 -0.4563,-16.546 -0.036,-0.677 -0.057,-1.357 -0.1354,-2.026 -0.2316,-1.336 -1.0044,-2.561 -2.0912,-3.358 -1.3468,-1.012 -3.1896,-1.314 -4.7891,-0.794 -1.3922,0.434 -2.5986,1.442 -3.2535,2.745 -0.3959,0.776 -0.584,1.645 -0.626,2.514 -0.1565,2.246 0.033,6.055 -0.5234,17.045 -0.1606,0.389 -0.395,0.74 -0.6109,1.1 -0.061,0.107 -1.4683,-2.916 -2.1175,-4.511 -1.423,-2.556 -1.0276,-5.416 -1.2671,-8.253 -0.1318,-1.165 -0.3983,-2.322 -0.9014,-3.387 -0.5516,-1.165 -1.3786,-2.186 -2.3292,-3.048 -0.7134,-0.659 -1.5207,-1.21 -2.4069,-1.602 -0.057,-2.475 -0.085,-4.95 -0.2743,-7.421 -0.071,-0.89 -0.1782,-1.773 -0.3856,-2.641 -0.2494,-0.952 -0.7054,-1.845 -1.3044,-2.629 -0.1532,-0.213 -0.3135,-0.388 -0.4835,-0.57 -0.085,-1.078 -0.1104,-2.171 -0.3492,-3.235 -0.1532,-0.695 -0.4386,-1.357 -0.813,-1.96 -0.4436,-0.818 -1.0235,-1.542 -1.6077,-2.261 -0.085,-0.177 -0.1425,-0.399 -0.2209,-0.598 -0.612,-2.159 -1.5535,-4.096 -2.9916,-5.836 -0.8901,-1 -1.9494,-1.873 -3.1537,-2.474 -2.7093,-1.228 -5.7702,-1.163 -8.6889,-1.283 -0.036,-1.58 -0.054,-3.164 -0.1533,-4.739 -0.089,-0.936 -0.2672,-1.868 -0.6552,-2.727 -0.4909,-1.085 -1.1501,-2.087 -1.9098,-2.998 -0.9642,-1.135 -2.1549,-2.09 -3.5107,-2.717 -1.6344,-0.754 -3.4858,-1.021 -5.2705,-0.79 -1.4534,0.178 -2.8729,0.698 -4.0708,1.552 -1.4152,0.993 -2.5929,2.322 -3.4459,3.828 -0.4389,0.776 -0.7831,1.606 -0.9972,2.474 -0.2281,0.898 -0.335,1.82 -0.3799,2.742 -0.5788,0 -2.5966,0.23 -3.7266,0.248 -0.036,-3.332 -0.036,-6.661 -0.054,-9.991 -0.035,-1.047 -0.1247,-2.104 -0.4318,-3.112 -0.4083,-1.317 -1.1645,-2.513 -2.0816,-3.539 -1.0354,-1.157 -2.295,-2.126 -3.7149,-2.767 -1.392,-0.619 -2.9438,-0.84 -4.4598,-0.744 -1.1987,0.07 -2.3916,0.356 -3.4847,0.848 -0.6677,0.32 -1.2941,0.697 -1.861,1.171 -0.6902,0.562 -1.3044,1.214 -1.8532,1.915 -1.184,1.556 -1.8603,3.487 -1.9212,5.441 -0.036,0.674 -0.036,1.35 -0.04,2.026 -0.036,1.379 -0.036,2.76 -0.043,4.138 -1.0949,-0.356 -2.2444,-0.506 -3.391,-0.502 -1.2103,0 -2.4254,0.214 -3.5516,0.673 -1.0443,0.427 -1.965,1.121 -2.729,1.948 -0.6752,0.729 -1.225,1.573 -1.6522,2.474 -0.6178,1.275 -1.0458,2.639 -1.3197,4.024 -0.3707,1.82 -0.523,3.672 -0.7234,5.515 -1.2934,0.951 -2.3516,2.222 -3.0493,3.672 -0.8577,1.761 -0.9616,3.505 -0.9742,3.927 -4.0233,0.498 -8.0617,0.863 -12.0692,1.485 -0.6503,0.107 -1.2983,0.213 -1.9326,0.405 -0.7312,0.179 -1.4505,0.449 -2.1507,0.742 -0.6428,0.248 -1.272,0.591 -1.8267,1.017 -0.6265,0.471 -1.1855,1.026 -1.7263,1.596 -0.7986,0.854 -1.4549,1.84 -1.9654,2.891 -0.2673,0.559 -0.4818,1.143 -0.6247,1.748 -0.584,2.284 -0.65,4.85 -0.65,5.822 -1.0576,1.736 -1.106,3.802 -1.2393,5.775 -1.2086,0.706 -2.2883,1.624 -3.2142,2.671 -3.7803,4.412 -3.784,10.251 -2.0581,15.493 0.085,0.588 0.097,8.242 0.036,9.838 -3.6918,4.924 -3.0537,10.527 0.1622,15.407 0,2.398 0.029,3.772 0.029,6.083 -5.6349,7.971 -0.729,16.621 -0.016,17.578 -0.043,2.161 -0.082,4.326 -0.1354,6.495 -3.9555,5.229 -1.963,10.732 -0.2259,14.185 0.054,31.544 -0.4993,63.063 -0.7788,94.605 -0.036,0.915 -0.036,1.826 -0.05,2.734 -0.01,0.77 -1.052,1.594 -1.7656,4.312 -0.3944,1.471 -0.5209,3.008 -0.4289,4.529 0.1104,2.187 0.6332,4.358 1.5777,6.335 0.677,1.42 1.552,2.756 2.631,3.91 0.4877,0.512 1.0279,0.972 1.5941,1.391 0.035,1.054 0.068,2.116 0.3135,3.141 0.3571,1.599 1.0333,3.109 1.9166,4.483 0.3278,0.517 0.6859,1.018 1.0578,1.51 0.036,3.055 0,6.11 -0.035,9.165 -0.036,0.758 -0.036,1.514 -0.04,2.275 -0.5032,0.41 -1.0123,0.819 -1.4577,1.289 -10.7931,10.672 -5.5185,23.075 4.5874,24.042 1.3551,0.143 2.718,0.143 4.078,0.178 18.7545,0.709 37.5046,1.562 56.2664,2.062 2.0548,0 4.1104,0.07 6.1655,0 0.6639,0 1.3294,-0.07 1.9744,-0.25 6.1256,-1.641 15.6154,-8.801 16.9364,-9.564 0.7905,1.247 1.5605,2.511 2.4713,3.679 5.0408,6.317 12.6211,8.195 18.9221,5.825 1.1066,-0.424 2.1496,-1.001 3.1237,-1.673 0.7924,0.43 1.6034,0.822 2.4186,1.199 5.2101,2.427 8.1187,3.523 22.5554,1.606 6.7856,-0.832 13.4485,-2.361 20.0387,-4.144 3.0214,1.326 6.201,0.116 9.0296,-1.155 0.5694,-0.25 1.1377,-0.517 1.7096,-0.766 1.1498,0.623 2.2401,1.343 3.3631,2.008 0.8997,0.528 1.839,1.012 2.8502,1.282 0.9253,0.25 1.881,0.321 2.8301,0.432 3.9887,0.482 54.9707,-0.641 90.4501,-0.641 0.9504,0 1.906,0 2.8466,-0.213 3.0901,-0.478 9.1119,-3.511 9.3666,-10.821 0.036,-1.389 -0.2493,-2.764 -0.6826,-4.074 -0.9413,-2.831 -1.4844,-3.061 -1.8949,-5.34 -0.057,-0.364 -0.1069,-0.727 -0.1532,-1.083 -0.4263,-3.698 -0.3025,-6.795 -0.9599,-9.917 -0.2244,-1.004 -0.5573,-1.983 -1.0603,-2.88 -1.3111,-2.787 -3.7216,-4.615 -6.3865,-5.982 v -2.464 c 0.6645,-0.178 1.3229,-0.356 1.9458,-0.63 1.6048,-0.702 3.0447,-1.785 4.1591,-3.134 0.5099,-0.627 0.9222,-1.325 1.2699,-2.054 0.2601,-0.534 0.4843,-1.087 0.6799,-1.649 0.9959,-0.441 1.9749,-0.947 2.8355,-1.623 5.866,-4.47 3.7518,-12.16 3.3667,-13.178 -0.5252,-1.454 -1.3077,-2.807 -2.2868,-3.999 -0.04,-3.337 0.035,-6.684 -0.1568,-10.021 -0.085,-1.398 -0.2316,-2.802 -0.6331,-4.147 -0.4593,-1.538 -1.2271,-2.992 -2.2911,-4.191 -0.036,0 -0.054,0 -0.036,-0.07 0.6181,-0.901 1.1067,-1.884 1.5417,-2.882 0.2709,-0.633 0.5178,-1.281 0.7134,-1.939 0.2921,-1.09 0.4286,-2.212 0.5557,-3.327 0.1782,-1.719 0.2566,-3.457 0.2282,-5.191 -0.036,-1.442 -0.164,-2.891 -0.5093,-4.298 -0.2672,-1.008 -0.7286,-1.954 -1.2118,-2.873 -0.4891,-0.911 -1.0867,-1.762 -1.7426,-2.568 -0.2873,-0.296 -0.2337,-0.621 -0.2524,-1.01 0.6641,-0.77 1.2795,-1.585 1.7608,-2.479 0.77,-1.453 1.1773,-3.076 1.2821,-4.711 0.082,-1.286 0.091,-3.105 -0.2821,-4.735 -0.2458,-1.111 -0.5907,-2.201 -1.0564,-3.237 2.8314,-2.443 5.2073,-5.122 6.0234,-8.86 0.2637,-1.409 0.31,-2.852 0.3456,-4.287 0.3205,-13.47 0.2505,-17.13 -4.0128,-21.154 -0.7159,-0.676 -1.5151,-1.267 -2.389,-1.719 -0.3845,-0.213 -0.7801,-0.385 -1.1844,-0.542 1.2107,-0.751 2.3463,-1.63 3.3279,-2.667 0.8427,-0.904 1.5342,-1.951 2.0085,-3.093 0.7586,-1.752 1.0999,-3.668 1.1337,-5.573 0.04,-2.048 -0.2707,-4.088 -0.7856,-6.071 -1.2283,-3.698 -3.7727,-7.008 -4.5311,-7.947 0.054,-8.152 -0.053,-16.306 -0.1149,-24.459 -0.035,-0.677 -0.075,-1.36 -0.2351,-2.019 -0.5506,-2.396 -3.3556,-7.584 -3.9169,-11.633 -0.2795,-2.176 -0.3026,-3.787 -0.3026,-6.992 -0.035,-2.892 0,-5.784 0,-8.675 0.036,-6.52 0.043,-13.035 0.082,-19.551 0.036,-4.081 0.05,-8.158 0.054,-12.235 0.158,-3.129 -0.2974,-6.089 -1.5161,-8.983 -1.2246,-2.75 -2.8808,-5.487 -4.9987,-6.969 -0.3983,-1.435 -1.034,-2.809 -1.9365,-3.991 -0.572,-0.755 -1.2425,-1.428 -1.9448,-2.062 -0.6075,-0.541 -1.2752,-1.019 -2.001,-1.393 -0.6207,-0.319 -1.272,-0.591 -1.9348,-0.818 -0.6235,-0.937 -1.3158,-1.83 -2.1552,-2.585 -1.0106,-0.88 -2.2073,-1.532 -3.4634,-1.984 -1.6726,-0.598 -3.74,-0.84 -4.5404,-0.84 -1.4132,-3.359 -4.6792,-7.362 -9.7297,-7.531 -2.4542,0 -6.4133,0.709 -9.3065,4.69 -1.5115,0.683 -3.1093,1.157 -4.6116,1.922 -0.3349,-1.641 -1.1533,-3.169 -2.2864,-4.393 -1.5136,-1.639 -3.592,-2.764 -5.8075,-3.074 -8.1006,-1.033 -10.4906,5.482 -11.065,7.7 z"
       sodipodi:nodetypes="ccccscccccccccccccccccccccccccccccccccccccccccccccccccccccccccccccccccccccccccccccccccccccccccccccccccccccccccccccccccccccccccccccccccccccccccccccccccccccccccccsccccccccccccccccccccccccccccccccccccccccccccccccccccccccccccccccc" />
  </g>
  <g
     inkscape:groupmode="layer"
     id="layer3"
     inkscape:label="Soldermask"
     style="display:inline"
     transform="translate(-7689.8688,-25734.846)" />
  <g
     inkscape:groupmode="layer"
     id="layer4"
     inkscape:label="Silkscreen"
     style="display:inline"
     transform="translate(-7689.8688,-25734.846)" />
  <g
     inkscape:groupmode="layer"
     id="layer2"
     inkscape:label="CU"
     style="display:inline"
     transform="translate(-7689.8688,-25734.846)" />
</svg>
