<?xml version="1.0" encoding="UTF-8" standalone="no"?>
<!-- Created with Inkscape (http://www.inkscape.org/) -->

<svg
   width="24.166288mm"
   height="9mm"
   viewBox="0 0 24.166287 9.0000002"
   version="1.1"
   id="svg1"
   inkscape:version="1.4 (e7c3feb100, 2024-10-09)"
   sodipodi:docname="s1.svg"
   inkscape:export-filename="s1.png"
   inkscape:export-xdpi="2000"
   inkscape:export-ydpi="2000"
   xmlns:inkscape="http://www.inkscape.org/namespaces/inkscape"
   xmlns:sodipodi="http://sodipodi.sourceforge.net/DTD/sodipodi-0.dtd"
   xmlns="http://www.w3.org/2000/svg"
   xmlns:svg="http://www.w3.org/2000/svg">
  <sodipodi:namedview
     id="namedview1"
     pagecolor="#ffffff"
     bordercolor="#000000"
     borderopacity="0.25"
     inkscape:showpageshadow="2"
     inkscape:pageopacity="0.0"
     inkscape:pagecheckerboard="0"
     inkscape:deskcolor="#d1d1d1"
     inkscape:document-units="mm"
     inkscape:zoom="5.2118621"
     inkscape:cx="83.943126"
     inkscape:cy="14.58212"
     inkscape:window-width="1920"
     inkscape:window-height="1080"
     inkscape:window-x="0"
     inkscape:window-y="0"
     inkscape:window-maximized="0"
     inkscape:current-layer="layer1" />
  <defs
     id="defs1" />
  <g
     inkscape:label="Layer 1"
     inkscape:groupmode="layer"
     id="layer1"
     transform="translate(-107.15625,-104.24584)">
    <path
       id="rect1"
       style="fill:none;stroke:#000000;stroke-width:0.294597;stroke-linecap:round;stroke-linejoin:bevel;stroke-miterlimit:14.6;stroke-dasharray:none"
       d="m 108.16595,112.17685 h 3.31944 l 0.80549,0.92169 h 3.12078 l -2.47338,-2.83019 h -3.12078 l 0.80549,0.92169 h -3.31944"
       sodipodi:nodetypes="cccccccc" />
    <path
       id="rect1-9"
       style="fill:none;stroke:#000000;stroke-width:0.294597;stroke-linecap:round;stroke-linejoin:bevel;stroke-miterlimit:14.6;stroke-dasharray:none"
       d="m 123.54187,111.19004 h -3.31943 l -0.80549,-0.92169 h -3.12079 l 2.47339,2.83019 h 3.12078 l -0.80549,-0.92169 h 3.31944"
       sodipodi:nodetypes="cccccccc" />
    <path
       style="fill:#ffffff;fill-opacity:1;stroke:#000000;stroke-width:0.294597;stroke-linecap:square;stroke-linejoin:bevel;stroke-miterlimit:14.6;stroke-dasharray:none"
       d="m 119.36881,110.14326 -0.0956,0.38599 1.42736,2.10652 4.75337,-1.89704"
       id="path6"
       sodipodi:nodetypes="cccc" />
    <path
       id="rect2"
       style="fill:#ffffff;fill-opacity:1;stroke:#000000;stroke-width:0.294597;stroke-linecap:round;stroke-miterlimit:14.6;stroke-dasharray:none"
       d="m 119.33262,110.10803 c 0.015,0.0193 0.0295,0.0389 0.0433,0.0592 l 1.4422,2.11545 3.53857,-2.07735 c 0.94796,-0.55652 1.38033,-1.4898 0.96943,-2.09252 -0.4109,-0.60271 -1.50487,-0.63988 -2.45284,-0.0834 z" />
    <path
       style="fill:#ffffff;fill-opacity:1;stroke:#000000;stroke-width:0.294597;stroke-linecap:square;stroke-linejoin:bevel;stroke-miterlimit:14.6;stroke-dasharray:none"
       d="m 119.28522,110.17747 -0.0443,0.42008 1.45451,2.09701 0.0481,-0.44669"
       id="path3"
       sodipodi:nodetypes="cccc" />
    <path
       style="fill:#ffffff;fill-opacity:1;stroke:#000000;stroke-width:0.294597;stroke-linecap:square;stroke-miterlimit:14.6;stroke-dasharray:none"
       d="m 120.83676,112.5849 4.73093,-1.90086 5.3458,-2.56394"
       id="path4"
       sodipodi:nodetypes="ccc" />
    <path
       style="fill:#ffffff;fill-opacity:1;stroke:#000000;stroke-width:0.294597;stroke-linecap:square;stroke-miterlimit:14.6;stroke-dasharray:none"
       d="m 122.92646,108.00149 5.93626,-3.33694"
       id="path5"
       sodipodi:nodetypes="cc" />
    <path
       style="fill:#ffffff;fill-opacity:1;stroke:#000000;stroke-width:0.184123;stroke-linecap:square;stroke-linejoin:bevel;stroke-miterlimit:14.6;stroke-dasharray:none;stroke-opacity:1"
       d="m 120.51811,112.58581 c -0.5002,-0.24747 -1.5882,0.63518 -1.79086,-0.28805 -0.056,-0.59315 -0.90361,-0.48841 -0.63971,-1.03795"
       id="path26"
       sodipodi:nodetypes="ccc" />
    <path
       style="fill:#000000;fill-opacity:1;stroke:#000000;stroke-width:0.184123;stroke-linecap:square;stroke-linejoin:bevel;stroke-miterlimit:14.6;stroke-dasharray:none;stroke-opacity:1"
       d="m 118.4329,110.63982 c 0.20056,-0.18092 0.77682,0.14819 0.8561,0.13323"
       id="path31"
       sodipodi:nodetypes="cc" />
    <path
       style="fill:#ffffff;fill-opacity:1;stroke:#000000;stroke-width:0.294597;stroke-linecap:square;stroke-linejoin:bevel;stroke-miterlimit:14.6;stroke-dasharray:none;stroke-opacity:1"
       d="m 108.21328,106.79659 c 0.91195,0.0905 3.38075,0.30222 5.48598,1.71639 0.98565,0.6621 4.36725,2.84053 5.0951,3.0465 0.19909,0.13925 0.40876,-0.31209 0.26396,-0.45701 -0.73909,-0.26761 -3.93956,-2.42718 -5.06521,-3.16663 -2.15783,-1.41749 -4.79136,-1.67609 -5.73779,-1.72336"
       id="path9-7"
       sodipodi:nodetypes="csccsc" />
  </g>
</svg>
