<?xml version="1.0" encoding="UTF-8" standalone="no"?>
<!-- Created with Inkscape (http://www.inkscape.org/) -->

<svg
   version="1.1"
   id="svg1"
   width="90.474884"
   height="33.147491"
   viewBox="0 0 90.474884 33.147491"
   sodipodi:docname="s1_trace.svg"
   inkscape:version="1.4 (e7c3feb100, 2024-10-09)"
   xmlns:inkscape="http://www.inkscape.org/namespaces/inkscape"
   xmlns:sodipodi="http://sodipodi.sourceforge.net/DTD/sodipodi-0.dtd"
   xmlns="http://www.w3.org/2000/svg"
   xmlns:svg="http://www.w3.org/2000/svg">
  <defs
     id="defs1" />
  <sodipodi:namedview
     id="namedview1"
     pagecolor="#ffffff"
     bordercolor="#000000"
     borderopacity="0.25"
     inkscape:showpageshadow="2"
     inkscape:pageopacity="0.0"
     inkscape:pagecheckerboard="0"
     inkscape:deskcolor="#d1d1d1"
     inkscape:zoom="8.8313454"
     inkscape:cx="58.201778"
     inkscape:cy="8.4924773"
     inkscape:window-width="1920"
     inkscape:window-height="1080"
     inkscape:window-x="0"
     inkscape:window-y="0"
     inkscape:window-maximized="0"
     inkscape:current-layer="g1" />
  <g
     inkscape:groupmode="layer"
     inkscape:label="Image"
     id="g1"
     transform="translate(0.32656998,-5.5690062)">
    <path
       style="fill:#000000"
       d="m 71.020689,38.583296 c 0.168664,-0.09714 0.582279,-0.539202 1.604527,-1.714879 0.757506,-0.8712 1.400447,-1.599869 1.428756,-1.619265 0.02831,-0.01939 2.853732,-0.0356 6.278716,-0.036 l 6.227242,-7.35e-4 0.149477,-0.133557 c 0.205827,-0.183906 0.245961,-0.500897 0.08866,-0.700259 -0.224428,-0.284438 0.128234,-0.270184 -6.684679,-0.270184 -6.204434,0 -6.26119,8.61e-4 -6.493542,0.09852 -0.207893,0.08738 -0.397245,0.285443 -1.674401,1.751421 l -1.44,1.652898 -5.150722,5.79e-4 c -4.975463,5.6e-4 -5.148587,-0.0024 -5.088,-0.08695 0.0345,-0.04814 1.917153,-2.208138 4.183681,-4.799999 l 4.120958,-4.712468 h 5.135042 c 3.355311,0 5.129496,0.01641 5.119041,0.04735 -0.0088,0.02604 -0.500047,0.60091 -1.091661,1.277482 l -1.07566,1.230129 0.06076,0.16802 c 0.03342,0.09241 0.125408,0.306178 0.204427,0.475037 l 0.143671,0.307018 6.376087,-0.01252 6.376086,-0.01252 0.146549,-0.140407 c 0.24567,-0.235376 0.243152,-0.602921 -0.0057,-0.828122 -0.09207,-0.08332 -0.371006,-0.08861 -5.884092,-0.111471 l -5.787447,-0.024 1.048179,-1.2 c 0.576499,-0.66 1.077942,-1.235015 1.114319,-1.277812 0.0573,-0.06742 0.03871,-0.139564 -0.139171,-0.54 l -0.205314,-0.462184 h -5.880025 c -5.487099,0 -5.894221,0.0056 -6.092453,0.084 -0.1888,0.07466 -0.732518,0.678518 -4.888416,5.429146 -3.828905,4.376842 -4.671242,5.364057 -4.649789,5.449534 0.01441,0.05741 0.103224,0.271097 0.197365,0.474853 l 0.171166,0.370466 5.914547,-0.0011 5.914546,-0.0011 z m -24.507262,0.02295 c 0.151566,-0.08021 1.32801,-1.395745 4.85931,-5.433831 2.56263,-2.930398 4.648838,-5.354997 4.636018,-5.387997 -0.01282,-0.033 -0.0356,-0.09026 -0.05062,-0.127234 -0.01908,-0.04698 0.223138,-0.223081 0.804,-0.58454 2.574482,-1.60205 6.241549,-3.953869 8.365979,-5.365395 3.12446,-2.075971 5.557938,-3.281858 8.833331,-4.377275 3.634192,-1.215414 6.802751,-1.859603 11.566956,-2.351641 0.659425,-0.0681 1.208013,-0.132884 1.219085,-0.143955 0.02483,-0.02483 -0.07445,-1.030371 -0.104728,-1.060647 -0.02224,-0.02224 -0.793399,0.05098 -2.385313,0.226479 -6.404748,0.706067 -12.045365,2.352604 -16.57785,4.839197 -1.052623,0.577486 -1.61795,0.925557 -3.260326,2.007376 -5.949632,3.918971 -12.021803,7.679022 -15.373329,9.519577 -1.488097,0.817217 -2.985196,1.513861 -3.174568,1.47722 -0.109331,-0.02115 -0.299384,-0.412912 -0.298433,-0.615163 7.77e-4,-0.165283 0.0083,-0.171492 0.463909,-0.384 2.086389,-0.973098 6.361897,-3.642548 15.468597,-9.65795 3.975377,-2.625922 4.708554,-3.078358 6.24,-3.850635 3.18765,-1.607468 6.460685,-2.735147 10.394009,-3.581114 2.384765,-0.512907 5.37887,-0.913945 7.792506,-1.043746 l 0.642516,-0.03455 -0.0094,-0.501297 c -0.0052,-0.275713 -0.02215,-0.521888 -0.03771,-0.547055 -0.06139,-0.09933 -2.538532,0.08485 -4.429894,0.329368 -5.930717,0.76673 -11.49946,2.496942 -15.919197,4.946105 -1.09048,0.604281 -1.519679,0.876382 -4.864802,3.084164 -4.74793,3.133635 -7.448386,4.891533 -9.686094,6.305293 l -0.974092,0.615421 h -2.901907 c -1.596048,0 -2.901906,-0.01728 -2.901906,-0.0384 0,-0.02112 0.02348,-0.06188 0.05217,-0.09058 0.0654,-0.0654 -0.08358,-0.255024 -0.200369,-0.255024 -0.04337,0 -0.133779,-0.0432 -0.200904,-0.096 -0.06712,-0.0528 -0.134113,-0.096 -0.148864,-0.096 -0.01475,0 -0.626944,-0.353028 -1.360429,-0.784507 -0.733485,-0.431478 -2.402809,-1.411566 -3.709609,-2.177972 -1.3068,-0.766407 -3.618,-2.123428 -5.136,-3.015603 -1.518,-0.892174 -2.9976,-1.756312 -3.288,-1.920305 C 30.391505,18.17091 8.0009617,5.6042516 7.9356597,5.5692159 c -0.02934,-0.015743 -0.526215,0.8599278 -0.526215,0.927385 0,0.024209 4.1690503,2.3857729 9.2645553,5.2479191 l 9.264556,5.203901 -0.612556,0.03084 c -2.619425,0.13189 -4.399432,1.370984 -4.86524,3.386777 -0.14074,0.609057 -0.111147,1.546685 0.06938,2.198381 0.430988,1.555805 1.540945,3.093066 3.112095,4.310164 0.625488,0.484538 0.45961,0.384807 7.726561,4.64543 3.520355,2.063989 6.422245,3.773084 6.448645,3.797989 0.06032,0.0569 0.938241,0.405265 -8.712,-3.456961 l -8.28,-3.313827 -10.104,-4.844155 C 5.1642407,21.038774 0.50665672,18.802607 0.37125472,18.733799 l -0.246187,-0.125106 -0.239937,0.489863 c -0.131965,0.269424 -0.226382,0.504553 -0.209814,0.522508 0.01657,0.01795 4.64665798,2.245123 10.28908898,4.949263 5.6424313,2.70414 10.2864313,4.937951 10.3200003,4.964024 0.03357,0.02607 2.596513,1.060504 5.69543,2.298736 l 5.634394,2.251331 -3.410905,0.024 c -3.368812,0.0237 -3.412577,0.02524 -3.546394,0.124585 -0.157024,0.116571 -0.257285,0.372385 -0.220784,0.563326 0.01396,0.07304 0.08913,0.196537 0.167032,0.274443 l 0.141647,0.141646 4.856307,0.0024 4.856308,0.0024 0.68599,0.276549 0.685989,0.276549 -0.865989,0.989362 c -0.476295,0.544149 -0.86599,1.020419 -0.86599,1.058378 0,0.03796 0.08622,0.255638 0.191598,0.48373 l 0.191598,0.414712 5.916402,-0.0022 5.916402,-0.0022 z M 35.729445,37.590777 c 0,-0.01657 0.94468,-1.11376 1.154277,-1.34062 0.02191,-0.02372 0.43922,0.11784 0.95112,0.32264 0.807533,0.323077 0.928507,0.359174 1.055434,0.314927 0.09992,-0.03483 0.199088,-0.0345 0.327264,0.0011 0.246724,0.06851 0.227175,0.07574 0.367127,-0.135743 0.284616,-0.430083 1.058205,-0.45293 2.576778,-0.0761 1.181498,0.293183 1.478847,0.354319 1.970941,0.40523 1.446356,0.149639 2.336665,-0.49334 2.634827,-1.902863 0.169159,-0.799683 0.34487,-1.013732 1.404047,-1.7104 1.018433,-0.66987 1.209889,-0.931875 1.183813,-1.620039 l -0.01438,-0.379567 0.766378,-0.426366 c 0.621995,-0.346041 2.132222,-1.221785 3.162915,-1.834097 0.134138,-0.07969 -0.489087,0.663495 -2.16,2.575757 -1.291696,1.478269 -2.964138,3.393364 -3.716538,4.255765 l -1.368,1.568002 -5.148,0.002 c -2.8314,0.0011 -5.148,-0.0077 -5.148,-0.01963 z m 8.16,-1.228946 c -0.1716,-0.02742 -0.798,-0.167432 -1.392,-0.31113 -0.594,-0.143697 -1.322925,-0.288497 -1.619834,-0.321776 l -0.539834,-0.06051 2.063843,-2.97259 2.063843,-2.97259 0.491991,-0.183526 c 0.859059,-0.320452 1.393452,-0.472709 1.763991,-0.502588 0.244894,-0.01975 0.344653,-0.01334 0.312,0.02003 -0.08422,0.08608 -1.377998,0.765015 -1.764189,0.925788 -0.646801,0.269265 -0.779811,0.473514 -0.779811,1.197474 0,0.466278 0.01137,0.527998 0.151897,0.824622 0.272812,0.575845 0.687733,0.927433 1.160588,0.983436 0.196567,0.02328 0.316188,-0.009 0.920717,-0.248431 0.382139,-0.151353 0.972493,-0.414291 1.311899,-0.584307 0.339405,-0.170015 0.628198,-0.298021 0.641762,-0.284457 0.06234,0.06234 -0.05111,0.363664 -0.191439,0.508462 -0.08548,0.0882 -0.435242,0.342857 -0.777241,0.565896 -1.037229,0.67644 -1.415866,1.14648 -1.587803,1.971093 -0.168592,0.808572 -0.482112,1.269008 -0.965103,1.417352 -0.276724,0.08499 -0.831016,0.09715 -1.265277,0.02775 z m -4.557234,-1.829414 c -0.0015,-0.0968 -0.02154,-0.1832 -0.04449,-0.192 -0.02295,-0.0088 0.986849,-1.47538 2.244,-3.259067 2.283763,-3.240279 2.285762,-3.242921 2.324493,-3.072 0.02132,0.09409 0.03144,0.279067 0.02249,0.411067 -0.01556,0.2295 -0.113858,0.380284 -2.246764,3.446462 l -2.230491,3.206462 -0.03323,-0.182462 c -0.01828,-0.100354 -0.03448,-0.261662 -0.036,-0.358462 z m -7.706766,-4.145884 c -3.4584,-2.026787 -6.495481,-3.822254 -6.749069,-3.989928 -1.272131,-0.841137 -2.315617,-1.978805 -2.898572,-3.160187 -0.339519,-0.68805 -0.457399,-1.116114 -0.489072,-1.776 -0.0457,-0.952116 0.182085,-1.563665 0.824171,-2.21271 0.438787,-0.443543 0.80226,-0.664909 1.440542,-0.877335 1.281684,-0.426556 2.890377,-0.374075 4.536,0.147978 1.133665,0.359641 1.280712,0.438374 6.072,3.251088 1.584,0.929884 4.246725,2.492815 5.917167,3.47318 1.996915,1.17197 3.029043,1.803654 3.013448,1.844293 -0.01305,0.034 -1.128086,1.68024 -2.477868,3.658321 l -2.45415,3.596511 -0.223298,-0.135072 c -0.122815,-0.07429 -3.052899,-1.793352 -6.511299,-3.820139 z m 13.37763,-1.990498 -0.01437,-0.383617 h 1.906369 c 1.048504,0 1.891851,0.01452 1.874106,0.03226 -0.01775,0.01775 -0.237313,0.154478 -0.487929,0.303851 l -0.455665,0.271588 -0.281735,-0.139641 c -0.240898,-0.1194 -0.337918,-0.13964 -0.669345,-0.13964 -0.411353,0 -0.955814,0.115634 -1.497062,0.317952 -0.1716,0.06414 -0.3228,0.117578 -0.336,0.118743 -0.0132,0.0012 -0.03047,-0.170509 -0.03837,-0.381499 z"
       id="path1" />
  </g>
</svg>
