<?xml version="1.0" encoding="UTF-8" standalone="no"?>
<!-- Created with Inkscape (http://www.inkscape.org/) -->

<svg
   version="1.1"
   id="svg1"
   width="93.212303"
   height="34.368847"
   viewBox="0 0 93.212303 34.368847"
   sodipodi:docname="s2_trace.svg"
   inkscape:version="1.4 (e7c3feb100, 2024-10-09)"
   xmlns:inkscape="http://www.inkscape.org/namespaces/inkscape"
   xmlns:sodipodi="http://sodipodi.sourceforge.net/DTD/sodipodi-0.dtd"
   xmlns="http://www.w3.org/2000/svg"
   xmlns:svg="http://www.w3.org/2000/svg">
  <defs
     id="defs1" />
  <sodipodi:namedview
     id="namedview1"
     pagecolor="#ffffff"
     bordercolor="#000000"
     borderopacity="0.25"
     inkscape:showpageshadow="2"
     inkscape:pageopacity="0.0"
     inkscape:pagecheckerboard="0"
     inkscape:deskcolor="#d1d1d1"
     inkscape:zoom="7.4157956"
     inkscape:cx="35.262568"
     inkscape:cy="15.507439"
     inkscape:window-width="1920"
     inkscape:window-height="1080"
     inkscape:window-x="0"
     inkscape:window-y="0"
     inkscape:window-maximized="0"
     inkscape:current-layer="g1" />
  <g
     inkscape:groupmode="layer"
     inkscape:label="Image"
     id="g1"
     transform="translate(-12.175065,-6.741521)">
    <path
       style="fill:#000000"
       d="m 80.634175,41.005395 c 0.135841,-0.07005 0.576284,-0.539511 1.505827,-1.605022 l 1.313826,-1.506008 h 5.733866 5.733866 l 0.140307,-0.140308 c 0.195738,-0.195737 0.195837,-0.468027 2.51e-4,-0.686935 l -0.140057,-0.156757 -5.847943,-0.01348 -5.847943,-0.01348 -0.216,0.103248 c -0.17394,0.08314 -0.471182,0.396543 -1.526498,1.609478 l -1.310498,1.50623 H 75.44482 70.716461 l 0.199563,-0.23667 c 0.10976,-0.130169 0.233597,-0.249731 0.275194,-0.265693 0.0416,-0.01596 1.641062,-0.02664 3.554367,-0.02374 3.309099,0.005 3.482766,10e-4 3.561388,-0.08231 0.04546,-0.04818 1.233913,-1.372794 2.64101,-2.943594 1.407096,-1.5708 2.64112,-2.947317 2.742274,-3.058928 l 0.183918,-0.20292 v -0.985073 -0.985072 h 1.970833 c 1.564276,0 1.963248,0.01238 1.934064,0.06 -0.02022,0.033 -0.464298,0.54985 -0.986833,1.148555 -0.522535,0.598705 -0.950064,1.112543 -0.950064,1.141862 0,0.02932 0.07861,0.22527 0.17468,0.435445 l 0.17468,0.382138 h 5.846643 5.846644 l 0.123522,-0.108 c 0.243035,-0.212494 0.238108,-0.629592 -0.0094,-0.79175 -0.120039,-0.07866 -0.478034,-0.08584 -5.395887,-0.10825 l -5.267318,-0.024 1.004898,-1.152 c 0.552694,-0.6336 1.005032,-1.167808 1.005194,-1.187129 1.63e-4,-0.01932 -0.08471,-0.219122 -0.188603,-0.444 L 88.96833,30.262361 h -2.547102 -2.547101 v -0.794182 c 0,-0.779205 -0.0022,-0.796403 -0.117818,-0.912 l -0.117818,-0.117818 h -4.058182 c -2.232,0 -4.058182,-0.01239 -4.058182,-0.02754 0,-0.04033 0.665924,-1.17877 1.191214,-2.036463 0.460153,-0.751335 1.402187,-2.168357 1.603602,-2.412159 0.102895,-0.12455 0.252962,-0.164068 2.605184,-0.686044 9.541211,-2.117264 16.851802,-3.990695 21.528003,-5.516821 0.7524,-0.245553 1.7136,-0.548694 2.136,-0.673645 0.4224,-0.124952 0.78197,-0.240717 0.79905,-0.257256 0.0274,-0.02651 -0.21075,-0.897775 -0.25839,-0.945411 -0.0258,-0.02577 -1.70116,0.485156 -3.08466,0.940686 -2.231443,0.734722 -6.232104,1.847236 -10.608003,2.9499 -3.304883,0.832784 -5.521983,1.350306 -11.208,2.616205 -5.634112,1.254343 -6.864487,1.551158 -7.287377,1.758003 -0.912714,0.446428 -2.044636,1.7821 -3.506801,4.138034 -0.940789,1.515862 -1.66269,2.780806 -3.935823,6.896511 -1.543113,2.793941 -1.563828,2.825147 -1.764728,2.658415 -0.09716,-0.08064 -0.10595,-0.04219 0.453877,-1.986415 0.26606,-0.924 0.893863,-3.2136 1.395117,-5.088 0.501253,-1.8744 1.033088,-3.8292 1.181855,-4.344 0.973219,-3.367788 1.771,-5.164751 2.680347,-6.037353 0.283228,-0.271734 0.431111,-0.358293 1.504836,-0.880779 8.674904,-4.221306 12.341029,-5.733224 23.341616,-9.6261403 1.22698,-0.4342065 2.236537,-0.7951317 2.243461,-0.8020558 0.01304,-0.013039 -0.27572,-0.9033752 -0.303634,-0.9361984 -0.01772,-0.020842 -0.154091,0.026039 -2.802698,0.9635276 C 83.157348,12.73807 78.564722,14.63607 70.740185,18.478826 l -1.618138,0.794694 -0.417559,0.418423 c -1.23498,1.237535 -2.169379,3.518122 -3.499987,8.542422 l -0.05403,0.204 h -2.702879 -2.702879 l -1.282775,0.912 -1.282775,0.912 -0.728496,0.0011 c -0.704327,0.0011 -0.73608,0.0055 -0.957086,0.132 -0.169641,0.09713 -0.551669,0.502234 -1.481389,1.570879 -0.68904,0.792 -1.281986,1.456832 -1.317659,1.477405 -0.03567,0.02057 -0.344063,0.03137 -0.685311,0.024 l -0.620447,-0.01338 1.525799,-2.199695 c 0.953492,-1.374618 1.54339,-2.268997 1.572697,-2.384456 0.03384,-0.133324 0.02259,-0.408518 -0.0404,-0.988501 -0.051,-0.469506 -0.07028,-0.835546 -0.04637,-0.880226 0.04978,-0.09302 -0.03163,-0.21626 -0.166329,-0.251773 -0.07912,-0.02086 -8.436873,-4.909823 -11.765246,-6.882216 -0.504486,-0.298958 -1.238886,-0.714703 -1.632,-0.923879 C 39.987059,18.49141 26.055616,10.87869 24.810175,10.185939 23.959942,9.713014 19.193307,7.0079045 18.899824,6.83176 L 18.749472,6.741521 18.497907,7.1839727 c -0.159444,0.2804302 -0.230685,0.4494116 -0.194546,0.4614579 0.03136,0.010453 0.07466,0.065341 0.09621,0.1219722 0.0273,0.071724 0.598007,0.4080338 1.880898,1.1083909 3.160164,1.7252003 4.457454,2.4536253 10.3479,5.8103213 3.541312,2.018032 5.700016,3.274913 5.664,3.297801 -0.03201,0.02034 -0.13843,0.03731 -0.236494,0.03772 -0.31407,0.0013 -1.109744,0.178847 -1.560912,0.348312 -1.025721,0.385277 -1.796029,1.055085 -2.222367,1.932423 -0.265421,0.546196 -0.351885,0.944807 -0.354002,1.632 -0.0026,0.841843 0.156148,1.462249 0.598709,2.339935 0.640426,1.270092 1.928896,2.585135 3.42887,3.499588 0.2376,0.144852 3.024,1.78271 6.192,3.639685 3.168,1.856974 5.7816,3.395968 5.808,3.419987 0.0264,0.02402 -0.0708,-0.0028 -0.216,-0.05961 -0.512598,-0.200528 -15.003974,-6.011279 -15.283981,-6.128569 -0.15619,-0.06543 -4.654038,-2.298228 -9.995218,-4.961782 -6.263962,-3.123729 -9.739362,-4.832034 -9.790462,-4.812425 -0.0631,0.02424 -0.51819,0.879177 -0.48357,0.908557 0.005,0.0043 2.54723,1.260922 5.649231,2.79247 3.102,1.531549 6.9576,3.437388 8.568,4.235197 6.133939,3.03882 5.412871,2.71315 10.579492,4.778207 4.486053,1.793038 4.666386,1.869823 4.450746,1.895102 -0.287561,0.03371 -0.459371,0.196175 -0.495963,0.46899 -0.02401,0.178983 -0.01031,0.214234 0.142785,0.367324 l 0.169342,0.169342 h 1.492939 1.492938 l 2.219862,0.891317 c 1.220923,0.490224 2.268461,0.888174 2.327861,0.884333 0.314382,-0.02033 0.38277,-0.01843 0.501996,0.01391 0.124878,0.03388 0.15501,-6.63e-4 0.765233,-0.877147 l 0.635236,-0.912413 h 0.422768 c 0.232522,0 0.422767,0.01884 0.422767,0.04187 0,0.120281 -0.273962,0.857617 -0.474897,1.278127 -0.371596,0.777666 -1.031951,1.674743 -1.713685,2.328 l -0.275509,0.264 0.168211,-0.24 c 0.09252,-0.132 0.302546,-0.430946 0.466733,-0.664324 0.164186,-0.233378 0.291615,-0.460178 0.283174,-0.504 -0.0142,-0.07372 -0.454477,-0.07968 -5.886628,-0.07968 h -5.871281 l -0.140059,0.156757 c -0.195588,0.218907 -0.19549,0.491197 2.49e-4,0.686935 l 0.140307,0.140315 h 5.287693 c 3.093838,0 5.281054,0.01783 5.271692,0.04299 -0.0088,0.02364 -0.4372,0.524543 -0.952,1.113113 -0.5148,0.58857 -0.962646,1.106972 -0.995213,1.152005 -0.04933,0.06821 -0.02737,0.150796 0.131598,0.494887 l 0.190811,0.413005 5.412402,-0.0036 c 4.954496,-0.0033 5.427747,-0.01037 5.593781,-0.084 0.12341,-0.05473 0.369308,-0.295208 0.769403,-0.75244 l 0.588025,-0.672 5.122597,-0.01222 c 2.817428,-0.0067 5.122499,0.0041 5.12238,0.024 -1.18e-4,0.01992 -0.122269,0.173042 -0.271446,0.340272 l -0.271231,0.304055 0.156128,0.343945 c 0.08587,0.18917 0.16734,0.381745 0.181045,0.427945 0.02355,0.07938 0.323522,0.08384 5.455318,0.08102 5.388533,-0.003 5.431882,-0.0037 5.622402,-0.101992 z m -32.328629,-0.93903 c -3.45e-4,-0.0198 0.437877,-0.468 0.973828,-0.996 0.535951,-0.528 1.105826,-1.122266 1.266388,-1.32059 0.664786,-0.821133 1.158039,-1.704191 1.454195,-2.60341 l 0.154135,-0.468 h 1.628041 1.628042 v 2.136 2.136 l -0.156,1.17e-4 c -0.449942,3.36e-4 -1.443897,0.10637 -1.723262,0.183836 -0.175545,0.04868 -0.542725,0.216201 -0.815955,0.372275 l -0.496783,0.283772 0.201397,0.01463 c 0.110768,0.008 0.315968,-0.01963 0.456,-0.06151 0.425987,-0.127398 1.411175,-0.173526 3.395681,-0.158989 l 1.893077,0.01387 -0.213077,0.248466 -0.213078,0.248466 -4.716,0.0035 c -2.5938,0.0019 -4.716283,-0.01267 -4.716629,-0.03247 z m 3.459232,-1.204562 c 0.252286,-0.16145 0.916285,-0.844433 1.146811,-1.179602 0.165159,-0.240128 0.430925,-0.813286 0.433287,-0.934436 0.0016,-0.08295 -0.208926,0.1788 -0.587577,0.730484 -0.160014,0.233136 -0.411578,0.557714 -0.55903,0.721286 -0.335404,0.372071 -0.69118,0.79883 -0.665961,0.79883 0.01049,0 0.115101,-0.06145 0.23247,-0.136562 z m 22.893397,-0.959681 c 0,-0.576533 0.01425,-1.537733 0.03166,-2.136 l 0.03165,-1.087757 h 1.504347 1.504343 v 2.136 2.136 h -1.536 -1.536 z m 3.744,-1.418815 V 34.54425 l 2.376426,-2.440943 c 1.307034,-1.342518 2.397834,-2.448142 2.424,-2.456942 0.03084,-0.01037 0.04757,0.582655 0.04757,1.685794 v 1.701794 l -2.412,2.692014 c -1.3266,1.480608 -2.4174,2.693001 -2.424,2.694206 -0.0066,0.0012 -0.012,-0.870384 -0.012,-1.936866 z M 49.303047,34.259132 c -0.01253,-0.152222 -0.03135,-0.30003 -0.04182,-0.328463 -0.01048,-0.02843 0.920552,-1.3866 2.068952,-3.018148 l 2.088,-2.966451 0.03323,0.186147 c 0.08383,0.469528 0.183333,0.297924 -2.013234,3.471904 -1.1286,1.630796 -2.065579,2.95759 -2.082175,2.948431 -0.0166,-0.0092 -0.04042,-0.141198 -0.05295,-0.29342 z m 26.702707,-1.104767 c 0.488543,-0.495 1.592682,-1.6182 2.453642,-2.496 l 1.565383,-1.596 h 1.376698 c 0.759463,0 1.369525,0.0187 1.360698,0.0417 -0.0088,0.02294 -1.0852,1.145257 -2.392,2.494047 l -2.376,2.452344 -1.43834,0.002 -1.438341,0.002 z m -22.995579,0.879978 c 0,-0.01101 1.563384,-1.134213 3.474187,-2.496 l 3.474188,-2.475978 h 1.397812 c 0.768797,0 1.397023,0.0162 1.396056,0.036 -9.66e-4,0.0198 -1.604766,1.142948 -3.564,2.495884 l -3.562243,2.459885 -1.308,1.15e-4 c -0.7194,6.4e-5 -1.308,-0.0089 -1.308,-0.01991 z m -10.431095,-3.5396 c -3.199298,-1.878591 -5.964731,-3.503991 -6.145406,-3.612 -0.948654,-0.567105 -2.104508,-1.634241 -2.637117,-2.434703 -1.132921,-1.702676 -1.172066,-3.31679 -0.106382,-4.386659 1.438988,-1.44464 4.485326,-1.408706 7.199789,0.08493 0.476868,0.262396 2.357032,1.361577 9.120211,5.331853 1.2144,0.712905 2.375644,1.394464 2.580541,1.514574 0.204898,0.120111 0.366898,0.233677 0.36,0.25237 -0.01885,0.05108 -4.522171,6.661115 -4.539636,6.663339 -0.0083,0.0011 -2.632703,-1.535109 -5.832,-3.413701 z m 28.342447,-2.644378 c 0.39801,-0.595123 0.995246,-1.428 1.023983,-1.428 0.0086,0 -0.05841,0.2754 -0.14894,0.612 -0.09053,0.3366 -0.209952,0.7902 -0.265388,1.008 l -0.100794,0.396 h -0.451054 -0.451055 z"
       id="path1" />
  </g>
</svg>
