<?xml version="1.0" encoding="UTF-8" standalone="no"?>
<!-- Created with Inkscape (http://www.inkscape.org/) -->

<svg
   version="1.1"
   id="svg1"
   width="86.151024"
   height="30.198767"
   viewBox="0 0 86.151024 30.198767"
   sodipodi:docname="s3_trace.svg"
   inkscape:version="1.4 (e7c3feb100, 2024-10-09)"
   xmlns:inkscape="http://www.inkscape.org/namespaces/inkscape"
   xmlns:sodipodi="http://sodipodi.sourceforge.net/DTD/sodipodi-0.dtd"
   xmlns="http://www.w3.org/2000/svg"
   xmlns:svg="http://www.w3.org/2000/svg">
  <defs
     id="defs1" />
  <sodipodi:namedview
     id="namedview1"
     pagecolor="#ffffff"
     bordercolor="#000000"
     borderopacity="0.25"
     inkscape:showpageshadow="2"
     inkscape:pageopacity="0.0"
     inkscape:pagecheckerboard="0"
     inkscape:deskcolor="#d1d1d1"
     inkscape:zoom="24.335655"
     inkscape:cx="51.508785"
     inkscape:cy="13.519258"
     inkscape:window-width="1920"
     inkscape:window-height="1080"
     inkscape:window-x="0"
     inkscape:window-y="0"
     inkscape:window-maximized="0"
     inkscape:current-layer="g1" />
  <g
     inkscape:groupmode="layer"
     inkscape:label="Image"
     id="g1"
     transform="translate(-8.6306934,-25.255223)">
    <path
       style="fill:#000000"
       d="m 51.302284,55.372271 c 0.132417,-0.05441 0.479878,-0.419802 1.399144,-1.471336 0.672638,-0.76942 1.278132,-1.458345 1.345542,-1.530945 l 0.122563,-0.132 h 5.713535 5.713535 l 0.149206,-0.133315 c 0.259082,-0.231491 0.193424,-0.648987 -0.125894,-0.800513 -0.135341,-0.06422 -0.538388,-0.07447 -3.005052,-0.07643 l -2.848745,-0.0023 2.976,-1.195492 2.976,-1.195492 1.424317,-0.0023 1.424317,-0.0023 0.146051,-0.122894 c 0.341254,-0.287146 0.19689,-0.755662 -0.271437,-0.880912 -0.0866,-0.02316 0.66599,-0.342655 3.100556,-1.31627 l 3.214913,-1.285544 3.016642,-1.490413 C 89.061791,38.156671 92.411249,36.50315 93.521918,35.959311 l 1.259799,-0.61686 -0.226632,-0.456231 c -0.15926,-0.320604 -0.252036,-0.45623 -0.312089,-0.45623 -0.047,0 -3.751927,1.828004 -8.233167,4.062232 -4.481241,2.234228 -8.871311,4.419034 -9.755711,4.855125 -1.553219,0.76588 -1.874512,0.899658 -9.430963,3.926805 -4.30263,1.723652 -7.827747,3.129128 -7.833595,3.12328 -0.0058,-0.0058 2.693686,-1.596246 5.998963,-3.53422 3.305277,-1.937974 6.220357,-3.662493 6.477956,-3.832266 0.990478,-0.652781 1.920611,-1.560748 2.538531,-2.478034 1.363748,-2.024445 1.384183,-4.135454 0.05372,-5.549741 -0.823056,-0.874914 -1.981658,-1.357412 -3.434557,-1.430316 l -0.615103,-0.03086 4.543177,-2.562394 c 3.697377,-2.085355 4.067358,-2.363707 4.078547,-2.391252 0.01119,-0.02754 -0.08162,-0.236677 -0.206233,-0.464739 -0.207352,-0.379474 -0.234956,-0.410269 -0.325329,-0.362936 -0.05431,0.02845 -1.031846,0.689025 -5.493446,3.123854 -4.4616,2.434828 -6.184758,3.456529 -6.557645,3.655963 -0.372887,0.199435 -1.290887,0.723719 -2.04,1.165076 -0.749113,0.441356 -3.424823,2.011262 -5.946024,3.488678 -2.5212,1.477417 -4.743335,2.781058 -4.938078,2.896981 -0.194744,0.115923 -0.389348,0.210769 -0.432454,0.210769 -0.123143,0 -0.21037,0.172642 -0.142299,0.281642 0.108086,0.173073 0.02115,0.246358 -0.292251,0.246358 H 51.96894 l -0.406603,-0.804 C 50.571516,40.06679 49.515264,38.419924 48.460666,37.189995 46.923269,35.396998 44.600697,33.754229 41.433302,32.219498 39.709123,31.384064 38.792333,31.00265 33.366116,28.863286 29.769452,27.44525 28.041855,26.554892 26.77436,25.466069 l -0.237389,-0.203925 -0.317427,0.362516 c -0.174586,0.199384 -0.317428,0.381657 -0.317428,0.405051 0,0.02339 0.2322,0.229142 0.516,0.457217 1.399148,1.124423 3.170647,1.992547 7.622234,3.735277 2.922873,1.144261 4.092144,1.618493 5.253767,2.13082 5.026166,2.216758 7.629644,4.14847 9.641955,7.154075 1.558502,2.32779 3.07337,5.588593 4.175035,8.986895 l 0.194509,0.6 -0.11842,0.106274 c -0.133795,0.120073 -0.459469,0.231964 -0.561361,0.192864 -0.03712,-0.01424 -0.128555,-0.195377 -0.203192,-0.402518 -1.157061,-3.211212 -2.921065,-6.804467 -4.315137,-8.789883 -1.532125,-2.182029 -3.300186,-3.726623 -5.993821,-5.236254 -1.956247,-1.096367 -3.356336,-1.699187 -8.603569,-3.704341 -3.604781,-1.377515 -5.21079,-2.11372 -6.888,-3.157504 -0.550089,-0.342338 -1.268462,-0.858744 -1.674235,-1.20353 l -0.258235,-0.219423 -0.191093,0.215157 c -0.105101,0.118337 -0.254624,0.295291 -0.332273,0.393232 l -0.141181,0.178075 0.518509,0.413914 c 0.972398,0.776244 2.043878,1.443535 3.44362,2.144597 1.475674,0.739093 2.647767,1.227448 6.194888,2.581112 4.901594,1.870562 6.774174,2.742872 8.904001,4.14778 1.866761,1.23138 3.122826,2.463918 4.33362,4.252448 0.447552,0.661103 1.09038,1.713133 1.09038,1.784477 0,0.02174 -4.077209,0.03952 -9.060465,0.03952 h -9.060466 l -1.055535,0.750912 c -0.580544,0.413001 -1.160559,0.823401 -1.288921,0.912 l -0.233386,0.161091 h -0.716156 c -0.506545,0 -0.763407,0.01974 -0.877595,0.06745 -0.112929,0.04719 -0.560702,0.52316 -1.490143,1.584 l -1.328702,1.51655 h -5.6867 c -6.318408,0 -5.905533,-0.02186 -6.048436,0.32016 -0.09269,0.221835 -0.04727,0.414249 0.133715,0.566542 l 0.144154,0.121293 h 5.132318 c 4.342854,0 5.132317,0.01024 5.132317,0.06654 0,0.131308 -0.254549,0.829632 -0.456904,1.253461 -0.26425,0.553464 -0.584933,1.041499 -1.040832,1.584 -0.412734,0.491137 -1.003148,1.07557 -0.800104,0.792 0.514298,-0.718267 0.766509,-1.116305 0.752716,-1.187932 -0.0153,-0.07944 -0.332076,-0.08484 -5.751533,-0.09809 -4.056165,-0.0099 -5.7887163,0.0014 -5.9176393,0.03862 -0.399076,0.115221 -0.489248,0.607705 -0.160087,0.874335 0.0956,0.07744 0.45151,0.083 5.3703833,0.084 2.8974,5.88e-4 5.268,0.01775 5.268,0.03814 0,0.02039 -0.451306,0.553425 -1.002901,1.18453 l -1.002902,1.147462 0.167369,0.36347 c 0.09205,0.199902 0.17847,0.390464 0.192037,0.423464 0.01953,0.04751 1.1504,0.05978 5.431532,0.05895 5.129493,-10e-4 5.416753,-0.0055 5.599617,-0.08862 0.135311,-0.06147 0.362828,-0.282874 0.763461,-0.742948 l 0.570708,-0.655382 h 5.131808 5.131809 l -0.09703,0.136263 c -0.05336,0.07495 -0.131445,0.164826 -0.173509,0.199737 -0.04206,0.03491 -0.118406,0.122351 -0.169646,0.194311 l -0.09317,0.130838 0.191003,0.413425 0.191003,0.413426 5.412403,-0.0047 c 4.706774,-0.0041 5.435369,-0.0141 5.588569,-0.07705 z M 41.456085,54.40999 c 0.0011,-0.0198 0.08502,-0.1278 0.186522,-0.24 l 0.184553,-0.204 h 3.481553 c 1.914854,0 3.515666,-0.01309 3.557361,-0.02909 0.04169,-0.016 0.790933,-0.825532 1.664973,-1.798961 l 1.589165,-1.769871 0.350953,0.02967 c 0.554426,0.04687 1.099463,-0.138489 1.47902,-0.502982 0.390107,-0.374625 0.455889,-0.731624 0.247794,-1.344778 l -0.119468,-0.352016 0.247002,-0.283984 c 0.13585,-0.156195 0.252555,-0.283988 0.259342,-0.283988 0.02098,0 2.469262,3.541079 2.469262,3.571428 0,0.01572 -0.699254,0.02857 -1.553898,0.02857 -1.451529,0 -1.56825,0.0063 -1.771752,0.09637 -0.182472,0.08072 -0.43097,0.341555 -1.530101,1.606093 l -1.312249,1.509726 -4.716,0.0019 c -2.5938,10e-4 -4.715114,-0.01429 -4.714032,-0.03409 z M 19.032483,54.36051 c 0.02516,-0.04701 0.427153,-0.450288 0.893318,-0.896177 0.892485,-0.853666 1.45974,-1.492773 1.855335,-2.090343 0.342288,-0.517048 0.725329,-1.302308 0.90985,-1.865254 L 22.85053,49.02199 h 1.645793 1.645793 v 1.264305 c 0,0.695368 -0.01414,1.654717 -0.03143,2.131887 l -0.03142,0.867582 -0.508575,0.02842 c -0.911515,0.05093 -1.407791,0.148747 -1.826913,0.360083 -0.207064,0.104409 -0.481145,0.25555 -0.60907,0.335868 l -0.232591,0.146034 0.216,3.92e-4 c 0.1188,2.16e-4 0.320839,-0.03141 0.448975,-0.07029 0.449733,-0.136444 1.418396,-0.177228 3.376919,-0.142182 l 1.881895,0.03367 -0.197408,0.234115 -0.197408,0.234114 h -4.722176 c -4.513481,0 -4.720153,-0.0038 -4.67643,-0.08547 z m 3.466431,-1.169673 c 0.315309,-0.225659 0.856974,-0.797807 1.110652,-1.173155 0.123295,-0.182431 0.278916,-0.482892 0.345823,-0.667692 l 0.12165,-0.336 -0.168503,0.192 c -0.09268,0.1056 -0.285763,0.3648 -0.429078,0.576 -0.284412,0.41913 -0.511186,0.702209 -0.978285,1.221188 -0.331181,0.367963 -0.33185,0.42354 -0.0023,0.187659 z m 22.891203,-2.033521 v -2.136675 l 1.524,0.01268 1.524,0.01267 0.0125,2.124 0.0125,2.124 h -1.5365 -1.536499 z m 4.459826,-3.030845 c 0.420707,-0.43532 0.780973,-0.791373 0.800591,-0.79123 0.04226,3.08e-4 0.238833,0.47757 0.692255,1.680773 l 0.332387,0.882024 -0.13053,0.155298 c -0.07179,0.08541 -0.648929,0.732478 -1.282529,1.43792 l -1.152,1.282621 -0.01255,-1.927958 -0.01255,-1.927959 z M 55.4519,47.080402 c -2.149031,-3.095444 -2.048047,-2.92039 -1.959017,-3.395922 0.03319,-0.177278 0.03595,-0.173653 2.108927,2.7679 l 2.075693,2.94541 -0.02775,0.3041 c -0.03823,0.419043 -0.05535,0.463041 -0.135532,0.348389 -0.0355,-0.05076 -0.963545,-1.387204 -2.062325,-2.969877 z m 0.817081,-0.924044 c -1.237025,-1.813508 -2.25709,-3.32003 -2.266811,-3.347827 -0.0097,-0.0278 0.89439,-0.583432 2.009137,-1.234743 1.114746,-0.651312 3.679211,-2.15354 5.698811,-3.338285 5.008338,-2.938011 5.059864,-2.965573 6.168,-3.299342 0.904402,-0.272404 1.376873,-0.338742 2.376,-0.333608 0.794697,0.0041 0.937041,0.01763 1.354744,0.128917 1.168699,0.311372 2.012977,1.035132 2.305652,1.976527 0.153121,0.492516 0.139584,1.192199 -0.0344,1.777993 -0.394442,1.328063 -1.431968,2.641953 -2.857996,3.619275 -0.2244,0.153792 -2.6004,1.565019 -5.28,3.13606 -2.6796,1.571041 -5.3904,3.161191 -6.024,3.533667 -0.633601,0.372476 -1.162801,0.677549 -1.176001,0.67794 -0.0132,3.91e-4 -1.036111,-1.483067 -2.273136,-3.296574 z M 46.017268,48.21799 c 0.0864,-0.099 0.906937,-0.941592 1.823408,-1.872427 l 1.666312,-1.692428 0.415044,0.917584 c 0.228274,0.504671 0.419778,0.956876 0.425565,1.004901 0.0067,0.05572 -0.29045,0.401258 -0.821168,0.954844 l -0.831688,0.867526 h -1.417284 -1.417285 z m -22.296752,0.138638 c 0.02508,-0.02275 1.58445,-1.135471 3.465268,-2.472715 l 3.419667,-2.431353 1.424645,0.01272 1.424644,0.01272 -3.548312,2.456058 -3.548312,2.456059 -1.3416,0.0039 c -0.753833,0.0022 -1.321622,-0.01418 -1.296,-0.03742 z m 29.91069,-1.495527 c -0.117224,-0.329511 -0.270879,-0.750286 -0.341456,-0.935056 -0.152306,-0.398732 -0.138589,-0.386973 0.303048,0.259811 l 0.341319,0.499867 v 0.368133 c 0,0.316187 -0.02789,0.468247 -0.07689,0.419245 -0.0071,-0.0071 -0.108799,-0.282488 -0.226023,-0.612 z m -1.269782,-3.39899 c 0.132008,-0.02255 0.148926,0.01139 0.108475,0.217641 l -0.03574,0.182238 -0.08283,-0.192 c -0.08029,-0.186097 -0.07998,-0.192488 0.0101,-0.207879 z"
       id="path1"
       sodipodi:nodetypes="csscccssccccccssccsscssssssssssscsssssssssssscssssscssssssscsssssssscsscssssssscsscscscssccssssssccsssscssscsccccssccccccsscssscssscsssscsccsssssscccsccssscscscccssscsscssscccccccccccssscsscccsssscssssscssscsssssssssscscscccscsccccccccssscsssssscsss" />
  </g>
</svg>
